<?xml version="1.0" standalone="no"?>
<!DOCTYPE svg PUBLIC "-//W3C//DTD SVG 20010904//EN"
 "http://www.w3.org/TR/2001/REC-SVG-20010904/DTD/svg10.dtd">
<svg version="1.0" xmlns="http://www.w3.org/2000/svg"
 width="744.000000pt" height="149.000000pt" viewBox="0 0 744.000000 149.000000"
 preserveAspectRatio="xMidYMid meet">
<metadata>
Created by potrace 1.15, written by Peter Selinger 2001-2017
</metadata>
<g transform="translate(0.000000,149.000000) scale(0.100000,-0.100000)"
fill="#000000" stroke="none">
<path d="M1994 1151 c-104 -25 -201 -108 -255 -216 -34 -69 -34 -71 -34 -205
l0 -136 38 -76 c45 -92 123 -167 207 -200 85 -33 207 -31 280 4 30 15 65 35
78 44 22 16 22 16 22 -20 l0 -36 110 0 110 0 0 415 0 415 -109 0 -110 0 -3
-34 -3 -35 -54 34 c-78 49 -186 67 -277 46z m200 -203 c53 -16 118 -81 134
-134 45 -153 -37 -304 -174 -320 -67 -8 -117 9 -170 58 -116 107 -92 309 45
380 58 31 101 35 165 16z"/>
<path d="M3106 1144 c-53 -17 -88 -36 -123 -68 l-23 -19 0 41 0 42 -105 0
-105 0 0 -565 0 -565 105 0 105 0 0 185 c0 102 2 185 4 185 2 0 27 -15 55 -34
133 -90 317 -67 444 53 118 112 163 276 122 450 -30 126 -110 227 -221 278
-71 32 -187 40 -258 17z m127 -195 c161 -44 204 -298 69 -409 -68 -56 -149
-64 -229 -25 -85 43 -130 131 -120 237 13 146 141 236 280 197z"/>
<path d="M4118 1145 c-25 -8 -69 -30 -97 -49 l-51 -35 0 40 0 39 -105 0 -105
0 0 -565 0 -565 105 0 105 0 0 192 0 191 23 -19 c55 -49 150 -84 227 -84 112
0 234 65 307 163 128 175 108 451 -44 599 -94 92 -247 131 -365 93z m140 -201
c88 -36 137 -115 136 -219 -1 -246 -294 -326 -407 -110 -15 30 -21 58 -21 110
0 78 21 130 71 177 59 56 148 73 221 42z"/>
<path d="M61 973 c-17 -54 -45 -225 -38 -229 1 0 38 -8 82 -16 93 -18 180 -51
263 -99 82 -49 200 -170 252 -259 49 -85 64 -100 98 -100 17 0 22 4 18 18 -2
9 -12 46 -20 80 -71 285 -247 500 -509 622 -130 60 -121 61 -146 -17z"/>
<path d="M1326 1005 c-256 -111 -435 -312 -519 -580 -34 -111 -41 -155 -25
-155 33 0 57 14 68 38 25 57 101 160 158 216 112 110 251 182 403 208 l72 13
-6 76 c-6 79 -44 210 -62 216 -5 1 -46 -13 -89 -32z"/>
</g>
</svg>
