<?xml version="1.0" encoding="utf-8"?>
<!-- Generator: Adobe Illustrator 22.0.0, SVG Export Plug-In . SVG Version: 6.00 Build 0)  -->
<svg version="1.1" id="Layer_1" xmlns="http://www.w3.org/2000/svg" xmlns:xlink="http://www.w3.org/1999/xlink" x="0px" y="0px"
	 viewBox="0 0 64 64" style="enable-background:new 0 0 64 64;" xml:space="preserve">
<style type="text/css">
	.st0{opacity:0.1;}
	.st1{fill:#FFFFFF;}
</style>
<g class="st0">
	<path class="st1" d="M64,32c0-2.5-0.3-4.9-0.8-7.2v-0.1c-1-4.3-2.9-8.2-5.4-11.6c0,0,0,0,0,0c-0.2-0.3-0.5-0.6-0.7-0.9
		C57,12,57,12,56.9,11.9c-0.2-0.2-0.4-0.5-0.6-0.7c-0.1-0.1-0.2-0.2-0.3-0.4c-0.1-0.2-0.3-0.3-0.5-0.5c-0.2-0.2-0.3-0.4-0.5-0.5
		c-0.1-0.1-0.2-0.2-0.3-0.3c-0.2-0.2-0.5-0.5-0.7-0.7c0,0-0.1-0.1-0.1-0.1c-4-3.8-9-6.5-14.6-7.9h-0.1C36.9,0.3,34.5,0,32,0
		c-2.5,0-4.9,0.3-7.2,0.8h-0.2C12.6,3.6,3.2,13.3,0.7,25.5c0,0.1,0,0.1,0,0.2c-0.1,0.4-0.2,0.9-0.2,1.3c0,0.1,0,0.2-0.1,0.3
		c-0.1,0.4-0.1,0.8-0.2,1.2c0,0.1,0,0.3,0,0.4c0,0.4-0.1,0.8-0.1,1.2c0,0.1,0,0.2,0,0.3c0,0.5,0,1,0,1.6c0,0,0,0,0,0s0,0,0,0
		c0,12.9,7.7,24.1,18.7,29.1C22.8,63,27.3,64,32,64c0,0,0,0,0,0s0,0,0,0c0.5,0,1,0,1.6,0c0.1,0,0.2,0,0.4,0c0.4,0,0.8-0.1,1.2-0.1
		c0.1,0,0.3,0,0.4,0c0.4,0,0.8-0.1,1.2-0.1c0.1,0,0.2,0,0.4-0.1c0.4-0.1,0.8-0.1,1.2-0.2c0.1,0,0.2,0,0.2,0
		C50.7,60.8,60.2,51.5,63,39.4l0,0C63.5,37.1,64,34.5,64,32z M6.9,32C6.9,18.1,18.1,6.9,32,6.9c6.9,0,13.2,2.8,17.8,7.4
		c4.5,4.6,7.4,10.8,7.4,17.8c0,13.9-11.3,25.1-25.1,25.1c-6.9,0-13.2-2.8-17.8-7.4C9.7,45.2,6.9,38.9,6.9,32z"/>
	<path class="st1" d="M39.9,25.9c0.9,1.1,1.5,2.4,1.8,3.7L49,18.8l-12.3,4.4C37.9,23.9,39,24.8,39.9,25.9z"/>
	<path class="st1" d="M32.2,38.9c1.4,0,2.8-0.5,4-1.4c1.2-0.9,2-2.2,2.4-3.5c0.6-2.1,0.3-4.4-1.2-6.2c-1.4-1.9-3.6-2.8-5.7-2.7
		c-1.4,0-2.8,0.5-4,1.4c-1.2,0.9-2,2.2-2.4,3.5c-0.6,2.1-0.3,4.4,1.2,6.2C27.9,38.1,30.1,39,32.2,38.9z"/>
	<path class="st1" d="M24.1,38.1c-0.9-1.1-1.5-2.4-1.8-3.7L15,45.1l12.3-4.4C26.1,40.1,25,39.2,24.1,38.1z"/>
</g>
</svg>
