<?xml version="1.0" encoding="utf-8"?>
<!-- Generator: Adobe Illustrator 22.0.0, SVG Export Plug-In . SVG Version: 6.00 Build 0)  -->
<svg version="1.1" id="Layer_1" xmlns="http://www.w3.org/2000/svg" xmlns:xlink="http://www.w3.org/1999/xlink" x="0px" y="0px"
	 viewBox="0 0 64 64" style="enable-background:new 0 0 64 64;" xml:space="preserve">
<style type="text/css">
	.st0{opacity:0.1;}
	.st1{fill-rule:evenodd;clip-rule:evenodd;fill:#FFFFFF;}
</style>
<g class="st0">
	<path class="st1" d="M32,64C23.5,55.6,15,47.1,6.5,38.5c4.1,0,8.3,0,12.6,0c0-2.9,0-5.7,0-8.6c8.6,0,17.1,0,25.7,0
		c0,2.8,0,5.6,0,8.5c4.3,0,8.5,0,12.6,0C49,47,40.5,55.5,32,64z"/>
	<path class="st1" d="M19.2,25.6c0-2.8,0-5.6,0-8.5c8.5,0,17.1,0,25.6,0c0,2.8,0,5.6,0,8.5C36.3,25.6,27.8,25.6,19.2,25.6z"/>
	<path class="st1" d="M19.2,4.2c0-1.4,0-2.8,0-4.2c8.5,0,17.1,0,25.6,0c0,1.4,0,2.7,0,4.2C36.3,4.2,27.8,4.2,19.2,4.2z"/>
	<path class="st1" d="M44.8,8.6c0,1.4,0,2.8,0,4.2c-8.5,0-17.1,0-25.6,0c0-1.4,0-2.7,0-4.2C27.7,8.6,36.2,8.6,44.8,8.6z"/>
</g>
</svg>
