<?xml version="1.0" encoding="utf-8"?>
<!-- Generator: Adobe Illustrator 22.0.0, SVG Export Plug-In . SVG Version: 6.00 Build 0)  -->
<svg version="1.1" id="Layer_1" xmlns="http://www.w3.org/2000/svg" xmlns:xlink="http://www.w3.org/1999/xlink" x="0px" y="0px"
	 viewBox="0 0 64 64" style="enable-background:new 0 0 64 64;" xml:space="preserve">
<style type="text/css">
	.st0{opacity:0.1;}
	.st1{fill:#FFFFFF;}
</style>
<g class="st0">
	<path class="st1" d="M45.3,64c-0.3,0-0.5-0.1-0.7-0.2L32.6,56c-0.6,0-1.3,0-2,0C16.9,56,6.7,46.2,6.7,37.3c0-7.7,3.8-13.5,9.2-17
		c1.4-3.5,4-6.4,7.4-8.4C25.6,4.5,32.7,0,42.7,0c7.5,0,11.5,4.3,11.6,4.5c0.5,0.5,0.4,1.4-0.1,1.9c-0.5,0.5-1.4,0.5-1.9-0.1
		c-0.1-0.1-3.4-3.6-9.7-3.6c-6.2,0-12.7,2.1-15.7,7.4c3.4-1.3,7.3-2,11.7-2c9.1,0,18.7,4.7,18.7,13.3c0,2.5-1.2,4.7-3.2,6.5
		c0.4,1.4,0.6,2.8,0.6,4.2c0,6-7.1,10.7-16.2,10.7c-16.6,0-24-7.9-24-15.8c0-0.8,0.1-1.6,0.1-2.4c-3.3,3.1-5.4,7.4-5.4,12.8
		c0,7.6,9.1,16.1,21.3,16.1c0.8,0,1.6,0,2.3,0c0.3,0,0.5,0.1,0.8,0.2l10.2,6.6l-0.1-7.5c0-0.6,0.3-1.1,0.8-1.3c3.2-1.3,4.9-3,6.9-5
		l1-1c0.5-0.5,1.4-0.5,1.9,0c0.5,0.5,0.5,1.4,0,1.9l-1,1c-1.8,1.9-3.7,3.8-6.9,5.3l0.1,9.1c0,0.5-0.3,0.9-0.7,1.2
		C45.7,63.9,45.5,64,45.3,64z M18.1,22c-0.5,1.5-0.8,3.2-0.8,4.9c0,7.9,8.6,13.1,21.3,13.1c7.3,0,13.5-3.7,13.5-8.1
		c0-0.9-0.1-1.7-0.3-2.5c-2.8,1.6-6.5,2.6-10.6,2.6c-10.1,0-17.3-4.8-18.6-12.2C21.1,20.4,19.5,21.2,18.1,22z M25.3,19.2
		c1,6.3,7,10.2,16,10.2c3.8,0,7.2-1,9.7-2.5c-2.7-5.3-9.9-8.3-20.3-8.3C28.8,18.6,27,18.8,25.3,19.2z M30.6,15.9
		c12.6,0,19.4,4.1,22.4,9.3c1.1-1.2,1.7-2.5,1.7-3.9c0-7.3-9.4-10.6-16-10.6c-5.1,0-9.6,1.1-13.1,2.9c-0.2,0.9-0.3,1.8-0.4,2.8
		C27,16.1,28.8,15.9,30.6,15.9z M22.6,15.7c-0.8,0.7-1.6,1.4-2.2,2.3c0.7-0.3,1.4-0.5,2.1-0.8C22.5,16.7,22.5,16.2,22.6,15.7z"/>
</g>
</svg>
