<?xml version="1.0" encoding="utf-8"?>
<!-- Generator: Adobe Illustrator 22.0.0, SVG Export Plug-In . SVG Version: 6.00 Build 0)  -->
<svg version="1.1" id="Layer_1" xmlns="http://www.w3.org/2000/svg" xmlns:xlink="http://www.w3.org/1999/xlink" x="0px" y="0px"
	 viewBox="0 0 240 160" style="enable-background:new 0 0 240 160;" xml:space="preserve">
<style type="text/css">
	.st0{fill:#DAA427;}
	.st1{fill:#205264;}
	.st2{fill:#DCA50F;}
</style>
<g>
	<path class="st0" d="M16.1,80c0-18,14.6-32.6,32.6-32.6S81.3,62,81.3,80s-14.6,32.6-32.6,32.6S16.1,98,16.1,80"/>
	<path class="st1" d="M17.6,79.9c0-17.2,14-31.2,31.2-31.2S80,62.7,80,79.9s-14,31.2-31.2,31.2C31.5,111.1,17.6,97.1,17.6,79.9"/>
	<path class="st2" d="M48.7,97.4c-0.7,0.4-5.5,4.5-15.1,4.5c-8.1,0-16.8-4.1-19.5-4c-0.9,0-1.7,0.2-2.3,0.4
		c-1.1,0.5-1.9-0.3-1.8-0.9c0.1-0.6,1-1.8,1.7-2.7c0.8-1.1,2.1-2.2,3.5-3.2c3.9-2.6,7.4-2.7,9-2.4c0.2,0,0.9,0.1,2,1.1
		c2.6,2.5,7.4,5.7,11,6.3c0.4,0,2,0.2,2.1-0.3c0-0.3-0.4-0.4-0.6-0.4c-5.8-1.3-9.2-4.2-12.4-7.1c-2.6-2.4-4.6-5.3-6.1-8.2
		c-1.2-2.3-2.8-6.8-5.9-8.3c-0.7-0.3-0.7-1.6,0.7-1.9c1-0.2,6.9-0.8,14,3c2.8,1.5,3.7,3.2,3.8,3.6c0,0,0.2,0.1,0.2,0.8
		c0.4,10.2,4.9,13.7,7.1,15.2c0.9,0.7,2,1,2.3,0.7c0.1-0.1-0.2-0.5-0.5-0.6c-6.3-4.1-7.5-9.5-7.8-15.3s2.1-10.7,3.6-14.8
		c0.2-0.6,1.1-3.2,0.4-5.4c-0.4-1.5,0-1.9,0.9-2c0.8-0.1,2.1,1.6,2.6,2.2c0.3,0.4,1.5,1.7,3.2,5.1c3.3,6.7,3.4,14,3.4,14.9
		c-0.1,4.8-0.9,5.1-3.2,6.2c-1.9,0.7-3,2.3-3,3.7c0,1.5,1.1,2.6,3.2,3.5c0.1,0,0.4,0.1,0.5,0.1c0.9,0.2,1.7,0,1.7-0.3
		s-0.9-0.4-0.9-0.4c-2-0.5-3.4-1.6-3.4-2.9c0-1.8,2.5-3.5,5.6-3.5h0.2h0.2c3.2,0,5.6,1.8,5.6,3.5c0,1.3-1.4,2.4-3.4,2.9
		c0,0-0.9,0.1-0.9,0.4s0.7,0.5,1.7,0.3c0.1,0,0.3-0.1,0.5-0.1c2.1-0.9,3.2-2,3.2-3.5s-1.1-3-3-3.7c-2.3-1.1-3.2-1.4-3.2-6.2
		c0-0.8,0-8.2,3.4-14.9c1.7-3.4,2.8-4.7,3.2-5.1c0.4-0.5,1.7-2.3,2.6-2.2c0.8,0.1,1.3,0.5,0.9,2c-0.7,2.2,0.2,4.9,0.4,5.4
		c1.5,4.1,4,9.1,3.6,14.8C63,83.5,61.8,88.8,55.5,93c-0.2,0.2-0.6,0.5-0.5,0.6c0.3,0.3,1.4,0,2.3-0.7c2.2-1.6,6.7-5,7.1-15.2
		c0-0.7,0.2-0.8,0.2-0.8c0.1-0.4,1-2.1,3.8-3.6c7.1-3.8,13.1-3.3,14-3c1.4,0.3,1.4,1.6,0.7,1.9c-3,1.5-4.7,6.1-5.9,8.3
		c-1.5,2.9-3.5,5.8-6.1,8.2c-3.2,2.9-6.6,5.8-12.4,7.1c-0.2,0-0.6,0.1-0.6,0.4c0,0.5,1.7,0.3,2.1,0.3c3.6-0.6,8.4-3.8,11-6.3
		c1.1-1.1,1.8-1.1,2-1.1c1.6-0.3,5.1-0.2,9,2.4c1.4,0.9,2.7,2.1,3.5,3.2c0.7,0.9,1.6,2.1,1.7,2.7s-0.6,1.4-1.8,0.9
		c-0.6-0.3-1.4-0.5-2.3-0.4c-2.7-0.1-11.4,4-19.5,4C54.2,101.8,49.4,97.7,48.7,97.4"/>
	<path class="st1" d="M145.9,104.3h-0.7l-1.3,2.1c-0.1,0.2-0.1,0.3-0.2,0.4c0-0.1-0.1-0.2-0.2-0.4l-1.4-2.1h-0.9l2,3v1.9h0.7v-2
		L145.9,104.3z"/>
	<path class="st1" d="M95.8,107.4l0.9-1.7c0.1-0.2,0.1-0.3,0.2-0.4c0,0.1,0.1,0.2,0.2,0.4l0.8,1.7H95.8z M97,104.3h-0.2l-2.6,4.9
		h0.7l0.7-1.4H98l0.7,1.4h0.8L97,104.3z"/>
	<path class="st1" d="M105.4,105.5c0.1,0,0.1,0,0.2-0.1c-0.1-0.9-0.8-1.3-1.7-1.3c-1.1,0-1.8,0.7-1.8,1.4c0,1,1,1.2,1.3,1.3
		c0.1,0,0.5,0.1,0.6,0.1c0.5,0.1,0.7,0.2,0.9,0.4c0.1,0.2,0.2,0.4,0.2,0.5c0,0.6-0.6,1-1.3,1c-0.3,0-0.7-0.1-1.1-0.3
		c-0.4-0.3-0.5-0.5-0.6-0.7c-0.1,0-0.2,0-0.2,0.1c0,0.7,0.5,1.4,1.9,1.4s2-0.8,2-1.5c0-1-1-1.2-1.3-1.3c-0.1,0-0.8-0.2-0.9-0.2
		c-0.4-0.1-0.8-0.3-0.8-0.8s0.4-0.9,1.1-0.9C104.8,104.6,105.2,105.3,105.4,105.5"/>
	<path class="st1" d="M111.2,104.3h-0.8v3.8c-0.4,0.4-1,0.8-1.7,0.8c-0.5,0-0.9-0.2-1.1-0.5c-0.1-0.2-0.2-0.5-0.2-1v-3.1h-0.8v3.4
		c0,0.5,0.1,0.9,0.4,1.2c0.3,0.3,0.8,0.5,1.5,0.5s1.4-0.2,1.9-0.9v0.7h0.8C111.2,109.2,111.2,104.3,111.2,104.3z"/>
	<path class="st1" d="M113.5,104.7h0.7c0.3,0,1.3,0,1.3,0.8c0,0.9-1.2,1-2,1V104.7z M113.5,106.8c1.1,0,2.3,0,2.3,1.1
		c0,0.2-0.1,0.5-0.3,0.6c-0.4,0.3-0.9,0.3-1.2,0.3h-0.8V106.8z M114.6,109.2c0.7,0,1.1-0.1,1.5-0.4s0.5-0.7,0.5-1
		c0-0.4-0.2-0.7-0.5-0.9c-0.4-0.3-0.8-0.3-1.1-0.3c0.2,0,0.6-0.1,0.9-0.4c0.2-0.2,0.3-0.5,0.3-0.7c0-0.3-0.1-0.6-0.5-0.9
		s-0.9-0.3-1.3-0.3h-1.7v4.9C112.7,109.2,114.6,109.2,114.6,109.2z"/>
	<path class="st1" d="M120.7,105.5c0.1,0,0.1,0,0.2-0.1c-0.1-0.9-0.8-1.3-1.7-1.3c-1.1,0-1.8,0.7-1.8,1.4c0,1,1,1.2,1.3,1.3
		c0.1,0,0.5,0.1,0.6,0.1c0.5,0.1,0.7,0.2,0.9,0.4c0.1,0.2,0.2,0.4,0.2,0.5c0,0.6-0.6,1-1.3,1c-0.3,0-0.7-0.1-1.1-0.3
		c-0.4-0.3-0.5-0.5-0.6-0.7c-0.1,0-0.1,0-0.2,0.1c0,0.7,0.5,1.4,1.9,1.4s2-0.8,2-1.5c0-1-1-1.2-1.3-1.3c-0.1,0-0.8-0.2-0.9-0.2
		c-0.4-0.1-0.8-0.3-0.8-0.8s0.4-0.9,1.1-0.9C120.1,104.6,120.5,105.3,120.7,105.5"/>
	<rect x="122" y="104.3" class="st1" width="0.8" height="4.9"/>
	<path class="st1" d="M125,104.7h0.7c0.6,0,1.4,0,2,0.6c0.3,0.3,0.5,0.8,0.5,1.5c0,1-0.6,1.5-0.9,1.7c-0.4,0.3-0.8,0.3-1.6,0.3H125
		V104.7z M126,109.2c1,0,1.7-0.2,2.3-0.7c0.5-0.4,0.8-1,0.8-1.8s-0.4-1.5-0.9-1.9c-0.6-0.4-1.3-0.6-2-0.6h-1.8v4.9L126,109.2
		L126,109.2z"/>
	<rect x="130.1" y="104.3" class="st1" width="0.8" height="4.9"/>
	<path class="st1" d="M133,107.4l0.9-1.7c0.1-0.2,0.1-0.3,0.2-0.4c0,0.1,0.1,0.2,0.2,0.4l0.8,1.7H133z M134.2,104.3H134l-2.6,4.9
		h0.7l0.7-1.4h2.5l0.7,1.4h0.8L134.2,104.3z"/>
	<path class="st1" d="M138,104.7h0.8c0.5,0,0.8,0.1,1.1,0.3c0.2,0.2,0.2,0.4,0.2,0.6c0,0.7-0.8,1.2-2.1,1.1V104.7z M139.9,106.8
		c0.2-0.1,0.5-0.2,0.7-0.5c0.2-0.2,0.3-0.5,0.3-0.8c0-0.4-0.2-0.8-0.5-1c-0.4-0.2-0.8-0.3-1.6-0.3h-1.5v4.9h0.8V107
		c0.1,0,0.2,0,0.4,0c0.4,0,0.6,0,0.7,0l1.5,2.3h0.8L139.9,106.8z"/>
	<path class="st1" d="M152.9,106.7c0,1.3-0.7,2.2-1.9,2.2c-1,0-1.9-0.8-1.9-2.2c0-1.2,0.7-2.2,1.9-2.2
		C152.3,104.6,152.9,105.6,152.9,106.7 M153.7,106.7c0-1.3-0.9-2.6-2.7-2.6s-2.7,1.2-2.7,2.6c0,1.6,1.1,2.6,2.7,2.6
		C152.7,109.4,153.7,108.2,153.7,106.7"/>
	<polygon class="st1" points="155.5,106.9 157.8,106.9 157.8,106.5 155.5,106.5 155.5,104.7 158.2,104.7 158.2,104.3 154.7,104.3 
		154.7,109.2 155.5,109.2 	"/>
	<path class="st1" d="M165,104.3l-1.8,3.5c-0.1,0.3-0.2,0.3-0.2,0.4c-0.1-0.1-0.1-0.2-0.2-0.4l-1.7-3.5h-0.8l2.6,5h0.2l2.6-5H165z"
		/>
	<rect x="166.1" y="104.3" class="st1" width="0.8" height="4.9"/>
	<polygon class="st1" points="169.1,108.8 169.1,106.9 171.4,106.9 171.4,106.4 169.1,106.4 169.1,104.7 171.7,104.7 171.7,104.3 
		168.4,104.3 168.4,109.2 172.1,109.2 172.1,108.8 	"/>
	<polygon class="st1" points="174.6,104.7 176.3,104.7 176.3,104.3 172.1,104.3 172.1,104.7 173.8,104.7 173.8,109.2 174.6,109.2 	
		"/>
	<path class="st1" d="M181.5,104.3h-0.7v3.7c-0.2-0.2-0.2-0.3-0.5-0.6l-2.9-3.1h-0.6v4.9h0.7v-4c0.1,0.2,0.3,0.4,0.5,0.5l3.3,3.5
		h0.2V104.3z"/>
	<path class="st1" d="M183.7,107.4l0.9-1.7c0.1-0.2,0.1-0.3,0.2-0.4c0,0.1,0.1,0.2,0.2,0.4l0.8,1.7H183.7z M184.9,104.3h-0.2
		l-2.6,4.9h0.7l0.7-1.4h2.5l0.7,1.4h0.8L184.9,104.3z"/>
	<path class="st1" d="M193.2,104.3h-0.4l-1.6,3.4c-0.1,0.3-0.2,0.5-0.3,0.7c-0.1-0.2-0.2-0.5-0.3-0.8l-1.6-3.3h-0.4l-0.8,4.9h0.6
		l0.4-2.4c0.1-0.7,0.1-1,0.1-1.3c0.1,0.2,0.1,0.4,0.4,1l1.3,2.7h0.4l1.3-2.7c0.2-0.4,0.3-0.5,0.4-1c0,0.3,0,0.5,0.1,1.2l0.4,2.6h0.8
		L193.2,104.3z"/>
	<path class="st1" d="M198,107.4l0.9-1.7c0.1-0.2,0.1-0.3,0.2-0.4c0,0.1,0.1,0.2,0.2,0.4l0.8,1.7H198z M199.2,104.3H199l-2.6,4.9
		h0.7l0.7-1.4h2.5l0.7,1.4h0.8L199.2,104.3z"/>
	<rect x="202.4" y="104.3" class="st1" width="0.8" height="4.9"/>
	<path class="st1" d="M205.3,104.7h0.8c0.5,0,0.8,0.1,1.1,0.3c0.2,0.2,0.2,0.4,0.2,0.6c0,0.7-0.8,1.2-2.1,1.1V104.7z M207.1,106.8
		c0.2-0.1,0.5-0.2,0.7-0.5c0.2-0.2,0.3-0.5,0.3-0.8c0-0.4-0.2-0.8-0.5-1c-0.4-0.2-0.8-0.3-1.6-0.3h-1.5v4.9h0.8V107
		c0.1,0,0.2,0,0.4,0c0.4,0,0.6,0,0.7,0l1.5,2.3h0.8L207.1,106.8z"/>
	<polygon class="st1" points="210.3,108.8 210.3,104.3 209.5,104.3 209.5,109.2 213,109.2 213,108.8 	"/>
	<rect x="213.6" y="104.3" class="st1" width="0.8" height="4.9"/>
	<path class="st1" d="M220.5,104.3h-0.7v3.7c-0.2-0.2-0.2-0.3-0.5-0.6l-2.9-3.1h-0.6v4.9h0.7v-4c0.1,0.2,0.3,0.4,0.5,0.5l3.3,3.5
		h0.2V104.3z"/>
	<polygon class="st1" points="222.7,108.8 222.7,106.9 225,106.9 225,106.4 222.7,106.4 222.7,104.7 225.4,104.7 225.4,104.3 
		222,104.3 222,109.2 225.7,109.2 225.7,108.8 	"/>
	<path class="st1" d="M229.6,105.5c0.1,0,0.1,0,0.2-0.1c-0.1-0.9-0.8-1.3-1.7-1.3c-1.1,0-1.8,0.7-1.8,1.4c0,1,1,1.2,1.3,1.3
		c0.1,0,0.5,0.1,0.6,0.1c0.5,0.1,0.7,0.2,0.9,0.4c0.2,0.2,0.2,0.4,0.2,0.5c0,0.6-0.6,1-1.3,1c-0.3,0-0.7-0.1-1.1-0.3
		c-0.4-0.3-0.5-0.5-0.6-0.7c-0.1,0-0.1,0-0.2,0.1c0,0.7,0.5,1.4,1.9,1.4s2-0.8,2-1.5c0-1-1-1.2-1.3-1.3c-0.1,0-0.8-0.2-0.9-0.2
		c-0.4-0.1-0.8-0.3-0.8-0.8s0.4-0.9,1.1-0.9C229.1,104.6,229.4,105.2,229.6,105.5"/>
	<path class="st1" d="M122,73l-12.3,25.7h-0.9l-12.2-25c-0.6-1.4-2-3-3.8-4.9h7.1L111,91.5l10.9-22.7h2.8
		C123.6,70.1,122.7,71.5,122,73"/>
	<path class="st1" d="M128.3,98.3c0.6-1.4,0.9-2.9,0.9-4.7V73.4c0-1.7-0.3-3.2-0.9-4.6h7c-0.6,1.3-0.9,2.8-0.9,4.6v20.2
		c0,1.8,0.3,3.3,0.9,4.7H128.3z"/>
	<path class="st1" d="M162.8,98.3l-5.3-11H146l-5.3,11h-2.9c1.1-1.3,2-2.7,2.7-4.2l12.4-25.7h0.9l12.2,25c0.6,1.4,2,3,3.8,4.9
		C169.8,98.3,162.8,98.3,162.8,98.3z M151.7,75.5l-4.7,9.7h9.4L151.7,75.5z"/>
	<path class="st1" d="M200.4,89v7.3c-3.4,1.5-7.3,2.2-11.8,2.2c-3.9,0-7.3-0.7-10.3-2.2c-3.5-1.7-6-4.3-7.5-7.6
		c-0.6-1.5-0.9-3-0.9-4.7c0-4.3,1.8-8,5.6-11c3.6-2.9,8-4.4,13-4.4c3.7-0.1,7.5,0.8,11.1,2.6l0.4,4c-3.7-3-7.5-4.5-11.5-4.5
		c-4.6,0-8.1,1.5-10.4,4.5c-1.8,2.4-2.7,5.1-2.5,8.2c0.2,3.3,1.5,6.2,3.9,8.9c2.7,2.9,5.8,4.3,9.5,4.3c2.6-0.1,4.7-0.4,6.3-1.1V89
		c0-1-0.3-2.2-0.9-3.4h7C200.7,87,200.4,88.2,200.4,89"/>
	<path class="st1" d="M224.7,97.1c-2.6,1-5.3,1.6-8,1.5c-3.5-0.1-7.3-1.1-11.3-3l-0.6-4.2c4.1,3.4,8.1,5.1,12,5.3
		c1.9,0.1,3.5-0.2,4.9-0.9c1.5-0.7,2.4-1.9,2.7-3.4c0.1-0.4,0.1-0.9,0.1-1.3c0-1.5-0.9-3-2.7-4.2c-0.9-0.6-2.5-1.5-5-2.6
		c-4.1-1.9-6.6-3.1-7.6-3.8c-2.2-1.5-3.4-3.2-3.4-5c0-2.2,1.3-4,3.9-5.4c2.2-1.2,4.7-1.8,7.5-1.8c3.2-0.1,6.6,0.7,10.3,2.2l0.4,3.3
		c-3.1-2.5-6.3-3.7-9.6-3.7c-0.7,0-1.3,0.1-1.9,0.2c-3.4,0.6-5.1,1.9-5.1,3.7c0,2,2.4,4.1,7.3,6.1c4.1,1.8,6.8,3.1,8.2,4.2
		c2.1,1.6,3.2,3.5,3.2,5.7c0,0.6-0.1,1.3-0.2,1.9C229.5,94.2,227.8,95.8,224.7,97.1"/>
</g>
</svg>
