<?xml version="1.0" encoding="utf-8"?>
<!-- Generator: Adobe Illustrator 22.0.0, SVG Export Plug-In . SVG Version: 6.00 Build 0)  -->
<svg version="1.1" id="Layer_1" xmlns="http://www.w3.org/2000/svg" xmlns:xlink="http://www.w3.org/1999/xlink" x="0px" y="0px"
	 viewBox="0 0 240 160" style="enable-background:new 0 0 240 160;" xml:space="preserve">
<style type="text/css">
	.st0{fill:#009FE3;}
	.st1{fill:#001589;}
</style>
<g>
	<path class="st0" d="M129,90.9c-6,0-10.9-4.9-10.9-10.9S123,69.2,129,69.2s10.9,4.9,10.9,10.8C139.9,86,135,90.9,129,90.9"/>
	<path class="st1" d="M62.8,49.6H75c0.8,0,1.7,0.6,2,1.4l21.2,58c0.3,0.8-0.2,1.4-1,1.4h-12c-0.8,0-1.7-0.6-2-1.4L79,96.4H57.6
		L53.4,109c-0.3,0.8-1.1,1.4-2,1.4H40.1c-0.8,0-1.3-0.6-1-1.4l21.6-58C61,50.2,61.9,49.6,62.8,49.6 M75.8,85.8l-7.4-23l-7.6,23H75.8
		z"/>
	<path class="st1" d="M155.9,49.6h21.3c3.8,0,7,0.4,9.6,1.3c2.6,0.9,4.7,2.1,6.4,3.5c1.6,1.5,2.8,3.1,3.6,5.1c0.7,1.9,1.1,3.9,1.1,6
		c0,1.9-0.4,3.7-1,5.1c-0.7,1.5-1.5,2.8-2.5,3.8c-0.9,1.1-1.9,1.9-3,2.5s-2,1-2.7,1.2c1.1,0.2,2.4,0.7,3.8,1.3
		c1.4,0.6,2.8,1.6,4.1,2.7c1.3,1.2,2.4,2.7,3.2,4.5c0.9,1.8,1.3,3.9,1.3,6.3c0,3.2-0.6,5.8-1.7,8c-1.1,2.2-2.7,4-4.7,5.4
		s-4.5,2.4-7.5,3.1c-2.9,0.6-6.2,1-9.9,1H156c-0.8,0-1.5-0.7-1.5-1.5V51.1C154.4,50.2,155.1,49.6,155.9,49.6 M175.9,73.9
		c1,0,2.1-0.1,3.1-0.4c1-0.2,1.9-0.6,2.6-1.1c0.8-0.5,1.4-1.2,1.9-2.1s0.7-2,0.7-3.2c0-1.3-0.2-2.4-0.7-3.3
		c-0.5-0.9-1.1-1.6-1.9-2.1c-0.8-0.5-1.7-0.9-2.7-1.1c-1-0.2-2-0.3-3-0.3h-8.1V74h8.1V73.9z M176.8,99.8c1,0,2.1-0.1,3.3-0.2
		c1.2-0.2,2.3-0.5,3.4-1c1-0.5,1.9-1.3,2.6-2.4c0.7-1,1-2.5,1-4.3c0-1.6-0.3-3-1-4s-1.5-1.8-2.6-2.4c-1-0.6-2.2-1-3.4-1.2
		s-2.3-0.3-3.4-0.3h-8.9v15.9L176.8,99.8L176.8,99.8z"/>
	<path class="st1" d="M141.1,94.2c-3.3,3.1-7.7,5-12.5,5c-10.2,0-18.5-8.6-18.5-19.2s8.3-19.2,18.5-19.2c4.6,0,8.9,1.8,12.1,4.7
		c0.6,0.6,1.5,0.6,2.1,0l6.6-6.6c0.6-0.6,0.6-1.5,0-2.1c-5.7-5.4-13.3-8.8-21.8-8.8c-17.5,0-31.7,14.3-31.7,32
		c0,17.6,14.2,32,31.7,32c8.6,0,16.4-3.5,22.1-9.1c0.6-0.6,0.6-1.5,0-2.1l-6.6-6.6C142.6,93.6,141.7,93.6,141.1,94.2"/>
</g>
</svg>
