<?xml version="1.0" encoding="utf-8"?>
<!-- Generator: Adobe Illustrator 22.0.0, SVG Export Plug-In . SVG Version: 6.00 Build 0)  -->
<svg version="1.1" id="Layer_1" xmlns="http://www.w3.org/2000/svg" xmlns:xlink="http://www.w3.org/1999/xlink" x="0px" y="0px"
	 viewBox="0 0 24 24" style="enable-background:new 0 0 24 24;" xml:space="preserve">
<style type="text/css">
	.st0{fill:#FFFFFF;}
	.st1{fill:#FDB813;}
</style>
<g>
	<path class="st0" d="M12,3.9L12,3.9c2.9,0,5.4,1.5,6.8,3.8c1.4-0.9,2.7-1.4,3.6-1.7C20.3,2.4,16.4,0,12,0h0h0
		C7.6,0,3.7,2.5,1.6,6.1c0.9,0.3,2.2,0.8,3.6,1.7C6.6,5.4,9.1,3.9,12,3.9z"/>
	<path class="st0" d="M19.6,14.6c-0.8,2.3-2.5,4.1-4.7,5c-0.3,0.1-0.6,0.2-0.9,0.3c-0.3,0.1-0.5,0.1-0.8,0.2c0,0-0.1,0-0.1,0
		c-0.2,0-0.4,0-0.7,0.1c0,0,0,0-0.1,0c-0.1,0-0.2,0-0.3,0h0c-0.1,0-0.2,0-0.3,0c0,0-0.1,0-0.1,0c-0.2,0-0.4,0-0.7-0.1c0,0,0,0-0.1,0
		c-0.3,0-0.6-0.1-0.8-0.2c-0.3-0.1-0.6-0.2-0.9-0.3c-2.2-0.9-3.9-2.6-4.7-4.9c-0.3-0.2-0.6-0.3-0.9-0.4c-1-0.4-2.2-0.7-3.4-0.9
		C0.8,19.3,5.8,24,12,24h0c0,0,0,0,0,0c6.2,0,11.3-4.7,11.9-10.7c-1.3,0.2-2.4,0.4-3.5,0.9C20.2,14.3,19.9,14.5,19.6,14.6z"/>
	<path class="st1" d="M4.8,13.4c0.3,0.1,0.5,0.3,0.8,0.4c2.1,1.3,3.5,3,4.5,4.7c0.3,0.1,0.6,0.2,1,0.2c0.1,0,0.1,0,0.2,0
		c0,0,0.1,0,0.1,0c0-0.1,0-0.2-0.1-0.3c-1.1-4.3-3.3-7-5.6-8.8C5.5,9.6,5.4,9.4,5.2,9.3C5,9.2,4.8,9,4.6,8.9C3.2,8.1,1.9,7.6,1,7.3
		c0,0.1-0.1,0.2-0.1,0.3C0.8,7.7,0.7,7.9,0.7,8.2C0.3,9.1,0.1,10,0.1,11c0,0.2,0,0.4,0,0.7c0,0.1,0,0.2,0,0.3c1.5,0.2,2.9,0.5,4.1,1
		C4.3,13.1,4.6,13.2,4.8,13.4z"/>
	<path class="st1" d="M18.8,9.3c-0.2,0.1-0.4,0.2-0.6,0.4c-2.3,1.7-4.5,4.5-5.6,8.8c0,0.1,0,0.2-0.1,0.3c0,0,0.1,0,0.1,0
		c0.1,0,0.1,0,0.2,0c0.3,0,0.6-0.1,0.9-0.2c1-1.7,2.4-3.5,4.5-4.8c0.3-0.2,0.5-0.3,0.8-0.4c0.2-0.1,0.5-0.3,0.7-0.4
		c1.2-0.5,2.5-0.9,4.1-1c0-0.1,0-0.2,0-0.3c0-0.2,0-0.4,0-0.7c-0.1-1-0.3-1.9-0.6-2.8c-0.1-0.2-0.2-0.4-0.2-0.6
		c0-0.1-0.1-0.2-0.1-0.3c-1,0.3-2.2,0.8-3.6,1.7C19.2,9,19,9.1,18.8,9.3z"/>
</g>
</svg>
