<?xml version="1.0" encoding="utf-8"?>
<!-- Generator: Adobe Illustrator 22.0.0, SVG Export Plug-In . SVG Version: 6.00 Build 0)  -->
<svg version="1.1" id="Layer_1" xmlns="http://www.w3.org/2000/svg" xmlns:xlink="http://www.w3.org/1999/xlink" x="0px" y="0px"
	 viewBox="0 0 240 160" style="enable-background:new 0 0 240 160;" xml:space="preserve">
<style type="text/css">
	.st0{fill:#68737A;}
	.st1{fill:#ED1B2D;}
</style>
<g>
	<path class="st0" d="M104.9,12.5c1.3,0,1,1.9,3.7,1.9c1.5,0,1.7-0.8,3.6-0.8c5.3,0,7.2,6.4,10.9,6.4c1.7,0,1.8-1.1,3.6-1.1
		c0.6,0,1.9,0.4,2.4,0.9s1.5,1.4,4.2,8.6c0.3,0.8-0.1,1.1-0.5,1.1s-1.2-0.4-3.1-2.3c-1-1.1-1.9-0.6-6.5-3.5
		c-2.1-1.3-4.2-3.3-6.5-4.1c-2.3-0.9-6.2-1.2-7.6-1.5c-1.9-0.4-5-1.9-5-4.1C103.9,13.1,104.3,12.5,104.9,12.5"/>
	<path class="st0" d="M131,11.6c1.1,0,1.9,1.7,3,2.8c2.6,2.5,6.7,0.9,9.8,4c0.8,0.8,1.4,2.7,1.4,4.5s-0.4,3.7-1.3,3.7
		c-2.2,0-0.8-3.5-5.2-6.2c-4.4-2.6-5.2-2.8-7-4.6s-1.9-2.6-1.9-3C129.7,12.3,130.1,11.6,131,11.6"/>
	<path class="st0" d="M150.9,19.9c1.1,0,0.8,1.5,2,2.5s2,0.7,3.7,2.4c0.8,0.8,0.9,1.3,0.9,1.5s-0.4,2.8-3.1,2.8
		c-0.6,0-1.1-0.1-1.5-1c-0.6-1.3-0.4-3.1-1.7-4.8c-1.2-1.4-1.4-1.5-1.4-2.4C149.8,20.1,150.6,19.9,150.9,19.9"/>
	<path class="st0" d="M156.4,52.7c0.7,0,1.2,0.2,1.2,0.7s-0.8,0.5-1.2,0.6s-3.4,0.6-4.7,2.7c-0.2,0.3,0,0.7,0.2,0.8
		c0.3,0.1,3.6,1.8,3.6,3s-2.6,2.4-3.3,2.4c-0.8,0-1.1-0.9-1.1-1.1c0-0.3,0.7-0.7,0.7-1.1c0-0.3-0.6-0.8-1-0.8s-0.5,0.2-0.7,1
		c-0.2,0.9-1,4.3-1.1,6.4c-0.2,2.1-0.8,7.5-0.8,8.2s-0.1,2.6-1.6,3.7s-2.8,1.8-2.8,1.8s-0.6,0.4-0.8,0.4s-0.7-0.5-1.3-1
		s-1.3-0.5-1.7-0.5c-0.8,0-2.3,1.2-3.5,1.2c-1.1,0-3.4-1.3-3.4-2c0-0.2,0.4-0.4,0.6-0.4c0.5,0,1.4,0.6,2.5,0.6s2.1-1,3.5-1
		c0.8,0,2.7,0.4,4.2,0.4s2.1-0.4,2.3-0.8s0.7-1,0.7-2.7s-1.1-7.4-1.1-10.9s0.6-6.5,2.4-8.3C150,54.2,153.7,52.7,156.4,52.7"/>
	<path class="st0" d="M158.6,62.8c0.4,0,0.9,0.5,0.9,2c0,1.5-1,11-3.6,17.6s-3.3,6.7-5.5,10.5s-4,7.9-6.4,10.3
		c-0.9,0.9-2.3,2.1-5.6,2.1s-8.1-0.7-13.4-2.9c-5.4-2.2-10.7-5.3-13.9-8.5c-0.5-0.5-0.2-0.9,0.6-0.5c0.8,0.4,5.2,3.8,13.5,6.3
		c6.1,1.8,7.7,1.9,10.3,1.9c2.4,0,5.1,0.4,8.1-2.6c3.1-3.1,5.6-8.2,6.7-10.2c1.1-2,3.3-5.5,5.4-11.9c2.1-6.5,2.4-10,2.6-12.8
		C158.2,63.2,158.3,62.8,158.6,62.8"/>
	<path class="st0" d="M137.8,83.8c1.2,0,2.2,1.7,3.4,1.7c1.3,0,1.7-1.4,2.4-1.4c0.8,0,1,1.6,1.2,2.2c0.3,0.6,0.5,0.9,0.5,1
		c0,0.2-0.3,0.4-0.6,0.4s-0.9-0.5-2.3-0.5c-1,0-1.8,0.7-1.9,0.8c-0.1,0.2-0.3,0.1-0.5,0c-0.4-0.3-1.3-1.7-2.8-1.7
		c-0.8,0-1.8,0.5-2.9,1.2c-1.1,0.7-1.9,0.9-2.9,0.9c-0.9,0-2-0.3-2-0.9c0-0.3,0.5-0.6,0.8-0.6c0.8,0,1.7,0.2,3.6-0.9
		C135.3,85.2,136.7,83.8,137.8,83.8"/>
	<path class="st0" d="M134.1,89.5c0.6,0,1.7,1.3,4.9,1.3c3.1,0,3.9-1.4,4.6-1.4c0.4,0,0.4,0.4,0.4,0.6c0,0.1-1.2,4.1-4.4,4.1
		c-1.9,0-3.9-1.6-4.7-2.3c-0.7-0.7-1.3-1.5-1.3-1.8C133.7,89.6,133.9,89.5,134.1,89.5"/>
	<path class="st0" d="M128.5,55.8c2.2,0,7.1,0.5,7.1,1.8c0,0.7-2.2,0.1-3.9,0.1s-1.9,0.1-1.9,0.2c0,0.1,0,0.2,0.2,0.3
		s1.2,1.3,1.2,1.7c0,1.3-3.4,2.7-4.2,2.7c-0.5,0-1.4-0.5-1.4-1.1c0-0.4,1.8-0.9,1.8-1.3c0-0.4-1-1.3-2-1.3s-3.8,2-4.2,2
		c-0.4,0-0.5-0.3-0.5-0.6s0.3-0.9,0.3-1.1c0-0.9-0.6-0.8-0.6-1.5c0-0.4,0.5-1.1,3.3-1.5C126.7,55.7,127.4,55.8,128.5,55.8"/>
	<path class="st0" d="M127.2,49.5c2.3,0,7.1,0.4,7.9,0.5c0.8,0.2,0.9,0.5,0.9,0.7c0,0.4-0.2,0.4-1.1,0.4c-1.6,0-5.8,0-10,1.3
		c-6.6,2-7.6,4-8.7,4c-0.3,0-0.9-0.4-0.9-0.8c0-0.4,0.7-1.4,0.7-2.2c0-0.5-0.6-1.1-0.6-1.5C115.4,50.8,121,49.5,127.2,49.5"/>
	<path class="st0" d="M185.8,47.5c3.4,0,4.8,3.3,4.8,7.3c0,0.6-0.3,1.6-0.9,1.6c-0.8,0,0.2-2.2-1.8-2.2c-0.5,0-1.4,0.5-2.3,1.3
		c-0.8,0.8-5.8,7.5-9.4,18.6c-1.8,5.6-2.6,9-2.6,12c0,2,0.6,3.5,0.6,4.1c0,1.2-1.3,0.4-1.5,0.1c-0.5-0.9-1.4-3.3-1.4-6.6
		c0-3.3,1.4-11.6,4-20C176.7,59.2,180.6,47.5,185.8,47.5"/>
	<path class="st0" d="M175.9,101.1c0.4,0,0.8,0.2,0.8,0.4c0,0.4-1.7,1.8-2.4,2.6c-1.1,1.2-1.5,3.2-2.4,3.2c-0.3,0-0.5-0.4-0.5-0.7
		c0-0.3,0.1-0.5,0.1-0.7c0-1-1.3-0.7-1.3-1.5c0-0.6,1.8-1.8,2.6-2.3C173.6,101.7,175.2,101.1,175.9,101.1"/>
	<path class="st0" d="M174.5,109c0.5,0,0.9,0.2,0.9,0.4c0,0.5-2,1.6-2.4,2s-2.4,3.1-2.8,4.6c-0.3,1.5-0.8,2-1.3,2
		c-0.9,0-0.4-1.5-1.1-2c-0.5-0.4-1.8-0.2-1.8-1.3c0-0.7,1.2-1.9,2.4-2.9C169.7,110.8,172.1,109,174.5,109"/>
	<path class="st0" d="M166.5,94.3c0.5,0,0.9,0.2,1.1,0.7c0.2,0.4,0.1,0.7,0.6,1.1c0.4,0.4,2,0.7,2,1.4c0,0.7-0.8,0.7-1.2,1
		s-1.5,0.8-2.4,2.2c-0.9,1.5-1.3,3.4-1.5,6s-1,5.2-2.4,7.4c-1.4,2.4-3.6,4.2-4.8,6.2c-1,1.7-0.7,3.5-1.7,3.5S155,121,155,120
		s0.3-4.3,2.8-6.7c2.8-2.7,5.2-2.8,5.2-7.2c0-2.7-0.3-3.6-0.3-5.2C162.8,99.3,163.4,94.3,166.5,94.3"/>
	<path class="st0" d="M94,58.4c0.7,0,0.7,0.8,1.1,1.3s0.7-0.1,1.3,0.6c0.6,0.7,0.3,1.1,0.8,1.5s1.2,0.4,1.2,0.7
		c0.1,1.5-0.6,3.9-0.6,7.6c0,2.6,0.4,5.5,1.3,8.1c0.4,1.1-0.4,1.3-0.8,0.5c-2.6-5-5-12.2-5-17.9C93.2,59.4,93.5,58.4,94,58.4"/>
	<path class="st0" d="M90.6,63.9c0.3,0,0.5,0.2,0.5,0.6s-1.2,4.2-2.9,6.5c-1.7,2.3-4.5,5.2-5.5,5.2c-0.4,0-0.4-0.5-0.5-0.7
		s-0.4-0.6,0.2-1.2c0.7-0.5,0.8-0.8,0.8-1.2c0-0.4-0.3-0.9-0.3-1.2s0.2-1,0.7-1.3c0.4-0.2,3.1-1.6,4.6-3.4
		C89.6,65.5,90,63.9,90.6,63.9"/>
	<path class="st0" d="M92.1,98.1c0.3-2.9,0.7-6.2,0.9-9.1c1.8,0.8,3.1,1.9,3.1,4.1C96.1,95.7,93.2,97.5,92.1,98.1 M93.2,84.2
		c0-0.5,0-0.9,0-1.4c0-6.2-1.3-10.2-2.2-10.2c-1.2,0-2.6,6.1-3.2,9.3c-2-0.6-3.4-0.7-4.5-0.7c-3.1,0-3.7,0.7-3.7,1.5s0.7,2,1.5,2.7
		c1.9,1.9,4.1,1.8,6.1,1.9c-0.3,3.9-0.7,8.8-0.7,10.6c0,0.6,0,1.5,0.1,2.6c-2.1,1.1-5.6,3-6.8,4.2c-1.7,1.7-1.9,2.7-1.9,3.8
		c0,4.2,3.7,4,3.7,6.9c0,1.1-0.7,2.3,0.2,2.3c1.1,0,2-2.1,2-3.4s-1.1-3.4-1.1-4.8c0-1.3,0.4-2.8,2.4-4.8c0.4-0.4,1-0.8,1.6-1.2
		c0.1,3.8,0.3,8.1,0.4,9.1c0.1,1.7,0.2,5.7,1,5.7c0.9,0,2.4-7.7,3.1-13c0.2-1.2,0.4-2.7,0.6-4.3c0.8-0.4,1.6-0.8,2.4-1.3
		c3.6-2.2,6-4.8,6-7.7C100.2,88.3,96.9,86,93.2,84.2z"/>
	<path class="st1" d="M155.3,33.5c3.5,1,5.1,2.4,5.1,4.5s-0.8,2.3-1.6,3.3c-0.5,0.8-1.1,1.9-1,5.1c0,0.7-0.2,1-0.7,1
		s-0.7-0.2-0.7-0.7c0-0.3,0.2-0.5,0.2-0.8s0.1-1.8-1-2.8c-3.1-2.8-18.5-4.7-28.2-4.7c-11.8,0-21.3,2.5-23.9,2.5
		c-4.8,0-7.1-2.4-7.1-4.2s1.1-2.1,1.1-3s-0.3-1-0.3-1.7s0.6-2.2,1.2-2.2c0.9,0,0.8,1,1.6,2.5c1.1,1.8,3.3,4.2,7.6,4.2
		c3.8,0,7-1.4,12.5-2.7c6.8-1.6,12.2-2.3,17.6-2.3C140.2,31.5,149.4,31.6,155.3,33.5"/>
	<path class="st1" d="M53.6,34.5c1.7,0-0.2,0.7,2.5,3.4c1.2,1.2,2,1.8,4.9,1.8c1.8,0,4.3-0.4,10.7-3.2c2.5-1.1,6.6-2.4,9.5-2.4
		c3.8,0,6.7,1.8,8.8,3.4c2.1,1.5,4.6,3.7,5.7,4.5c1.1,0.9,2.7,1.8,3.4,2.1c0.6,0.2,0.7,0.6,0.5,1.1s-0.9,1.6-1.1,1.8
		s-0.9,0.6-1.3,0.8s-2.1,0.9-4.1,2.4s-5.4,3.4-9.4,3.4c-4.1,0-10.4-1.6-13.8-1.6c-1.5,0-3.6,0.8-5.1,2.3c-0.6,0.6-1.1,1.7-1.5,2.1
		c-0.4,0.4-1.7,1.2-2.2,1.2s-1.3-0.3-1.3-0.8c0-0.9,2-1.3,2-2.9c0-1.6-0.5-1.6-0.5-2.4c0-0.7,0.6-2,1.5-3c2-2,7.1-3.2,11.8-3.2
		c3.4,0,9.9,1.5,14.3,1.5c1.9,0,3.4-0.3,4.2-0.7c1.2-0.5,0.9-1.2,0.4-1.2s-0.4,0.2-1.7,0.2c-1.1,0-3.9-0.7-6.2-2.2
		c-2.3-1.5-6-3.7-9.6-3.7s-6.1,1.3-7.2,1.7c-2.6,1-8.8,4.5-12.1,4.5s-7.1-1.6-7.1-4.4c0-2.8,2.8-2.6,2.8-4.3c0-0.3-0.1-0.5-0.1-0.8
		C52.1,35.6,52.4,34.5,53.6,34.5"/>
	<polyline class="st1" points="179.8,129.4 179.8,148 190.1,148 190.1,145.8 183,145.8 183,129.4 179.8,129.4 	"/>
	<path class="st1" d="M72.9,138.3h2.3h0.7c2.1,0,3.3-1.2,3.3-3.5c0-1.3-0.4-3.4-3-3.4H73v6.9 M76.7,129.4c1,0,1.9,0,2.6,0.3
		c2.1,0.8,3.5,2.4,3.5,5c0,2.3-1.4,4.1-3.4,4.9l5.5,8.4H81l-4.8-7.6h-3.3v7.6h-3.4v-18.6L76.7,129.4L76.7,129.4z"/>
	<path class="st1" d="M62.3,138.9c2.9-0.1,3.3-2.3,3.3-3.9c0-3.3-1.9-3.7-3.5-3.7h-2.9v7.5L62.3,138.9 M62,129.4c1,0,1.8,0,2.4,0.1
		c2.9,0.5,4.6,2.6,4.6,5.7c0,2.1-1,3.6-2.5,4.6c-1.1,0.8-2.6,1.1-4.5,1.1h-2.9v7.1h-3.4v-18.6L62,129.4L62,129.4z"/>
	<path class="st1" d="M96.1,148c1-0.5,2.1-1.3,2.7-2.1h4.2c1.6,0,2.8-0.5,3.8-1.2c1.8-1.3,2.9-3.6,2.9-6.6c0-2.6-1.5-5.2-2.9-5.9
		c-1.5-0.8-1.7-0.9-3.9-0.9h-3.3v9.8c0,2.1-0.4,3.6-1.7,4.8c-1.5,1.5-3.9,2.4-6.3,2.4c-5.2,0-8.3-2.4-8.3-6.8v-12.2h3.2v11.8
		c0,0.9,0.1,1.6,0.2,2.2c0.5,1.7,2.5,2.7,4.9,2.7c3.1,0,4.7-1.7,4.7-4.9v-11.8h7.8c1.6,0,3.1,0.2,4.2,0.7c3,1.3,5,4.1,5,8.3
		c0,4.7-2.8,9.6-10.4,9.6L96.1,148"/>
	<rect x="158.2" y="129.4" class="st1" width="3.3" height="18.6"/>
	<polyline class="st1" points="141.7,131.5 148.3,131.5 148.3,148 151.6,148 151.6,131.5 157.7,131.5 157.7,129.4 139.3,129.4 
		139.3,143.1 128.1,129.4 125.3,129.4 125.3,145.8 116.4,145.8 116.4,139.5 124.1,139.5 124.1,137.3 116.4,137.3 116.4,131.4 
		124.5,131.4 124.5,129.4 113.1,129.4 113.1,148 127.8,148 127.8,134.4 139.1,148 141.7,148 141.7,131.5 	"/>
	<path class="st1" d="M167.4,140.9h6.1l-3.1-7.4L167.4,140.9 M172.1,129.4L180,148h-3.6l-2-4.9h-7.8l-2.1,4.9h-3l8.1-18.6H172.1z"/>
</g>
</svg>
