<?xml version="1.0" encoding="utf-8"?>
<!-- Generator: Adobe Illustrator 22.0.0, SVG Export Plug-In . SVG Version: 6.00 Build 0)  -->
<svg version="1.1" id="Layer_1" xmlns="http://www.w3.org/2000/svg" xmlns:xlink="http://www.w3.org/1999/xlink" x="0px" y="0px"
	 viewBox="0 0 108 65.3" style="enable-background:new 0 0 108 65.3;" xml:space="preserve">
<style type="text/css">
	.st0{fill:#E31C23;}
	.st1{fill:#E21D26;}
	.st2{fill:#970731;}
	.st3{fill:#97052F;}
	.st4{fill:#FDEF03;}
</style>
<g>
	<path class="st0" d="M73,25.5c0.2,10.1-8.4,19.2-19.4,19C43.2,44.2,34.8,35.8,35,25C35.2,14.5,44,6,54.8,6.4
		C64.9,6.7,73.2,15.3,73,25.5z M61.7,9.8c-0.7,0.2-1.2,0.2-1.9,0.4c-2,0.4-3.9,1.1-5.7,2.3c-1.9,1.2-3.3,2.8-3.8,5
		c-0.7,2.2-0.4,4.3,0.2,6.5c0.2,0.9,0.7,1.8,1.1,2.7c-3.4-3-7.2-4.4-11.7-4c0.4,0.2,0.8,0.2,1.1,0.4c2.3,0.8,4.5,1.9,6.5,3.4
		c1,0.7,2,1.6,2.5,2.8c0.2,0.6,0.1,1.1-0.5,1.4c-0.5,0.2-1,0.3-1.6,0.4c-0.6,0.1-1.1,0-1.7,0c0,0.1,0.1,0.1,0.1,0.2
		c0.2,0.1,0.2,0.2,0.4,0.2c1.9,1,3.9,1.8,6,2.3c1.5,0.4,3,0.7,4.6,0.5c1.4-0.2,2.5-1.4,2.6-2.9c0.1-1.7-0.5-3.3-1.1-4.8
		c-0.8-2.3-1.9-4.6-2.4-7c-0.2-1.3-0.4-2.6-0.1-3.9c0.7-3,2.8-4.7,5.6-5.5c0.7-0.1,1.3-0.2,2-0.5C63.1,9.4,62.5,9.7,61.7,9.8
		C61.7,9.7,61.7,9.8,61.7,9.8z"/>
	<path class="st1" d="M19.8,55.5c0.3-1.1,0.7-2.2,1.1-3.4c0.7-1.9,1.4-3.8,2-5.7c0.2-0.5,0.2-1.1,0.1-1.6c0-0.3,0.1-0.4,0.4-0.4
		c0.7,0,1.5,0,2.2,0c0.2,0,0.4,0,0.2,0.3c-1.2,2.3-1.9,4.8-2.7,7.3c-0.6,1.8-1.3,3.5-1.9,5.3c-0.1,0.4-0.1,0.9-0.4,1.1
		c-0.3,0.2-0.8,0.1-1.2,0.1c-1.2,0-2.4,0-3.6,0c-0.2,0-0.4-0.1-0.5-0.3c-1.1-3.9-2.5-7.8-3.7-11.6c-0.2-0.6-0.4-1.2-0.7-1.8
		c-0.2-0.3-0.1-0.4,0.2-0.3c1.6,0,3.4,0,5,0c0.2,0,0.4,0,0.3,0.3c-0.2,1,0.2,1.9,0.4,2.8c0.7,2.4,1.5,4.7,2.2,7
		C19.5,54.8,19.5,55.2,19.8,55.5z"/>
	<path class="st2" d="M62,54.7c0.3,0.7,0.6,1.2,0.9,1.9c0.2,0.6,0.6,1.1,0.9,1.7c0.2,0.2,0.1,0.3-0.2,0.3c-1.1,0-2.3,0-3.4,0
		c-0.2,0-0.3-0.2-0.4-0.3c-0.4-1.1-0.8-2.1-1.2-3.1c-0.1-0.2-0.2-0.5-0.7-0.5c-0.7,0-0.7,0-0.7,0.7c0,0.6,0,1.2,0,1.8
		c0,0.4,0,0.8,0.2,1.2c0.2,0.2,0.1,0.3-0.2,0.3c-1.2,0-2.4,0-3.6,0c-0.2,0-0.3-0.1-0.2-0.3c0.2-0.3,0.2-0.7,0.2-1.2
		c0-2.1,0-4.3,0-6.4c0-0.5,0-0.9-0.2-1.3c-0.1-0.2-0.1-0.3,0.2-0.3c2.6,0.1,5.2-0.1,7.8,0.1c1.2,0.1,1.9,0.8,1.9,2
		c0,0.6,0,1.2,0,1.8C63.4,54.3,63.1,54.5,62,54.7z M58.4,53c0.3,0,0.6,0,0.9,0s0.5-0.2,0.5-0.5c0-0.4,0-0.7,0-1.1
		c0-0.4-0.2-0.6-0.6-0.6c-0.3,0-0.7,0-0.9,0c-1.1,0-1.1,0-1.1,1.1C57.3,53,57.3,53,58.4,53z"/>
	<path class="st3" d="M69.5,58.7c-0.9,0-1.8,0-2.7,0c-1.5,0-2.3-0.8-2.4-2.3c-0.1-1.6-0.1-3.2,0-4.7c0.1-1.6,0.7-2.4,2.4-2.5
		c1.8-0.1,3.6-0.1,5.4,0c1.1,0,1.7,0.6,2,1.7c0.1,0.4,0.2,0.8,0.2,1.2c0,1.5,0.1,2.9,0,4.4c0,1.4-1,2.2-2.4,2.2
		C71.1,58.7,70.3,58.7,69.5,58.7z M70.9,51.4c-0.2-0.2-0.2-0.5-0.6-0.5c-0.7-0.1-1.2-0.1-1.9,0c-0.3,0.1-0.6,0.2-0.6,0.6
		c0,1.6,0,3.3,0,4.9c0,0.4,0.2,0.7,0.7,0.7c0.2,0,0.5,0.1,0.7,0.1c0.6-0.1,1.3,0.2,1.6-0.7c0.2-0.1,0.1-0.2,0.1-0.3
		c0-1.5,0-2.9,0-4.4C71,51.6,71,51.5,70.9,51.4z"/>
	<path class="st2" d="M48.1,49.2c1,0,2,0,3,0c0.4,0,0.7,0.2,0.7,0.6c0,0.2,0.1,0.2,0.1,0.4c0,0.2,0.2,0.6,0,0.8
		c-0.2,0.2-0.5-0.1-0.7-0.1c-1.5,0-2.9,0-4.3,0c-0.4,0-0.6,0.3-0.6,0.7c0,1.6,0,3.2,0,4.8c0,0.5,0.2,0.7,0.7,0.7c0.4,0,0.7,0,1.1,0
		c0.4,0,0.6-0.2,0.7-0.6c0-0.6,0-1.1,0-1.6c0-0.2-0.1-0.3-0.3-0.2c-0.4,0-0.9-0.1-1.3,0.1c-0.2,0.1-0.3,0.1-0.3-0.2
		c0-0.4,0-0.8,0-1.1c0-0.2,0.1-0.2,0.3-0.2c1.7,0,3.4,0,5.1,0c0.2,0,0.3,0.1,0.2,0.2c-0.2,0.6-0.2,1.1-0.2,1.7c0,0.7,0,1.6,0,2.3
		c0,0.4,0,0.8,0.2,1.1c0.1,0.2,0.2,0.2-0.1,0.2c-0.7,0-1.5,0.1-2.2,0c-0.2-0.1-0.6,0-0.7-0.5c0-0.2-0.2-0.1-0.2,0
		c-0.2,0.4-0.7,0.4-1.1,0.5c-1.3,0-2.5,0.1-3.8-0.1c-0.9-0.1-1.4-0.6-1.6-1.5c0-0.2-0.1-0.5-0.1-0.7c0-1.6,0-3.3,0-4.9
		c0-1.6,0.7-2.3,2.3-2.3c0.5,0,1.1,0,1.6,0C47.1,49.2,47.6,49.2,48.1,49.2L48.1,49.2z"/>
	<path class="st1" d="M39.6,56.2c0.2-0.2,0.1-0.3,0.1-0.4c0-1.6,0-3.3,0-4.9c0-0.5,0-1-0.2-1.4c-0.2-0.2-0.1-0.3,0.2-0.3
		c0.6,0,1.1,0,1.6,0c0.2,0,0.3,0.1,0.2,0.3c-0.3,0.5-0.3,1.1-0.3,1.6c0,2.4,0,4.7,0,7.1c0,0.3-0.1,0.5-0.5,0.5c-1.1,0-2.1,0-3.2,0
		c-0.5,0-0.7-0.2-1-0.6c-0.7-1.5-1.4-3-2.1-4.5c-0.3-0.7-0.7-1.6-1.2-2.3c0.1,2-0.2,3.9,0,5.8c0.1,0.4,0.1,0.8,0.2,1.2
		c0.1,0.2,0,0.3-0.2,0.3c-0.5,0-1,0-1.6,0c-0.3,0-0.3-0.2-0.2-0.4c0.2-0.5,0.2-1.1,0.2-1.6c0-1.9,0-3.8,0-5.7c0-0.6,0-1.1-0.3-1.5
		c-0.2-0.2-0.1-0.3,0.2-0.3c1.5,0,2.9,0,4.3,0.1c0.2,0,0.4,0.1,0.5,0.3c1,2,2,4.1,2.9,6.2C39.4,55.9,39.5,56.1,39.6,56.2z M41,50.3
		L41,50.3c-0.1,2.5-0.1,5.2-0.1,7.8c0,0,0,0,0.1,0C41,55.6,41,52.9,41,50.3z"/>
	<path class="st3" d="M96.9,54c-0.2,0.8-0.9,1.2-1.9,1.2c-1.2,0-2.4,0-3.6,0c-0.4,0-0.5,0.1-0.5,0.5c0.1,0.7,0,1.3,0.1,2
		c0,0.2,0,0.2,0.1,0.4c0.2,0.6,0.2,0.6-0.5,0.6c-1.1,0-2,0-3.1,0c-0.3,0-0.5,0-0.2-0.4c0.2-0.2,0.2-0.5,0.2-0.8c0-2.3,0-4.6,0-6.9
		c0-0.3-0.1-0.7-0.2-1.1c-0.1-0.2-0.2-0.3,0.2-0.3c2.6,0.1,5.3-0.1,7.9,0.1c0.7,0.1,1.5,0.4,1.6,1.2c-0.2,0.8-0.1,1.6-0.1,2.5
		C96.8,53.4,96.7,53.7,96.9,54z M92,53.8c0.2,0,0.3,0,0.6,0c0.7,0,0.8-0.2,0.9-0.8c0.1-0.5,0-1.1,0-1.6c0-0.3-0.2-0.6-0.6-0.6
		c-0.6,0-1.1,0-1.6,0c-0.2,0-0.4,0.1-0.3,0.4c0,0.5,0,1,0,1.4C90.9,53.8,90.9,53.8,92,53.8z"/>
	<path class="st2" d="M83.8,53.4c0-0.8,0-1.6,0-2.5c0-0.5,0-1-0.2-1.4c-0.1-0.2-0.1-0.3,0.2-0.3c0.6,0,1.1,0,1.8,0
		c0.2,0,0.3,0.1,0.2,0.3c-0.3,0.5-0.2,1.1-0.2,1.6c0,1.6,0,3.4,0,5c0,1.2-0.7,2.3-1.7,2.5c-0.2,0.1-0.3,0.1-0.5,0.1
		c-1.7,0-3.4,0-5.1,0c-1.3,0-1.9-0.5-2.2-1.8c-0.2-1.1-0.2-2.3-0.2-3.4c0-1.2,0.2-2.5-0.2-3.7c-0.2-0.7-0.2-0.7,0.5-0.7c1,0,2,0,3,0
		c0.4,0,0.6,0,0.3,0.4c-0.2,0.4-0.2,0.8-0.2,1.3c0,1.7,0,3.5,0,5.2c0,0.7,0.1,0.9,0.9,0.9c1,0,1.9,0,2.9,0c0.6,0,0.7-0.2,0.7-0.7
		C83.8,55.3,83.8,54.3,83.8,53.4z"/>
	<path class="st1" d="M28.1,49.2c0.6,0,1.1,0,1.7,0c0.3,0,0.5,0.1,0.3,0.4c-0.2,0.4-0.2,0.9-0.2,1.3c0,2,0,4.2,0,6.2
		c0,0.4,0,0.8,0.2,1.2c0.2,0.2,0.1,0.4-0.2,0.3c-1.1,0-2.2,0-3.4,0c-0.4,0-0.5-0.2-0.3-0.5c0.2-0.3,0.2-0.6,0.2-0.9
		c0-2.2,0-4.3,0-6.5c0-0.5-0.1-0.9-0.2-1.3c-0.2-0.2-0.1-0.3,0.2-0.3C26.9,49.2,27.4,49.2,28.1,49.2L28.1,49.2z"/>
	<path class="st2" d="M96.9,54c-0.2-0.3-0.1-0.7-0.1-1.1c0-0.8-0.1-1.6,0.1-2.5c0.2,0.6,0.1,1.1,0.1,1.6C97,52.8,97.1,53.4,96.9,54z
		"/>
	<path class="st4" d="M62,10.1c-2.9,0.8-4.9,2.5-5.6,5.5c-0.3,1.3-0.2,2.6,0.1,3.9c0.5,2.5,1.6,4.7,2.4,7c0.6,1.6,1.1,3.1,1.1,4.8
		c-0.1,1.4-1.2,2.6-2.6,2.9c-1.6,0.2-3.1-0.1-4.6-0.5c-2-0.6-4.1-1.3-6-2.3c-0.2-0.1-0.2-0.2-0.4-0.2c0,0,0-0.1-0.1-0.2
		c0.6,0,1.1,0.1,1.7,0s1.1-0.1,1.6-0.4c0.6-0.3,0.7-0.7,0.5-1.4c-0.5-1.2-1.5-2-2.5-2.8c-2-1.6-4.1-2.6-6.5-3.4
		c-0.4-0.2-0.8-0.2-1.1-0.4c4.5-0.4,8.3,1,11.7,4c-0.4-0.9-0.7-1.8-1.1-2.7c-0.7-2.1-0.9-4.3-0.2-6.5c0.6-2.1,2-3.8,3.8-5
		c1.8-1.1,3.7-1.8,5.7-2.3c0.7-0.2,1.2-0.2,1.9-0.4C61.8,9.9,62.1,9.7,62,10.1z"/>
	<path class="st1" d="M62,10.1c0.2-0.3-0.2-0.2-0.2-0.2c0,0,0-0.1,0.1-0.1c0.7-0.1,1.4-0.3,2.1-0.2C63.3,9.9,62.6,10,62,10.1z"/>
	<path class="st2" d="M70.9,56.5c0-1.7,0-3.4,0-5.1c0.2,0.1,0.2,0.2,0.2,0.3c0,1.5,0,2.9,0,4.4C71,56.3,71,56.4,70.9,56.5z"/>
	<path class="st0" d="M41,50.3c0,2.6,0,5.2,0,7.8c0,0,0,0-0.1,0C40.9,55.5,40.9,52.9,41,50.3L41,50.3z"/>
	<polygon class="st4" points="54,37.2 54.6,38.5 56,38.7 55,39.7 55.3,41.1 54,40.4 52.8,41.1 53,39.7 52,38.7 53.4,38.5 	"/>
	<polygon class="st4" points="47.9,36.3 48.1,37.6 49.4,38.3 48.1,38.9 48,40.3 47,39.3 45.6,39.6 46.3,38.3 45.5,37.1 46.9,37.3 	
		"/>
	<polygon class="st4" points="43.2,33.8 42.9,35.2 43.8,36.2 42.5,36.3 41.8,37.6 41.2,36.3 39.9,36 40.9,35.1 40.7,33.7 41.9,34.5 
			"/>
	<polygon class="st4" points="60.2,36.4 61.1,37.4 62.5,37.2 61.8,38.5 62.5,39.7 61.1,39.4 60.1,40.4 59.9,39 58.6,38.4 59.9,37.8 
			"/>
	<polygon class="st4" points="64.9,34 66.2,34.5 67.4,33.7 67.3,35.1 68.3,36 67,36.3 66.5,37.6 65.7,36.4 64.3,36.3 65.2,35.3 	"/>
</g>
</svg>
