<?xml version="1.0" encoding="utf-8"?>
<!-- Generator: Adobe Illustrator 22.0.0, SVG Export Plug-In . SVG Version: 6.00 Build 0)  -->
<svg version="1.1" id="Layer_1" xmlns="http://www.w3.org/2000/svg" xmlns:xlink="http://www.w3.org/1999/xlink" x="0px" y="0px"
	 viewBox="0 0 240 160" style="enable-background:new 0 0 240 160;" xml:space="preserve">
<style type="text/css">
	.st0{clip-path:url(#SVGID_2_);fill:url(#SVGID_3_);}
	.st1{fill:#00AEEF;}
	.st2{fill:#002F54;}
</style>
<g>
	<g>
		<g>
			<g>
				<defs>
					<path id="SVGID_1_" d="M38.4,93.7c2.8,0,5.5-0.4,7.9-1.2c0.6-0.2,1.2-0.4,1.7-0.7c-0.7,1.6-1.6,3-2.9,4
						c-2.5,1.8-5.4,3.1-8.6,3.6C37.3,97.9,37.9,96,38.4,93.7 M25.1,97.6c-0.1,0-0.1-0.1-0.2-0.1c-1.1-0.5-1.6-3-1-6.8
						c2.1,1,4.5,1.7,6.9,2.2c1.9,0.4,3.7,0.6,5.5,0.7c-0.9,3.8-2,5.9-2.8,5.9c0,0-0.1,0-0.1,0C30.4,99.5,27.6,98.8,25.1,97.6
						 M14.8,85.3c-0.2-0.7-0.3-1.3-0.3-2c0.7,1,1.5,1.9,2.5,2.8c1.5,1.4,3.2,2.6,5.1,3.6c-0.4,2.2-0.5,4.2-0.3,5.8
						C18.4,93.1,15.9,89.5,14.8,85.3 M39.7,80c0-0.8,0-1.6,0-2.4c2.5-0.2,4.8-0.8,6.7-1.9c1.7,3.5,2.7,7.1,2.7,10.6
						c0,1-0.1,1.9-0.2,2.8c-0.9,0.6-1.9,1-3.1,1.4c-2.1,0.7-4.4,1.1-6.9,1.1C39.4,88.1,39.7,84,39.7,80 M31.2,91
						c-2.5-0.5-4.8-1.3-6.9-2.3c0.7-3.1,2-6.9,4.1-11.2c0.3-0.6,0.6-1.2,0.9-1.8c1.4,0.6,3,1.2,4.6,1.5c1.2,0.3,2.5,0.4,3.7,0.5
						c0,0.8,0,1.5,0,2.3c0,4.7-0.4,8.6-0.9,11.7C34.9,91.6,33.1,91.3,31.2,91 M18.2,84.7c-1.7-1.6-2.9-3.2-3.5-4.9
						c0.5-1.9,1.4-3.7,2.7-5.5c1.3-1.7,2.9-3.2,4.7-4.5c0.5,0.9,1.3,1.9,2.2,2.8c0.9,0.8,1.9,1.6,3.1,2.3c-0.3,0.6-0.6,1.2-0.9,1.8
						c-1.8,3.6-3.2,7.6-4.1,11.1C20.9,86.8,19.5,85.8,18.2,84.7 M38.3,66c2.3,1.7,4.4,3.9,6.1,6.4c0.3,0.5,0.6,1,0.9,1.5
						c-1.6,0.9-3.6,1.5-5.8,1.6C39.4,72.1,38.9,68.8,38.3,66 M34.3,75.2c-1.4-0.3-2.8-0.8-4.1-1.3c1.9-3.3,3.9-6.1,5.9-8.2
						c0.6,2.5,1.2,5.8,1.4,9.9C36.5,75.6,35.4,75.5,34.3,75.2 M25.8,71.1c-0.8-0.8-1.5-1.6-1.9-2.4c1.9-1.1,4-2,6.2-2.7
						c1.3-0.4,2.6-0.7,4-0.9c-1.9,2.1-3.8,4.9-5.6,8C27.4,72.4,26.5,71.8,25.8,71.1 M21.5,64.7c0,0.1-0.1,0.2-0.1,0.3
						c-0.2,0.9-0.2,1.9,0.1,2.9c-2.2,1.5-4,3.2-5.5,5.2c-0.5,0.6-0.9,1.2-1.2,1.8C15.8,70.8,18.2,67.2,21.5,64.7 M23.3,65.4
						c0.2-1,0.8-2,1.8-2.7c2.3-0.7,5.1-0.5,7.9,0.5c-1.2,0.2-2.4,0.5-3.6,0.8c-2.2,0.7-4.3,1.6-6.2,2.7
						C23.2,66.3,23.2,65.8,23.3,65.4 M39.6,62.8c0.7-0.4,1.3-0.7,1.9-0.9c1,0.4,2,0.9,2.9,1.6C42.9,63.1,41.3,62.8,39.6,62.8
						 M36.2,60.6c0.8,0.1,1.7,0.2,2.6,0.4c-0.6,0.3-1.1,0.7-1.7,1.1C36.8,61.6,36.5,61.1,36.2,60.6 M34,61.4
						c-0.9-0.3-1.8-0.6-2.7-0.8c0.7-0.1,1.4-0.1,2.2-0.1c0.3,0,0.8,0.4,1.2,1.2C34.5,61.6,34.3,61.5,34,61.4 M12,80
						c0,2,0.3,4,0.8,5.9c0,0.1,0.1,0.3,0.1,0.4c0,0,0,0,0,0.1c2.7,8.8,10.9,15.2,20.6,15.2c4.5,0,8.6-1.4,12.1-3.7
						c0,0,0.1,0,0.1-0.1c0.2-0.1,0.4-0.3,0.6-0.4c4-2.9,6.9-7.2,8.1-12.1c0.1-0.2,0.1-0.5,0.2-0.7c0-0.1,0-0.1,0-0.2
						c0.3-1.4,0.4-2.9,0.4-4.4c0-2.9-0.6-5.7-1.7-8.4c-0.2-0.5-0.8-0.7-1.3-0.5c-0.5,0.2-0.7,0.8-0.5,1.3c1,2.4,1.5,5,1.5,7.6
						c0,1.6-0.2,3.2-0.6,4.7c-0.3,0.9-0.8,1.8-1.5,2.6c0-0.3,0-0.7,0-1c0-3.8-1.1-7.9-3-11.7c1.4-1.2,2.4-2.8,2.7-4.5
						c0.1-0.5-0.3-1.1-0.8-1.2c-0.5-0.1-1.1,0.3-1.2,0.8c-0.2,1.1-0.8,2.2-1.7,3.1c-0.3-0.5-0.6-0.9-0.9-1.4
						c-1.8-2.6-3.8-4.8-6.1-6.6c3,0.2,5.8,0.9,8.1,2.2c0.4,0.2,0.8,0.2,1.1-0.1c0.4-0.4,0.5-1,0.1-1.4c-3.2-4.5-8.8-7-15.7-7
						C21.7,58.5,12,68.1,12,80"/>
				</defs>
				<clipPath id="SVGID_2_">
					<use xlink:href="#SVGID_1_"  style="overflow:visible;"/>
				</clipPath>
				
					<radialGradient id="SVGID_3_" cx="-25.1171" cy="399.8687" r="0.5873" gradientTransform="matrix(60.7425 0 0 -60.7427 1578.8416 24355.5879)" gradientUnits="userSpaceOnUse">
					<stop  offset="0" style="stop-color:#FFFFFF"/>
					<stop  offset="5.980000e-02" style="stop-color:#E7F6FD"/>
					<stop  offset="0.1829" style="stop-color:#AFE2FA"/>
					<stop  offset="0.3589" style="stop-color:#37C6F4"/>
					<stop  offset="0.544" style="stop-color:#00AEEF"/>
					<stop  offset="1" style="stop-color:#002F54"/>
				</radialGradient>
				<rect x="12" y="58.5" class="st0" width="43.1" height="43.1"/>
			</g>
		</g>
	</g>
	<g>
		<path class="st1" d="M63.6,93.1v-7.3h1.4v7.3H63.6z"/>
		<path class="st1" d="M66.4,93.1v-7.3h2.8c1.5,0,2.4,0.6,2.4,1.9c0,1.3-0.8,1.5-1.1,1.5v0c0.5,0,1.6,0.4,1.6,1.8
			c0,1.5-1.2,2.1-2.6,2.1C69.4,93.1,66.4,93.1,66.4,93.1z M69,88.9c0.8,0,1-0.4,1-1c0-0.6-0.4-0.9-1.2-0.9h-1v1.9L69,88.9z M69.1,92
			c0.7,0,1.3-0.2,1.3-1c0-0.8-0.6-1-1.3-1h-1.3V92H69.1z"/>
		<path class="st1" d="M79,93.1c0,0-0.3,0.1-0.8,0.1c-2.2,0-1.6-2.8-3.2-2.8h-0.8v2.7h-1.4v-7.3h2.6c1.8,0,2.8,0.7,2.8,2.3
			c0,1.1-0.7,1.6-1.3,1.9c0.8,0.6,0.8,2,1.8,2H79L79,93.1L79,93.1z M75.2,89.3c0.9,0,1.5-0.4,1.5-1.1c0-0.7-0.5-1.2-1.4-1.2h-1.1
			v2.3H75.2z"/>
		<path class="st1" d="M79.6,93.1v-7.3h2.1c1.9,0,3.6,1,3.6,3.8c0,2.6-1.5,3.5-3.3,3.5L79.6,93.1L79.6,93.1z M82,92
			c1.1,0,1.9-0.8,1.9-2.4c0-1.6-0.7-2.6-2.2-2.6H81v5H82z"/>
		<path class="st1" d="M89.7,91.5c-0.8,0-1.3-0.6-1.3-1.4c0-0.8,0.6-1.4,1.3-1.4c0.8,0,1.4,0.6,1.4,1.4C91,90.9,90.4,91.5,89.7,91.5
			z"/>
		<path class="st1" d="M94.3,93.1v-7.3h1.4v7.3H94.3z"/>
		<path class="st1" d="M97,93.1v-7.3h2.1c1.9,0,3.6,1,3.6,3.8c0,2.6-1.5,3.5-3.3,3.5L97,93.1L97,93.1z M99.5,92
			c1.1,0,1.9-0.8,1.9-2.4c0-1.6-0.7-2.6-2.2-2.6h-0.7v5H99.5z"/>
		<path class="st1" d="M107.6,91.3H105l-0.6,1.8h-1.5l2.7-7.3h1.5l2.7,7.3h-1.5L107.6,91.3z M105.4,90.2h1.8l-0.9-2.7L105.4,90.2z"
			/>
	</g>
	<g>
		<path class="st2" d="M59.8,68.1h10.9v2.2h-4v11.2h-2.9V70.3h-4L59.8,68.1L59.8,68.1z"/>
		<path class="st2" d="M72.2,81.5V68.1h2.9v5.3h5.1v-5.3h2.9v13.4h-2.9v-5.9h-5.1v5.9H72.2z"/>
		<path class="st2" d="M85.4,68.1h9v2.2h-6.1v3.1H94v2.2h-5.7v3.6h6.3v2.2h-9.2L85.4,68.1L85.4,68.1z"/>
		<path class="st2" d="M108.7,68.1h3.3l2.3,10.1h0l2.2-10.1h2.8l-3.4,13.4h-3.2l-2.4-10.2h0l-2.6,10.2h-3.3l-3.3-13.4h3l2.1,10.1h0
			L108.7,68.1z"/>
		<path class="st2" d="M120.3,74.8c0-4,2-7,6.4-7c4.4,0,6.4,3,6.4,7s-2,7-6.4,7C122.3,81.8,120.3,78.7,120.3,74.8z M123.3,74.8
			c0,2.3,0.5,4.9,3.4,4.9c2.8,0,3.4-2.6,3.4-4.9c0-2.3-0.5-4.9-3.4-4.9C123.9,69.9,123.3,72.5,123.3,74.8z"/>
		<path class="st2" d="M137.9,81.5h-2.9V68.1h5.7c2.3,0,4.7,0.8,4.7,3.5c0,1.7-1.1,2.9-2.8,3.3v0c2.2,0.2,2.2,1.6,2.5,3.5
			c0.1,0.9,0.2,2.4,0.8,3.2h-3.2c-0.2-1.2-0.4-2.4-0.5-3.6c-0.1-0.7-0.3-1.8-1.2-1.8h-3L137.9,81.5L137.9,81.5z M137.9,73.8h2.4
			c1.3,0,2-0.7,2-1.8c0-1.2-0.7-1.7-2-1.7h-2.4V73.8z"/>
		<path class="st2" d="M147.6,81.5V68.1h2.9v11.2h5.8v2.2H147.6z"/>
		<path class="st2" d="M157.9,68.1h4.6c4.2,0,6.8,2,6.8,6.7c0,4.7-2.6,6.7-6.8,6.7h-4.6V68.1L157.9,68.1z M160.8,79.3h1.5
			c3.4,0,3.9-2.3,3.9-4.5c0-2.1-0.5-4.5-3.9-4.5h-1.5V79.3z"/>
		<path class="st2" d="M176.6,81.5V68.1h5c2.4-0.1,4.9,0.9,4.9,3.5c0,1.5-1,2.5-2.4,2.9v0c1.7,0.4,3,1.5,3,3.5
			c0,2.7-3.3,3.6-5.4,3.5H176.6z M181.7,79.3c1.4,0,2.3-0.2,2.3-1.8s-0.9-1.8-2.3-1.8h-2.3v3.6L181.7,79.3L181.7,79.3z M181.7,73.5
			c1.2,0,1.9-0.5,1.9-1.6c0-1.1-0.7-1.6-1.9-1.6h-2.3v3.2L181.7,73.5L181.7,73.5z"/>
		<path class="st2" d="M187.9,81.5l4.9-13.4h3.4l4.7,13.4H198l-1-2.8h-5.3l-1,2.8H187.9z M196.3,76.4l-1.8-5.7h0l-2,5.7H196.3z"/>
		<path class="st2" d="M210.4,81.5l-5.3-11.2l0,0v11.1h-2.7V68.1h4.3l5.1,10.6l0,0V68.1h2.7v13.4H210.4z"/>
		<path class="st2" d="M219.7,73.9L219.7,73.9l4.5-5.8h3.4l-4.9,6l5.4,7.4h-3.6l-4.7-6.8h0v6.8h-2.9V68.1h2.9L219.7,73.9L219.7,73.9
			z"/>
	</g>
</g>
</svg>
