<?xml version="1.0" encoding="utf-8"?>
<!-- Generator: Adobe Illustrator 22.0.0, SVG Export Plug-In . SVG Version: 6.00 Build 0)  -->
<svg version="1.1" id="Layer_1" xmlns="http://www.w3.org/2000/svg" xmlns:xlink="http://www.w3.org/1999/xlink" x="0px" y="0px"
	 viewBox="0 0 240 160" style="enable-background:new 0 0 240 160;" xml:space="preserve">
<style type="text/css">
	.st0{fill:#EC2227;}
</style>
<g>
	<path class="st0" d="M59,80H44.7c-0.1,3.1,1.1,5.4,4.7,5.4c2.6,0,5.1-0.8,6.5-1.4l0.7,4.4c-2,1-5.1,1.8-8.7,1.8
		c-6.1,0-9.7-3.5-9.7-9.3c0-3.5,1.2-7.6,3.3-10.4c2.3-3.3,5.9-5.3,10.3-5.3c5.3,0,8.3,3.1,8.3,8.5C60.1,74.9,59.7,77.9,59,80
		 M50.9,69.1c-2,0-3.7,1.4-4.9,3.8c-0.5,1-0.6,1.3-0.9,2.6h8.4c0.2-0.7,0.4-1.9,0.4-2.6C53.9,70.4,52.8,69.1,50.9,69.1"/>
	<polygon class="st0" points="14.6,96.8 8.3,96.8 5.3,65.7 12.2,65.7 13.5,86.8 23.2,65.7 30.3,65.7 	"/>
	<path class="st0" d="M74.3,70.2h-3.7L68,82.8c-0.1,0.4-0.5,2.6,1.7,2.7c0.6,0,1.6-0.1,2-0.3c0,0-1.1,4.9-6,4.9
		c-3.8,0-5.5-2.9-4.6-7.1l4.4-21c0,0,2.5-2.8,7.3-2c-0.8,4-1.2,5.7-1.2,5.7h3.7L74.3,70.2z"/>
	<path class="st0" d="M120.7,70.2H117l-2.6,12.6c-0.1,0.4-0.5,2.6,1.7,2.7c0.6,0,1.5-0.1,2-0.3c0,0-1.1,4.9-6,4.9
		c-3.8,0-5.5-2.9-4.6-7.1l4.4-21c0,0,2.5-2.8,7.4-2c-0.8,4-1.2,5.7-1.2,5.7h3.8L120.7,70.2z"/>
	<path class="st0" d="M105.5,80H91.2c-0.1,3.1,1.1,5.4,4.7,5.4c2.6,0,5.1-0.8,6.5-1.4l0.7,4.4c-2,1-5.1,1.8-8.7,1.8
		c-6.1,0-9.7-3.5-9.7-9.3c0-3.5,1.2-7.6,3.3-10.4c2.3-3.3,5.9-5.3,10.3-5.3c5.3,0,8.3,3.1,8.3,8.5C106.5,74.9,106.1,77.9,105.5,80
		 M97.3,69.1c-2,0-3.7,1.4-4.9,3.8c-0.5,1-0.6,1.3-0.9,2.6h8.4c0.2-0.7,0.4-1.9,0.4-2.6C100.3,70.4,99.3,69.1,97.3,69.1"/>
	<path class="st0" d="M171,70.3c-1.7-0.6-3.5-0.7-4.6-0.2l-4.1,19.8h-6.9l4.8-22.8c2.9-1.6,8.3-2.5,12.5-1.8L171,70.3z"/>
	<path class="st0" d="M137.4,96.8l0.1-6.9H128l-3.8,6.9h-6.8l18.7-31.1h7.1l1.2,31.1H137.4z M137.6,72.6l-7.2,12.8h7L137.6,72.6z"/>
	<path class="st0" d="M67.7,100.2c-6.2,0-9.6-4-9.1-8.2c3.1,3.5,8.7,3.5,12.1,0.6c1.3-1.1,2.3-2.8,3.1-7c1.5-7.1,4.2-19.9,4.2-19.9
		h7l-4.8,22.8C78.7,95.6,73.9,100.2,67.7,100.2"/>
	<polygon class="st0" points="33.4,89.9 26.5,89.9 31.6,65.7 38.5,65.7 	"/>
	<polygon class="st0" points="152.2,89.9 145.2,89.9 150.3,65.7 157.2,65.7 	"/>
	<path class="st0" d="M168,90.1c-1.1,0-1.9-0.8-1.9-1.9c0-1.4,1.4-2.8,2.9-2.8c1.1,0,2,0.8,2,1.9C170.9,88.7,169.5,90.1,168,90.1"/>
	<path class="st0" d="M185.2,75.5c-0.3-0.3-1-0.6-1.9-0.6c-1.4,0-2.6,0.8-3.5,2.4c-0.9,1.5-1.4,3.8-1.4,5.6c0,2.2,0.9,3.4,2.3,3.4
		c0.9,0,1.9-0.3,2.4-0.7l0.4,3.2c-0.9,0.7-2.4,1.3-4.5,1.3c-3.5,0-6-2.7-6-6.9c0-2.6,1-5.8,2.5-7.9c1.8-2.5,4.3-3.8,6.9-3.8
		c2,0,3.8,0.7,4.3,1.3L185.2,75.5z"/>
	<path class="st0" d="M198.9,86.1c-1.7,2.5-4.2,4-7.6,4c-4.3,0-6.5-2.7-6.5-6.6c0-2.6,1-5.9,2.4-8c1.7-2.5,4.3-4,7.6-4
		c4.3,0,6.5,2.7,6.5,6.6C201.3,80.7,200.3,83.9,198.9,86.1 M194.4,74.7c-1.4,0-2.4,1.1-3.1,2.7c-0.8,1.7-1.4,4.8-1.4,6.6
		c0,1.5,0.5,2.6,1.9,2.6s2.4-1,3.1-2.6c0.7-1.7,1.5-4.8,1.5-6.6C196.3,75.8,195.8,74.7,194.4,74.7"/>
	<path class="st0" d="M228.9,77.3l-2.6,12.6H221l2.7-12.8c0-0.2,0.1-0.4,0.1-0.7c0-1-0.6-1.8-2.2-1.8c-0.9,0-1.9,0.4-2.5,0.9
		l-3,14.3h-5.3l2.7-12.8c0-0.2,0.1-0.4,0.1-0.6c0-1.1-0.8-1.8-2.4-1.8c-0.9,0-1.6,0.1-2.2,0.4l-3.1,14.9h-5.2l3.6-17.1
		c2.1-0.9,4.6-1.3,7.6-1.3c2.4,0,4.3,0.8,5.2,1.8c1.2-0.9,3.5-1.8,6.5-1.8c3.7,0,5.5,1.9,5.5,4.6C229,76.4,229,76.9,228.9,77.3"/>
	<path class="st0" d="M233.4,89.2c0,0-0.1-0.1-0.1-0.2s0-0.1,0-0.2s0-0.1,0-0.2s0-0.1,0-0.2s0-0.1,0-0.2s0-0.1-0.1-0.2l-0.1-0.1
		c0,0-0.1-0.1-0.2-0.1l0,0c0.2,0,0.3-0.1,0.4-0.3c0.1-0.1,0.1-0.3,0.1-0.5s-0.1-0.4-0.2-0.6c-0.2-0.1-0.4-0.2-0.7-0.2H231v2.9h0.4
		v-1.2h0.9c0.1,0,0.2,0,0.2,0c0.1,0,0.1,0.1,0.1,0.1s0.1,0.1,0.1,0.2s0,0.1,0,0.2s0,0.1,0,0.2v0.2c0,0.1,0,0.1,0,0.2s0,0.1,0.1,0.1
		L233.4,89.2L233.4,89.2z M231.5,86.6h1c0.2,0,0.3,0.1,0.4,0.1c0.1,0.1,0.1,0.2,0.1,0.4c0,0.1,0,0.2-0.1,0.2c0,0.1-0.1,0.1-0.1,0.2
		c-0.1,0-0.1,0.1-0.2,0.1c-0.1,0-0.2,0-0.3,0h-0.8L231.5,86.6L231.5,86.6z"/>
	<path class="st0" d="M232.2,90.2c-1.4,0-2.5-1.1-2.5-2.5s1.1-2.5,2.5-2.5s2.5,1.1,2.5,2.5S233.6,90.2,232.2,90.2 M232.2,85.6
		c-1.2,0-2.1,1-2.1,2.1c0,1.2,0.9,2.1,2.1,2.1c1.2,0,2.1-1,2.1-2.1C234.3,86.5,233.4,85.6,232.2,85.6"/>
</g>
</svg>
