<?xml version="1.0" encoding="utf-8"?>
<!-- Generator: Adobe Illustrator 16.0.0, SVG Export Plug-In . SVG Version: 6.00 Build 0)  -->
<!DOCTYPE svg PUBLIC "-//W3C//DTD SVG 1.1//EN" "http://www.w3.org/Graphics/SVG/1.1/DTD/svg11.dtd">
<svg version="1.1" id="Layer_1" xmlns="http://www.w3.org/2000/svg" xmlns:xlink="http://www.w3.org/1999/xlink" x="0px" y="0px"
	 width="48px" height="48px" viewBox="0 0 48 48" enable-background="new 0 0 48 48" xml:space="preserve">
<g>
	<path fill-rule="evenodd" clip-rule="evenodd" fill="#333333" d="M9.729,39.311c0.815,0,1.558,0,2.343,0c0,1.441,0,2.858,0,4.309
		c9.519,0,18.998,0,28.508,0c0-10.365,0-20.735,0-31.142c-2.674,0-5.337,0-8.053,0c0-2.708,0-5.38,0-8.089
		c-6.83,0-13.608,0-20.434,0c0,7.107,0,14.21,0,21.346c-0.799,0-1.552,0-2.364,0c0-0.152,0-0.308,0-0.463c0-7.272,0-14.544,0-21.817
		c0-1.017,0.428-1.447,1.438-1.447c6.964,0,13.93,0.001,20.894-0.007c0.322,0,0.54,0.097,0.765,0.321
		c3.269,3.283,6.545,6.559,9.828,9.828c0.227,0.226,0.318,0.45,0.318,0.768c-0.011,10.528-0.008,21.056-0.008,31.584
		c0,1.079-0.413,1.498-1.479,1.498c-10.102,0-20.205,0-30.307,0c-1.018,0-1.447-0.427-1.448-1.437c0-1.599,0-3.197,0-4.795
		C9.729,39.625,9.729,39.482,9.729,39.311z"/>
	<path fill-rule="evenodd" clip-rule="evenodd" fill="#0A7239" d="M33.606,26.663c-0.197,0.542-0.381,1.048-0.565,1.554
		c-1.202,3.284-2.406,6.566-3.599,9.854c-0.096,0.261-0.214,0.357-0.497,0.357c-7.872-0.008-15.745-0.007-23.617-0.007
		c-0.088,0-0.174-0.012-0.3-0.02c0-3.909,0-7.812,0-11.739C14.543,26.663,24.047,26.663,33.606,26.663z M18.194,33.598
		c-0.026,0.537,0.193,0.931,0.615,1.195c0.735,0.461,1.52,0.508,2.312,0.17c0.569-0.244,0.805-0.681,0.769-1.301
		c-0.039-0.682-0.483-1.042-1.045-1.287c-0.401-0.174-0.827-0.288-1.233-0.454c-0.325-0.134-0.538-0.374-0.455-0.756
		c0.08-0.362,0.348-0.524,0.699-0.564c0.634-0.073,0.871,0.087,1.262,0.837c0.251,0,0.492,0,0.74,0
		c0.028-0.499-0.182-0.853-0.523-1.137c-0.678-0.561-1.913-0.541-2.576,0.032c-0.536,0.465-0.637,1.33-0.141,1.803
		c0.287,0.271,0.674,0.452,1.037,0.632c0.3,0.146,0.637,0.212,0.946,0.345c0.325,0.141,0.515,0.405,0.453,0.771
		c-0.062,0.386-0.347,0.553-0.716,0.596c-0.721,0.086-1.063-0.132-1.391-0.881C18.701,33.598,18.458,33.598,18.194,33.598z
		 M24.779,33.182c0.278,0.476,0.521,0.888,0.761,1.3c0.404,0.694,0.495,0.733,1.336,0.544c-0.409-0.649-0.782-1.313-1.229-1.922
		c-0.317-0.43-0.323-0.753-0.007-1.188c0.436-0.593,0.788-1.246,1.192-1.897c-0.943-0.111-0.943-0.111-1.365,0.627
		c-0.221,0.385-0.443,0.766-0.698,1.206c-0.271-0.476-0.494-0.869-0.719-1.262c-0.404-0.713-0.404-0.713-1.321-0.558
		c0.435,0.709,0.849,1.41,1.298,2.088c0.185,0.28,0.202,0.483,0.005,0.774c-0.469,0.697-0.895,1.425-1.341,2.144
		c0.663,0.188,1.103,0.042,1.365-0.595C24.23,34.019,24.512,33.64,24.779,33.182z M9.065,30.021c0.527,0.854,1.025,1.663,1.536,2.49
		c-0.52,0.838-1.042,1.678-1.574,2.536c0.931,0.129,0.931,0.128,1.357-0.604c0.232-0.4,0.466-0.8,0.736-1.263
		c0.275,0.472,0.52,0.884,0.76,1.297c0.408,0.702,0.478,0.731,1.341,0.55c-0.44-0.7-0.854-1.407-1.321-2.076
		c-0.228-0.328-0.224-0.561-0.001-0.889c0.446-0.659,0.846-1.354,1.266-2.035c-0.691-0.188-1.13-0.002-1.388,0.647
		c-0.157,0.399-0.421,0.757-0.663,1.179c-0.261-0.458-0.484-0.852-0.708-1.245C10.003,29.899,10.003,29.899,9.065,30.021z
		 M15.005,34.413c0-1.51,0-2.951,0-4.413c-0.294,0-0.55,0-0.827,0c0,1.698,0,3.373,0,5.066c1.084,0,2.142,0,3.197,0
		c0-0.226,0-0.423,0-0.653C16.587,34.413,15.83,34.413,15.005,34.413z"/>
	<path fill-rule="evenodd" clip-rule="evenodd" fill="#333333" d="M15.203,18.258c0-0.576,0-1.101,0-1.681
		c0.163-0.008,0.317-0.023,0.472-0.023c7.106-0.001,14.214,0.002,21.319-0.01c0.404-0.001,0.548,0.105,0.512,0.512
		c-0.034,0.389-0.007,0.785-0.007,1.202C30.049,18.258,22.644,18.258,15.203,18.258z"/>
	<path fill-rule="evenodd" clip-rule="evenodd" fill="#333333" d="M33.941,19.954c0,0.565,0,1.101,0,1.658
		c-6.247,0-12.469,0-18.722,0c0-0.544,0-1.08,0-1.658C21.44,19.954,27.67,19.954,33.941,19.954z"/>
</g>
</svg>
