<?xml version="1.0" encoding="utf-8"?>
<!-- Generator: Adobe Illustrator 16.0.0, SVG Export Plug-In . SVG Version: 6.00 Build 0)  -->
<!DOCTYPE svg PUBLIC "-//W3C//DTD SVG 1.1//EN" "http://www.w3.org/Graphics/SVG/1.1/DTD/svg11.dtd">
<svg version="1.1" id="Layer_1" xmlns="http://www.w3.org/2000/svg" xmlns:xlink="http://www.w3.org/1999/xlink" x="0px" y="0px"
	 width="48px" height="48px" viewBox="0 0 48 48" enable-background="new 0 0 48 48" xml:space="preserve">
<g>
	<path fill-rule="evenodd" clip-rule="evenodd" fill="#333333" d="M9.73,39.311c0.814,0,1.558,0,2.342,0c0,1.441,0,2.858,0,4.309
		c9.521,0,19,0,28.508,0c0-10.364,0-20.734,0-31.141c-2.673,0-5.337,0-8.052,0c0-2.708,0-5.381,0-8.089c-6.83,0-13.608,0-20.433,0
		c0,7.106,0,14.209,0,21.345c-0.8,0-1.552,0-2.365,0c0-0.15,0-0.306,0-0.461c0-7.273-0.001-14.545,0-21.818
		c0-1.017,0.428-1.448,1.436-1.448C18.13,2.007,25.097,2.01,32.061,2c0.321,0,0.54,0.097,0.764,0.321
		c3.27,3.283,6.546,6.559,9.829,9.828c0.227,0.226,0.318,0.45,0.316,0.769c-0.007,10.527-0.005,21.055-0.006,31.583
		c0,1.08-0.413,1.498-1.479,1.498c-10.103,0-20.205,0-30.308,0c-1.018,0-1.447-0.426-1.447-1.436c-0.001-1.599,0-3.196,0-4.795
		C9.73,39.626,9.73,39.483,9.73,39.311z"/>
	<path fill-rule="evenodd" clip-rule="evenodd" fill="#333333" d="M33.592,26.664c-0.054,0.166-0.091,0.305-0.141,0.439
		c-1.333,3.642-2.669,7.281-3.997,10.925c-0.094,0.256-0.183,0.403-0.508,0.403c-7.873-0.012-15.745-0.009-23.617-0.01
		c-0.087,0-0.174-0.011-0.299-0.019c0-3.908,0-7.812,0-11.739C14.542,26.664,24.047,26.664,33.592,26.664z M13.461,32.611
		c0.818-0.398,1.051-1.015,0.915-1.786c-0.115-0.659-0.532-1.145-1.163-1.231c-1.001-0.143-2.024-0.139-3.039-0.197
		c0,2.136,0,4.151,0,6.188c0.33,0,0.63,0,0.991,0c0-0.848,0-1.674,0-2.528c0.411,0,0.762-0.003,1.113,0
		c0.755,0.007,1.097,0.341,1.123,1.094c0.011,0.337-0.015,0.681,0.046,1.008c0.03,0.166,0.191,0.398,0.333,0.434
		c0.282,0.068,0.592,0.02,0.829,0.02c-0.069-0.451-0.177-0.848-0.183-1.246C14.416,33.627,14.347,32.943,13.461,32.611z
		 M25.043,32.63c0.823-0.599,1.033-1.046,0.859-1.85c-0.167-0.773-0.717-1.202-1.45-1.265c-0.908-0.076-1.828-0.018-2.734-0.018
		c0,2.037,0,4.062,0,6.078c0.339,0,0.64,0,0.985,0c0-0.845,0-1.659,0-2.521c0.391,0,0.739-0.002,1.086,0
		c0.801,0.005,1.133,0.344,1.146,1.156c0.007,0.322-0.008,0.649,0.048,0.963c0.029,0.156,0.175,0.388,0.304,0.413
		c0.297,0.063,0.616,0.02,0.836,0.02c-0.061-0.516-0.144-0.97-0.159-1.427C25.941,33.509,25.791,32.931,25.043,32.63z
		 M20.641,35.601c-0.676-1.961-1.343-3.863-1.978-5.776c-0.117-0.354-0.311-0.383-0.612-0.377c-0.306,0.006-0.528,0.01-0.653,0.388
		c-0.596,1.788-1.231,3.564-1.85,5.346c-0.045,0.128-0.076,0.262-0.117,0.403c1.015,0.086,1.015,0.086,1.303-0.782
		c0.038-0.11,0.045-0.247,0.117-0.326c0.108-0.12,0.257-0.272,0.396-0.282c0.51-0.033,1.024,0.002,1.536-0.019
		c0.274-0.013,0.388,0.097,0.455,0.347c0.098,0.365,0.233,0.719,0.354,1.079C19.94,35.601,20.261,35.601,20.641,35.601z"/>
	<path fill-rule="evenodd" clip-rule="evenodd" fill="#333333" d="M15.215,18.255c0-0.576,0-1.112,0-1.702c0.181,0,0.337,0,0.495,0
		c7.091,0,14.184,0.003,21.276-0.007c0.387-0.001,0.563,0.077,0.521,0.502c-0.038,0.39-0.008,0.786-0.008,1.207
		C30.054,18.255,22.649,18.255,15.215,18.255z"/>
	<path fill-rule="evenodd" clip-rule="evenodd" fill="#333333" d="M33.929,21.621c-6.248,0-12.458,0-18.704,0
		c0-0.555,0-1.103,0-1.679c6.223,0,12.443,0,18.704,0C33.929,20.487,33.929,21.034,33.929,21.621z"/>
	<path fill-rule="evenodd" clip-rule="evenodd" fill="#333333" d="M11.184,32.231c0-0.682,0-1.289,0-1.982
		c0.526,0.03,1.033,0.019,1.526,0.098c0.458,0.073,0.703,0.489,0.674,0.987c-0.029,0.495-0.279,0.782-0.77,0.855
		c-0.216,0.032-0.437,0.034-0.654,0.04C11.715,32.235,11.47,32.231,11.184,32.231z"/>
	<path fill-rule="evenodd" clip-rule="evenodd" fill="#333333" d="M22.728,32.196c0-0.649,0-1.26,0-1.942
		c0.5,0.023,0.981,0.01,1.45,0.078c0.5,0.074,0.766,0.47,0.745,0.984c-0.021,0.513-0.283,0.827-0.806,0.872
		C23.67,32.227,23.217,32.196,22.728,32.196z"/>
	<path fill-rule="evenodd" clip-rule="evenodd" fill="#333333" d="M18.834,33.307c-0.573,0-1.051,0-1.606,0
		c0.261-0.799,0.512-1.563,0.806-2.458C18.32,31.732,18.569,32.492,18.834,33.307z"/>
</g>
</svg>
