<?xml version="1.0" encoding="utf-8"?>
<!-- Generator: Adobe Illustrator 16.0.0, SVG Export Plug-In . SVG Version: 6.00 Build 0)  -->
<!DOCTYPE svg PUBLIC "-//W3C//DTD SVG 1.1//EN" "http://www.w3.org/Graphics/SVG/1.1/DTD/svg11.dtd">
<svg version="1.1" id="Layer_1" xmlns="http://www.w3.org/2000/svg" xmlns:xlink="http://www.w3.org/1999/xlink" x="0px" y="0px"
	 width="48px" height="48px" viewBox="0 0 48 48" enable-background="new 0 0 48 48" xml:space="preserve">
<g>
	<path fill-rule="evenodd" clip-rule="evenodd" fill="#333333" d="M9.729,39.309c0.814,0,1.558,0,2.342,0c0,1.441,0,2.859,0,4.309
		c9.523,0,19.002,0,28.514,0c0-10.363,0-20.737,0-31.145c-2.674,0-5.338,0-8.053,0c0-2.708,0-5.382,0-8.091
		c-6.832,0-13.609,0-20.438,0c0,7.107,0,14.211,0,21.349c-0.799,0-1.551,0-2.365,0c0-0.149,0-0.306,0-0.46
		c0-7.275,0-14.548,0-21.822C9.729,2.431,10.157,2,11.165,2C18.146,2,25.126,1.997,32.106,2.012c0.229,0,0.514,0.121,0.678,0.283
		c3.309,3.286,6.605,6.583,9.891,9.892c0.162,0.164,0.281,0.451,0.281,0.681c0.016,10.559,0.014,21.117,0.014,31.676
		C42.968,45.576,42.538,46,41.491,46c-10.104,0-20.209,0-30.313,0c-1.018,0-1.448-0.426-1.449-1.436c0-1.6,0-3.197,0-4.797
		C9.729,39.625,9.729,39.482,9.729,39.309z"/>
	<path fill-rule="evenodd" clip-rule="evenodd" fill="#B91A1A" d="M33.61,26.661c-0.223,0.607-0.432,1.181-0.641,1.755
		c-1.178,3.217-2.357,6.432-3.523,9.65c-0.094,0.26-0.209,0.361-0.494,0.361c-7.873-0.01-15.748-0.008-23.621-0.008
		c-0.088,0-0.176-0.01-0.301-0.018c0-3.908,0-7.813,0-11.741C14.542,26.661,24.049,26.661,33.61,26.661z M15.973,35.744
		c0.8,0,1.579,0.059,2.343-0.014c1.336-0.129,2.158-0.979,2.274-2.314c0.05-0.566,0.034-1.146-0.038-1.709
		c-0.129-1.015-0.724-1.755-1.705-1.953c-0.93-0.187-1.907-0.135-2.874-0.188C15.973,31.691,15.973,33.707,15.973,35.744z
		 M11.189,33.412c0.601,0,1.126,0.023,1.649-0.006c1.057-0.059,1.76-0.727,1.843-1.709c0.087-1.021-0.468-1.889-1.478-2.008
		c-0.988-0.117-2.003-0.025-3.018-0.025c0,2.016,0,4.031,0,6.068c0.334,0,0.647,0,1.003,0
		C11.189,34.965,11.189,34.223,11.189,33.412z M25.917,29.652c-1.33,0-2.609,0-3.875,0c0,2.055,0,4.068,0,6.092
		c0.342,0,0.641,0,0.986,0c0-0.871,0-1.717,0-2.609c0.842,0,1.641,0,2.451,0c0-0.295,0-0.539,0-0.839c-0.82,0-1.619,0-2.43,0
		c0-0.65,0-1.243,0-1.884c0.973,0,1.918,0,2.867,0C25.917,30.133,25.917,29.901,25.917,29.652z"/>
	<path fill-rule="evenodd" clip-rule="evenodd" fill="#333333" d="M37.503,18.257c-7.473,0-14.869,0-22.289,0
		c0-0.56,0-1.097,0-1.686c0.155-0.008,0.311-0.022,0.465-0.022c7.107-0.001,14.215,0.002,21.322-0.011
		c0.41,0,0.543,0.114,0.51,0.516C37.476,17.444,37.503,17.839,37.503,18.257z"/>
	<path fill-rule="evenodd" clip-rule="evenodd" fill="#333333" d="M33.942,19.945c0,0.577,0,1.114,0,1.664
		c-6.25,0-12.473,0-18.724,0c0-0.554,0-1.089,0-1.664C21.446,19.945,27.677,19.945,33.942,19.945z"/>
	<path fill-rule="evenodd" clip-rule="evenodd" fill="#B91A1A" d="M16.981,34.93c0-1.537,0-2.996,0-4.489
		c0.441,0,0.865-0.04,1.279,0.01c0.716,0.087,1.257,0.712,1.311,1.496c0.032,0.481,0.032,0.968,0,1.45
		c-0.061,0.936-0.698,1.518-1.641,1.533C17.626,34.934,17.321,34.93,16.981,34.93z"/>
	<path fill-rule="evenodd" clip-rule="evenodd" fill="#B91A1A" d="M11.233,30.431c0.516,0,0.998-0.023,1.477,0.007
		c0.568,0.035,0.936,0.443,0.967,1.009c0.033,0.587-0.299,1.05-0.884,1.112c-0.503,0.055-1.017,0.012-1.56,0.012
		C11.233,31.869,11.233,31.175,11.233,30.431z"/>
</g>
</svg>
