<?xml version="1.0" encoding="utf-8"?>
<!-- Generator: Adobe Illustrator 16.0.0, SVG Export Plug-In . SVG Version: 6.00 Build 0)  -->
<!DOCTYPE svg PUBLIC "-//W3C//DTD SVG 1.1//EN" "http://www.w3.org/Graphics/SVG/1.1/DTD/svg11.dtd">
<svg version="1.1" id="Layer_1" xmlns="http://www.w3.org/2000/svg" xmlns:xlink="http://www.w3.org/1999/xlink" x="0px" y="0px"
	 width="96px" height="96px" viewBox="0 0 96 96" enable-background="new 0 0 96 96" xml:space="preserve">
<g>
	<polygon fill="#721413" points="48,89.035 32.214,79.922 27.882,82.039 48,93.654 68.059,82.074 63.695,79.975 	"/>
	<polygon fill="#721413" points="16.185,43.69 17.933,44.534 18.001,44.567 18.001,37.075 27.841,31.394 27.844,29.733 
		27.849,26.771 14.001,34.766 14.001,44.755 14.44,44.541 	"/>
	<polygon fill="#721413" points="78,44.604 78.127,44.541 79.873,43.69 81.619,44.534 82,44.717 82,34.766 68.131,26.759 
		68.125,29.653 68.123,31.373 78,37.075 	"/>
	<polygon fill="#721413" points="49.992,19.542 49.992,20.907 49.992,36.554 50,36.55 64.125,29.646 64.127,29.066 64.135,24.452 
		64.156,12.635 63.91,12.754 53.049,18.052 	"/>
	<polygon fill="#721413" points="46,36.554 45.994,20.914 45.993,19.544 42.928,18.065 32.135,12.856 31.873,12.729 31.853,24.459 
		31.845,29.083 31.844,29.74 45.993,36.55 	"/>
	<polygon fill="#721413" points="47.503,15.831 47.993,16.067 48.484,15.828 48.87,15.639 62.156,9.159 61.668,8.923 48.038,2.345 
		34.365,9.014 33.874,9.253 47.118,15.646 	"/>
	<polygon fill="#721413" points="32.282,75.438 32.312,58.426 32.066,58.545 18.149,65.334 18.149,71.803 18.149,76.42 
		18.149,82.346 18.157,82.342 23.707,79.629 28.038,77.512 	"/>
	<polygon fill="#721413" points="14.149,74.111 14.149,65.336 14,65.264 0.291,58.646 0.029,58.521 0,75.531 14.149,82.342 
		14.157,82.346 14.153,74.113 	"/>
	<polygon fill="#721413" points="29.824,54.715 18.001,49.008 16.194,48.136 14.001,49.205 2.521,54.805 2.03,55.045 14,60.822 
		15.66,61.623 16.149,61.859 16.64,61.619 18,60.955 30.313,54.951 	"/>
	<polygon fill="#721413" points="95.754,58.545 82,65.254 81.836,65.334 81.836,74.119 81.836,82.346 81.844,82.342 95.969,75.438 
		96,58.426 	"/>
	<polygon fill="#721413" points="77.84,71.809 77.836,65.336 63.979,58.646 63.717,58.52 63.688,75.531 67.889,77.553 
		72.252,79.652 77.836,82.342 77.844,82.346 77.842,76.426 	"/>
	<polygon fill="#721413" points="94,54.951 93.512,54.715 82,49.158 79.881,48.136 78,49.055 66.209,54.805 65.717,55.045 
		78,60.973 79.348,61.623 79.836,61.859 80.328,61.619 82,60.803 	"/>
</g>
</svg>
