<?xml version="1.0" encoding="utf-8"?>
<!-- Generator: Adobe Illustrator 16.0.0, SVG Export Plug-In . SVG Version: 6.00 Build 0)  -->
<!DOCTYPE svg PUBLIC "-//W3C//DTD SVG 1.1//EN" "http://www.w3.org/Graphics/SVG/1.1/DTD/svg11.dtd">
<svg version="1.1" id="Layer_1" xmlns="http://www.w3.org/2000/svg" xmlns:xlink="http://www.w3.org/1999/xlink" x="0px" y="0px"
	 width="96px" height="96px" viewBox="0 0 96 96" enable-background="new 0 0 96 96" xml:space="preserve">
<rect x="-246.564" y="-4" fill="#721413" width="64" height="64"/>
<g>
	<g>
		<g>
			<path fill="#FFFFFF" d="M-225.253,24.855l1.145-1.141l1.122,1.163c0.282,0.292,2.602,2.697,4.37,4.529l0.239,0.249l2.101-2.178
				c4.347-4.508,9.846-10.211,10.133-10.509l1.122-1.163l1.145,1.142l2.923,2.915c0.814-0.845,1.32-1.37,1.39-1.442L-205,13
				c-0.367,0.381-9.278,9.622-13.376,13.872c-1.559-1.616-5.387-5.583-5.755-5.964l-5.434,5.42c0.09,0.094,0.609,0.632,1.39,1.442
				L-225.253,24.855z"/>
			<path fill="#FFFFFF" d="M-205,18.067c-0.367,0.381-9.278,9.622-13.376,13.873c-1.559-1.616-5.387-5.584-5.755-5.964l-2.943,2.936
				l-2.49,2.483c0.366,0.381,7.772,8.063,11.163,11.581l0.045-0.254c0.047-0.262,0.102-0.537,0.165-0.838
				c0.056-0.266,0.118-0.541,0.191-0.84c0.511-2.098,1.249-4.027,2.201-5.784c1.369-2.525,3.185-4.692,5.439-6.472
				c0.622-0.493,1.282-0.956,1.96-1.378c0.13-0.081,0.264-0.157,0.396-0.235c0.936-0.556,1.921-1.054,2.941-1.474
				c0.283-0.117,0.563-0.225,0.853-0.331c0.294-0.107,0.583-0.205,0.858-0.292l0.016-0.005l0.053-0.017l1.367-0.437l0.393,0.9
				c1.145-1.187,1.874-1.944,1.959-2.032l-2.49-2.483L-205,18.067z"/>
		</g>
		<path fill="#FCB615" d="M-202.126,28.429c-0.085-0.289-0.178-0.574-0.278-0.855c-0.098-0.275-0.202-0.546-0.314-0.814
			c-0.027-0.065-0.052-0.131-0.08-0.196c-0.023,0.007-0.049,0.017-0.072,0.024c-0.248,0.079-0.515,0.169-0.794,0.271
			c-0.254,0.092-0.518,0.194-0.794,0.307c-0.944,0.389-2.003,0.903-3.099,1.586c-0.6,0.373-1.21,0.797-1.816,1.276
			c-2.801,2.211-5.537,5.624-6.934,10.826c-0.051,0.188-0.104,0.371-0.149,0.563c-0.063,0.26-0.124,0.523-0.181,0.791
			c-0.012,0.055-0.021,0.111-0.032,0.166c-0.043,0.207-0.085,0.414-0.123,0.627c0.226-0.012,0.45-0.029,0.671-0.055
			c0.08-0.008,0.16-0.016,0.238-0.025c0.102-0.016,0.201-0.039,0.303-0.057c0.099-0.217,0.204-0.436,0.314-0.656
			c0.056-0.109,0.119-0.223,0.178-0.334c0.081-0.152,0.158-0.303,0.243-0.457c1.346-2.41,3.421-4.914,6.597-6.636
			c0.044-0.024,0.087-0.05,0.132-0.073c0.412-0.219,0.836-0.428,1.285-0.618c0.736-0.312,1.528-0.579,2.373-0.798
			c0.26-0.068,0.523-0.133,0.794-0.191c0.26-0.055,0.525-0.105,0.794-0.152c0.446-0.077,0.904-0.143,1.378-0.194
			C-201.501,31.252-201.725,29.803-202.126,28.429z"/>
	</g>
	<rect x="-230.564" y="12" fill="none" width="32" height="32"/>
</g>
<g>
	<path fill="#721413" d="M216.333,64c7.72,0,14,6.28,14,14s-6.28,14-14,14s-14-6.28-14-14S208.613,64,216.333,64 M216.333,60
		c-9.94,0-18,8.059-18,18s8.06,18,18,18s18-8.059,18-18S226.273,60,216.333,60L216.333,60z"/>
	<path fill="#721413" d="M280.333,64v28h-28V64H280.333 M284.333,60h-36v36h36V60L284.333,60z"/>
	<path fill="#721413" d="M241.358,0l-23,18l23,18l23-18L241.358,0L241.358,0z"/>
	<polygon fill="#721413" points="243.333,46 243.333,40 239.333,40 239.333,46 214.333,46 214.333,47.999 214.333,50 214.333,56 
		218.333,56 218.333,50 264.333,50 264.333,56 268.333,56 268.333,50 268.333,47.999 268.333,46 	"/>
</g>
<g>
	<path fill="#721413" d="M-178-69.5v39.999h-6h-4v4v4l-9.6-7.2l-1.067-0.8H-200h-34V-69.5H-178 M-178-73.5h-56c-2.209,0-4,1.791-4,4
		v39.999c0,2.211,1.791,4,4,4h34l16,12v-12h6c2.209,0,4-1.789,4-4V-69.5C-174-71.709-175.791-73.5-178-73.5L-178-73.5z"/>
</g>
<g>
	<path fill="#721413" d="M412.5,23.501H397v4.5h15.5V73h-6.75h-4.5v4.5V82l-10.8-8.101L389.25,73h-1.5H349.5v-8.438l-4.5,3.375V73
		c0,2.487,2.015,4.5,4.5,4.5h38.25l18,13.5V77.5h6.75c2.485,0,4.5-2.013,4.5-4.5V28.001C417,25.516,414.985,23.501,412.5,23.501z"/>
	<path fill="#721413" d="M345,62.937l4.5-3.375l0.75-0.563h38.25c2.485,0,4.5-2.013,4.5-4.5V28.001v-4.5V9.5
		c0-2.485-2.015-4.5-4.5-4.5h-63c-2.485,0-4.5,2.015-4.5,4.5v44.999c0,2.487,2.015,4.5,4.5,4.5h6.75v13.5L345,62.937z"/>
</g>
<g>
	<path fill="#721413" d="M40.363,7.667v80.667H7.636V7.667H40.363 M44,4H4v88h40V4L44,4z"/>
	<g>
		<rect x="52" y="4" fill="#721413" width="40" height="30"/>
	</g>
	<path fill="#721413" d="M88.363,45.846v42.308H55.637V45.846H88.363 M92,42H52v50h40V42L92,42z"/>
</g>
</svg>
