<?xml version="1.0" encoding="utf-8"?>
<!-- Generator: Adobe Illustrator 16.0.0, SVG Export Plug-In . SVG Version: 6.00 Build 0)  -->
<!DOCTYPE svg PUBLIC "-//W3C//DTD SVG 1.1//EN" "http://www.w3.org/Graphics/SVG/1.1/DTD/svg11.dtd">
<svg version="1.1" id="Layer_1" xmlns="http://www.w3.org/2000/svg" xmlns:xlink="http://www.w3.org/1999/xlink" x="0px" y="0px"
	 width="96px" height="96px" viewBox="0 0 96 96" enable-background="new 0 0 96 96" xml:space="preserve">
<g>
	<path fill="none" d="M26.119,18c3.86,0,7-3.14,7-7s-3.14-7-7-7c-3.86,0-7.001,3.14-7.001,7S22.259,18,26.119,18z"/>
	<path fill="none" d="M70.119,18c3.859,0,7-3.14,7-7s-3.141-7-7-7s-7,3.14-7,7S66.26,18,70.119,18z"/>
	<path fill="#721413" d="M26.119,22c6.074,0,11-4.925,11-11c0-6.075-4.926-11-11-11c-6.075,0-11.001,4.925-11.001,11
		C15.118,17.075,20.044,22,26.119,22z M26.119,4c3.86,0,7,3.14,7,7s-3.14,7-7,7c-3.86,0-7.001-3.14-7.001-7S22.259,4,26.119,4z"/>
	<path fill="#721413" d="M70.119,22c6.074,0,11-4.925,11-11c0-6.075-4.926-11-11-11c-6.075,0-11,4.925-11,11
		C59.119,17.075,64.044,22,70.119,22z M70.119,4c3.859,0,7,3.14,7,7s-3.141,7-7,7s-7-3.14-7-7S66.26,4,70.119,4z"/>
	<g>
		<path fill="#721413" d="M32,76.93V77H20V57.999v-4h-4h-5V32h23.379c-0.549-1.253-0.924-2.597-1.112-4H11c-2.209,0-4,1.791-4,4
			v21.999c0,2.211,1.791,4,4,4h5V77c0,2.209,1.791,4,4,4h12c0.732,0,1.41-0.211,2-0.555v-3.446h-1
			C32.661,76.999,32.328,76.971,32,76.93z"/>
		<path fill="#721413" d="M85,28H62.97c-0.188,1.403-0.563,2.747-1.111,4H85v21.999h-5h-4v4V77H64v-0.07
			c-0.328,0.041-0.66,0.069-1,0.069h-1v3.446C62.591,80.789,63.268,81,64,81h12c2.209,0,4-1.791,4-4V57.999h5c2.209,0,4-1.789,4-4
			V32C89,29.791,87.209,28,85,28z"/>
		<path fill="#721413" d="M38.906,32c0.582,0.891,1.287,1.691,2.094,2.377c1.153,0.981,2.51,1.727,4,2.167
			C45.99,36.837,47.035,37,48.119,37c0.998,0,1.961-0.145,2.881-0.395c1.48-0.401,2.838-1.097,4-2.031
			c0.907-0.729,1.693-1.598,2.331-2.575c0.779-1.193,1.33-2.546,1.598-4c0.119-0.649,0.19-1.316,0.19-2c0-6.075-4.926-11-11-11
			c-6.075,0-11.001,4.925-11.001,11c0,0.684,0.071,1.351,0.19,2C37.576,29.454,38.127,30.807,38.906,32z"/>
		<path fill="#721413" d="M64,72.857c1.722-0.445,3-1.995,3-3.858V47c0-2.209-1.791-4-4-4h-8h-4h-6h-4h-8c-2.209,0-4,1.791-4,4
			v21.999c0,1.863,1.278,3.413,3,3.858c0.321,0.083,0.652,0.142,1,0.142h3h2V92c0,2.209,1.791,4,4,4h12c2.209,0,4-1.791,4-4V72.999
			h2h3C63.348,72.999,63.679,72.941,64,72.857z"/>
	</g>
</g>
</svg>
