<?xml version="1.0" encoding="utf-8"?>
<!-- Generator: Adobe Illustrator 16.0.0, SVG Export Plug-In . SVG Version: 6.00 Build 0)  -->
<!DOCTYPE svg PUBLIC "-//W3C//DTD SVG 1.1//EN" "http://www.w3.org/Graphics/SVG/1.1/DTD/svg11.dtd">
<svg version="1.1" id="Layer_1" xmlns="http://www.w3.org/2000/svg" xmlns:xlink="http://www.w3.org/1999/xlink" x="0px" y="0px"
	 width="96px" height="96px" viewBox="0 0 96 96" enable-background="new 0 0 96 96" xml:space="preserve">
<rect x="-246.564" y="-4" fill="#721413" width="64" height="64"/>
<g>
	<g>
		<g>
			<path fill="#FFFFFF" d="M-225.253,24.855l1.145-1.141l1.122,1.163c0.282,0.292,2.602,2.697,4.37,4.529l0.239,0.249l2.101-2.178
				c4.347-4.508,9.846-10.211,10.133-10.509l1.122-1.163l1.145,1.142l2.923,2.915c0.814-0.845,1.32-1.37,1.39-1.442L-205,13
				c-0.367,0.381-9.278,9.622-13.376,13.872c-1.559-1.616-5.387-5.583-5.755-5.964l-5.434,5.42c0.09,0.094,0.609,0.632,1.39,1.442
				L-225.253,24.855z"/>
			<path fill="#FFFFFF" d="M-205,18.067c-0.367,0.381-9.278,9.622-13.376,13.873c-1.559-1.616-5.387-5.584-5.755-5.964l-2.943,2.936
				l-2.49,2.483c0.366,0.381,7.772,8.063,11.163,11.581l0.045-0.254c0.047-0.262,0.102-0.537,0.165-0.838
				c0.056-0.266,0.118-0.541,0.191-0.84c0.511-2.098,1.249-4.027,2.201-5.784c1.369-2.525,3.185-4.692,5.439-6.472
				c0.622-0.493,1.282-0.956,1.96-1.378c0.13-0.081,0.264-0.157,0.396-0.235c0.936-0.556,1.921-1.054,2.941-1.474
				c0.283-0.117,0.563-0.225,0.853-0.331c0.294-0.107,0.583-0.205,0.858-0.292l0.016-0.005l0.053-0.017l1.367-0.437l0.393,0.9
				c1.145-1.187,1.874-1.944,1.959-2.032l-2.49-2.483L-205,18.067z"/>
		</g>
		<path fill="#FCB615" d="M-202.126,28.429c-0.085-0.289-0.178-0.574-0.278-0.855c-0.098-0.275-0.202-0.546-0.314-0.814
			c-0.027-0.065-0.052-0.131-0.08-0.196c-0.023,0.007-0.049,0.017-0.072,0.024c-0.248,0.079-0.515,0.169-0.794,0.271
			c-0.254,0.092-0.518,0.194-0.794,0.307c-0.944,0.389-2.003,0.903-3.099,1.586c-0.6,0.373-1.21,0.797-1.816,1.276
			c-2.801,2.211-5.537,5.624-6.934,10.826c-0.051,0.188-0.104,0.371-0.149,0.563c-0.063,0.26-0.124,0.523-0.181,0.791
			c-0.012,0.055-0.021,0.111-0.032,0.166c-0.043,0.207-0.085,0.414-0.123,0.627c0.226-0.012,0.45-0.029,0.671-0.055
			c0.08-0.008,0.16-0.016,0.238-0.025c0.102-0.016,0.201-0.039,0.303-0.057c0.099-0.217,0.204-0.436,0.314-0.656
			c0.056-0.109,0.119-0.223,0.178-0.334c0.081-0.152,0.158-0.303,0.243-0.457c1.346-2.41,3.421-4.914,6.597-6.636
			c0.044-0.024,0.087-0.05,0.132-0.073c0.412-0.219,0.836-0.428,1.285-0.618c0.736-0.312,1.528-0.579,2.373-0.798
			c0.26-0.068,0.523-0.133,0.794-0.191c0.26-0.055,0.525-0.105,0.794-0.152c0.446-0.077,0.904-0.143,1.378-0.194
			C-201.501,31.252-201.725,29.803-202.126,28.429z"/>
	</g>
	<rect x="-230.564" y="12" fill="none" width="32" height="32"/>
</g>
<g>
	<path fill="#721413" d="M216.333,64c7.72,0,14,6.28,14,14s-6.28,14-14,14s-14-6.28-14-14S208.613,64,216.333,64 M216.333,60
		c-9.94,0-18,8.059-18,18s8.06,18,18,18s18-8.059,18-18S226.273,60,216.333,60L216.333,60z"/>
	<path fill="#721413" d="M280.333,64v28h-28V64H280.333 M284.333,60h-36v36h36V60L284.333,60z"/>
	<path fill="#721413" d="M241.358,0l-23,18l23,18l23-18L241.358,0L241.358,0z"/>
	<polygon fill="#721413" points="243.333,46 243.333,40 239.333,40 239.333,46 214.333,46 214.333,47.999 214.333,50 214.333,56 
		218.333,56 218.333,50 264.333,50 264.333,56 268.333,56 268.333,50 268.333,47.999 268.333,46 	"/>
</g>
<g>
	<path fill="#721413" d="M-178-69.5v39.999h-6h-4v4v4l-9.6-7.2l-1.067-0.8H-200h-34V-69.5H-178 M-178-73.5h-56c-2.209,0-4,1.791-4,4
		v39.999c0,2.211,1.791,4,4,4h34l16,12v-12h6c2.209,0,4-1.789,4-4V-69.5C-174-71.709-175.791-73.5-178-73.5L-178-73.5z"/>
</g>
<g>
	<path fill="#721413" d="M412.5,23.501H397v4.5h15.5V73h-6.75h-4.5v4.5V82l-10.8-8.101L389.25,73h-1.5H349.5v-8.438l-4.5,3.375V73
		c0,2.487,2.015,4.5,4.5,4.5h38.25l18,13.5V77.5h6.75c2.485,0,4.5-2.013,4.5-4.5V28.001C417,25.516,414.985,23.501,412.5,23.501z"/>
	<path fill="#721413" d="M345,62.937l4.5-3.375l0.75-0.563h38.25c2.485,0,4.5-2.013,4.5-4.5V28.001v-4.5V9.5
		c0-2.485-2.015-4.5-4.5-4.5h-63c-2.485,0-4.5,2.015-4.5,4.5v44.999c0,2.487,2.015,4.5,4.5,4.5h6.75v13.5L345,62.937z"/>
</g>
<g>
	<path fill="#721413" d="M497.03,7.667v80.667h-32.728V7.667H497.03 M500.666,4h-40v88h40V4L500.666,4z"/>
	<g>
		<rect x="508.667" y="4" fill="#721413" width="40" height="30"/>
	</g>
	<path fill="#721413" d="M545.03,45.846v42.308h-32.727V45.846H545.03 M548.667,42h-40v50h40V42L548.667,42z"/>
</g>
<g>
	<g>
		<path fill-rule="evenodd" clip-rule="evenodd" fill="#721413" d="M60.015,69.428c0.749,8.694-2.47,15.435-10.011,19.925
			c-6.947,4.138-16.132,3.336-22.413-1.775c-2.29-1.861-3.992-4.195-5.619-6.604c-0.311-0.459-0.581-0.766-1.26-0.687
			c-6.262,0.739-10.956-1.701-14.119-7.119c-2.93-5.02-1.978-11.974,2.263-15.951c5.235-4.908,9.886-10.304,13.914-16.237
			c6.429-9.461,11.803-19.483,15.945-30.158c1.732-4.465,5.305-6.872,10.104-6.821c2.626,0.026,5.128,0.666,7.525,1.685
			c7.574,3.219,13.537,8.534,18.841,14.667c3.602,4.166,6.682,8.703,9.283,13.566c2.958,5.527,5.226,11.3,6.205,17.521
			c0.618,3.92,0.697,7.841-0.684,11.654c-1.096,3.021-3.083,5.234-6.139,6.34c-2.513,0.907-5.077,0.713-7.655,0.199
			c-1.941-0.386-3.896-0.805-5.863-0.935c-3.416-0.226-6.846-0.242-10.4-0.352C59.978,68.94,59.995,69.186,60.015,69.428z
			 M58.301,12.767c-2.628-1.571-5.375-2.887-8.47-3.242c-3.71-0.424-5.688,1.001-6.456,4.671c-0.694,3.33-0.313,6.633,0.415,9.902
			c1.35,6.073,3.904,11.637,7.137,16.928c3.891,6.37,8.592,12.031,14.389,16.745c3.286,2.673,6.807,4.982,10.915,6.191
			c1.244,0.364,2.566,0.582,3.861,0.627c2.416,0.082,3.927-1.023,4.765-3.292c0.853-2.317,0.883-4.723,0.659-7.139
			c-0.506-5.504-2.23-10.664-4.729-15.538c-1.82-3.553-6.083-10.328-6.158-10.285C70.071,22.215,64.912,16.724,58.301,12.767z
			 M45.724,84.272c6.624-2.923,8.938-10.321,7.511-15.033c-8.964,1.342-17.487,4.06-25.635,8.179
			C31.074,84.377,38.888,87.296,45.724,84.272z"/>
		<path fill-rule="evenodd" clip-rule="evenodd" fill="#721413" d="M51.16,30.762c4.088,8.696,9.515,16.282,16.609,22.67
			c2.78-3.121,4.019-10.33,0.049-16.275C63.919,31.317,57,28.585,51.16,30.762z"/>
	</g>
</g>
<g>
	<path fill-rule="evenodd" clip-rule="evenodd" d="M18.392,531.615c-0.857-0.626-1.73-1.22-2.554-1.874
		c-1.639-1.303-2.479-2.979-2.461-5.118c0.038-4.846,0-9.691,0.034-14.537c0.003-0.417,0.207-0.947,0.503-1.229
		c1.465-1.391,2.993-2.716,4.483-4.051c-0.713-0.506-1.588-1.082-2.415-1.721c-1.74-1.343-2.626-3.083-2.606-5.334
		c0.046-5.189-0.001-10.38,0.039-15.569c0.004-0.476,0.267-1.026,0.575-1.409c2.019-2.51,4.761-4.005,7.647-5.251
		c5.4-2.332,11.104-3.539,16.873-4.515c9.326-1.577,18.735-1.77,28.14-1.439c10.173,0.357,20.233,1.676,29.927,5.01
		c3.38,1.163,6.614,2.629,9.364,4.999c0.589,0.508,0.84,1.041,0.835,1.846c-0.037,6.033-0.038,12.067-0.002,18.102
		c0.006,0.913-0.207,1.694-0.846,2.284c-1.186,1.096-2.437,2.12-3.66,3.174c0.939,0.679,2.004,1.47,3.092,2.227
		c1.055,0.733,1.458,1.644,1.435,2.993c-0.093,5.345-0.063,10.691-0.017,16.037c0.009,0.989-0.242,1.808-0.927,2.443
		c-0.911,0.847-1.899,1.609-2.863,2.398c-0.232,0.19-0.495,0.345-0.815,0.564c1.311,0.777,2.526,1.524,3.77,2.223
		c0.611,0.343,0.838,0.766,0.834,1.493c-0.036,5.784-0.047,11.568,0,17.352c0.011,1.293-0.424,2.303-1.287,3.192
		c-1.619,1.669-3.612,2.764-5.707,3.694c-4.834,2.149-9.952,3.271-15.146,4.081c-10.165,1.585-20.407,1.959-30.668,1.654
		c-9.243-0.273-18.377-1.4-27.17-4.471c-3.97-1.386-7.768-3.124-11.017-5.867c-0.57-0.481-1.178-0.988-1.55-1.614
		c-0.412-0.691-0.796-1.53-0.807-2.311c-0.071-5.064-0.051-10.13-0.009-15.194c0.003-0.418,0.289-0.972,0.623-1.224
		C15.432,533.604,16.896,532.646,18.392,531.615z M59.309,492.206c9.508-0.062,19.322-0.726,29.003-2.674
		c3.479-0.7,6.896-1.729,10.305-2.737c0.641-0.189,1.349-0.907,1.554-1.535c0.13-0.396-0.571-1.118-0.989-1.618
		c-0.271-0.324-0.674-0.576-1.066-0.75c-2.081-0.917-4.124-1.959-6.277-2.663c-7.109-2.327-14.467-3.324-21.904-3.813
		c-10.862-0.715-21.677-0.384-32.411,1.547c-4.587,0.825-9.11,1.914-13.35,3.911c-1.202,0.565-2.36,1.294-3.393,2.128
		c-1.109,0.896-0.821,2.126,0.518,2.572c1.804,0.603,3.612,1.21,5.451,1.689C37.306,491.017,48.096,491.887,59.309,492.206z
		 M20.142,505.789c0,0.504,0,0.814,0,1.125c0,1.844-0.021,3.688,0.024,5.531c0.006,0.245,0.293,0.61,0.533,0.703
		c1.164,0.446,2.345,0.855,3.541,1.211c9.982,2.965,20.249,4.038,30.598,4.474c10.46,0.44,20.855-0.313,31.176-2.053
		c4.684-0.789,9.3-1.868,13.753-3.555c0.282-0.106,0.714-0.371,0.719-0.57c0.052-2.235,0.032-4.473,0.032-6.832
		c-1.284,0.5-2.421,0.988-3.587,1.391c-9.331,3.22-19.021,4.361-28.808,4.866c-9.792,0.505-19.553,0.12-29.26-1.308
		c-5.815-0.855-11.549-2.064-17.024-4.286C21.327,506.279,20.818,506.067,20.142,505.789z M20.142,532.594
		c0,2.119-0.019,4.182,0.025,6.242c0.005,0.237,0.319,0.586,0.566,0.679c1.254,0.472,2.521,0.923,3.808,1.299
		c10.303,3.011,20.891,4.07,31.56,4.44c9.931,0.344,19.804-0.415,29.604-2.042c4.748-0.788,9.422-1.897,13.962-3.535
		c0.672-0.242,0.901-0.569,0.88-1.278c-0.053-1.687-0.013-3.376-0.018-5.064c-0.001-0.259-0.045-0.518-0.064-0.731
		c-2.151,0.754-4.184,1.566-6.273,2.181c-9.972,2.93-20.219,3.983-30.557,4.096c-5.649,0.063-11.313-0.179-16.954-0.548
		c-6.773-0.443-13.467-1.527-19.986-3.488C24.523,534.189,22.401,533.374,20.142,532.594z"/>
</g>
</svg>
