<?xml version="1.0" encoding="utf-8"?>
<!-- Generator: Adobe Illustrator 16.0.0, SVG Export Plug-In . SVG Version: 6.00 Build 0)  -->
<!DOCTYPE svg PUBLIC "-//W3C//DTD SVG 1.1//EN" "http://www.w3.org/Graphics/SVG/1.1/DTD/svg11.dtd">
<svg version="1.1" id="Layer_1" xmlns="http://www.w3.org/2000/svg" xmlns:xlink="http://www.w3.org/1999/xlink" x="0px" y="0px"
	 width="96px" height="96px" viewBox="0 0 96 96" enable-background="new 0 0 96 96" xml:space="preserve">
<path fill="#721413" d="M86.633,19.301c-0.001-1.427-0.564-2.008-1.978-2.084c-5.086-0.271-10.027-1.273-14.847-2.912
	c-7.232-2.459-13.854-6.088-20.085-10.469C48.925,3.274,48.471,3,48.015,3c-0.01,0-0.019,0.004-0.027,0.004
	c-0.439,0.011-0.887,0.271-1.654,0.776c-2.212,1.458-4.402,2.958-6.687,4.293c-8.676,5.072-17.893,8.52-28.029,9.13
	c-1.858,0.112-2.258,0.557-2.258,2.422C9.358,29.084,9.31,38.542,9.386,48c0.009,1.082,0.012,2.164,0.024,3.246
	c0.032,2.758,0.412,5.568,1.062,8.25c1.581,6.525,5.17,11.963,9.845,16.691c7.618,7.705,16.813,12.912,26.874,16.69
	C47.414,92.962,47.679,93,47.952,93c0.012,0,0.023-0.004,0.035-0.004c0.391-0.005,0.795-0.084,1.114-0.227
	c3.821-1.706,7.705-3.308,11.381-5.292c7.512-4.056,14.187-9.193,19.313-16.134c3.912-5.298,6.437-11.179,6.677-17.81
	c0.067-1.844,0.176-3.6,0.182-5.445C86.666,44.398,86.638,25.175,86.633,19.301z M82.475,53.39
	c-0.195,5.372-2.124,10.468-5.897,15.578c-4.359,5.902-10.246,10.807-17.995,14.99c-2.732,1.475-5.576,2.723-8.587,4.045
	c-0.67,0.294-1.34,0.588-2.008,0.885V48H13.383c-0.054-6.693-0.046-13.448-0.034-20.015c0.004-2.299,0.009-4.599,0.01-6.898
	c9.435-0.815,18.711-3.95,28.308-9.561c1.931-1.129,3.779-2.357,5.567-3.544c0.246-0.164,0.492-0.327,0.738-0.49
	c0.006,0.003,0.01,0.007,0.016,0.01V48h34.582C82.563,49.805,82.539,51.61,82.475,53.39z"/>
</svg>
