<?xml version="1.0" encoding="utf-8"?>
<!-- Generator: Adobe Illustrator 16.0.0, SVG Export Plug-In . SVG Version: 6.00 Build 0)  -->
<!DOCTYPE svg PUBLIC "-//W3C//DTD SVG 1.1//EN" "http://www.w3.org/Graphics/SVG/1.1/DTD/svg11.dtd">
<svg version="1.1" id="Layer_1" xmlns="http://www.w3.org/2000/svg" xmlns:xlink="http://www.w3.org/1999/xlink" x="0px" y="0px"
	 width="96px" height="96px" viewBox="0 0 96 96" enable-background="new 0 0 96 96" xml:space="preserve">
<g>
	<path fill="#721413" d="M22.48,74.678c-4.848-4.62-8.355-10.491-10.133-17.124c-0.071-0.267-0.129-0.534-0.193-0.802
		c-1.291,0.45-2.653,0.613-3.998,0.479c0.105,0.453,0.207,0.906,0.328,1.358c2.012,7.509,6.027,14.132,11.579,19.302
		c0.13-0.285,0.272-0.568,0.431-0.842C21.016,76.146,21.697,75.354,22.48,74.678z"/>
	<path fill="#721413" d="M12.135,39.242c0.826-3.356,2.124-6.617,3.9-9.694c1.755-3.042,3.94-5.793,6.451-8.2
		c-1.033-0.884-1.849-1.98-2.407-3.224c-2.935,2.746-5.48,5.911-7.509,9.425c-2.054,3.556-3.539,7.333-4.445,11.223
		C9.475,38.633,10.842,38.794,12.135,39.242z"/>
	<path fill="#721413" d="M83.854,56.752c-0.811,3.327-2.091,6.596-3.887,9.706c-1.757,3.04-3.942,5.792-6.453,8.197
		c1.049,0.902,1.855,2.009,2.404,3.227c2.936-2.745,5.482-5.91,7.513-9.423c2.075-3.595,3.537-7.379,4.427-11.229
		C86.509,57.366,85.145,57.203,83.854,56.752z"/>
	<path fill="#721413" d="M58.479,84.107c-0.062-0.231-0.106-0.465-0.15-0.699c-6.74,1.953-13.916,1.953-20.65,0
		c-0.191,1.021-0.547,2.014-1.081,2.939c-0.153,0.264-0.33,0.511-0.507,0.758c7.751,2.349,16.055,2.35,23.813,0.004
		C59.262,86.213,58.773,85.204,58.479,84.107z"/>
	<g>
		<path fill="#721413" d="M28.555,76.4c0.92,0,1.831,0.244,2.633,0.706c1.904,1.101,2.921,3.217,2.589,5.393
			c-0.101,0.662-0.317,1.283-0.643,1.847c-0.142,0.245-0.326,0.497-0.578,0.791c-0.407,0.475-0.862,0.858-1.352,1.142
			c-0.809,0.467-1.729,0.714-2.662,0.714c-0.924,0-1.838-0.246-2.647-0.714c-2.199-1.268-3.187-3.926-2.348-6.322
			c0.114-0.327,0.252-0.633,0.409-0.904c0.324-0.559,0.751-1.054,1.276-1.476c0.241-0.195,0.456-0.346,0.658-0.462
			C26.7,76.646,27.621,76.4,28.555,76.4 M28.555,74.4c-1.284,0-2.551,0.339-3.664,0.981c-0.322,0.186-0.625,0.404-0.916,0.64
			c-0.684,0.549-1.283,1.224-1.749,2.027c-0.233,0.404-0.419,0.823-0.567,1.249c-1.135,3.242,0.156,6.937,3.238,8.713
			c1.15,0.665,2.406,0.981,3.646,0.981c1.284,0,2.55-0.339,3.662-0.981c0.698-0.403,1.327-0.938,1.87-1.571
			c0.289-0.338,0.561-0.694,0.791-1.093c0.469-0.811,0.756-1.675,0.889-2.547c0.439-2.884-0.883-5.875-3.566-7.425
			C31.042,74.714,29.791,74.4,28.555,74.4L28.555,74.4z"/>
	</g>
	<g>
		<path fill="#721413" d="M28.552,9c0.922,0,1.834,0.245,2.638,0.709c0.509,0.294,0.97,0.68,1.369,1.147
			c0.645,0.753,1.064,1.669,1.215,2.646c0.185,1.205-0.037,2.396-0.638,3.439c-0.468,0.808-1.138,1.478-1.936,1.939
			c-0.81,0.467-1.731,0.714-2.666,0.714c-0.922,0-1.836-0.246-2.641-0.71c-0.205-0.119-0.42-0.27-0.662-0.462
			c-0.774-0.62-1.355-1.439-1.681-2.37c-0.512-1.463-0.364-3.066,0.407-4.401c0.464-0.806,1.133-1.476,1.933-1.938
			C26.698,9.246,27.619,9,28.552,9 M28.552,7c-1.284,0-2.549,0.339-3.661,0.98c-1.073,0.62-2.003,1.521-2.666,2.671
			c-1.106,1.917-1.239,4.125-0.562,6.061c0.44,1.259,1.229,2.397,2.318,3.27c0.285,0.229,0.585,0.444,0.911,0.633
			c1.149,0.663,2.403,0.979,3.641,0.979c1.285,0,2.552-0.34,3.666-0.982c1.071-0.619,2-1.519,2.666-2.667
			c0.859-1.492,1.127-3.163,0.885-4.745c-0.205-1.332-0.778-2.598-1.672-3.643c-0.523-0.612-1.15-1.152-1.888-1.579
			C31.042,7.315,29.789,7,28.552,7L28.552,7z"/>
	</g>
	<g>
		<path fill="#721413" d="M67.472,76.405c0.921,0,1.832,0.244,2.634,0.707c0.205,0.118,0.416,0.266,0.663,0.465
			c0.772,0.62,1.354,1.441,1.681,2.372c0.513,1.467,0.367,3.07-0.399,4.399c-0.465,0.804-1.134,1.474-1.933,1.935
			c-0.81,0.468-1.731,0.715-2.666,0.715c-0.924,0-1.838-0.246-2.642-0.709c-0.512-0.297-0.973-0.682-1.368-1.146
			c-0.646-0.754-1.065-1.668-1.215-2.646c-0.184-1.203,0.039-2.394,0.646-3.443c0.464-0.804,1.132-1.473,1.933-1.935
			C65.614,76.652,66.536,76.405,67.472,76.405 M67.472,74.405c-1.286,0-2.554,0.34-3.667,0.982
			c-1.072,0.619-2.002,1.519-2.665,2.667c-0.862,1.493-1.132,3.164-0.89,4.746c0.203,1.334,0.777,2.599,1.672,3.644
			c0.522,0.611,1.15,1.149,1.886,1.575c1.149,0.663,2.404,0.979,3.644,0.979c1.285,0,2.553-0.34,3.666-0.982
			c1.07-0.618,2-1.518,2.664-2.666c1.104-1.913,1.234-4.121,0.556-6.061c-0.441-1.258-1.228-2.397-2.315-3.271
			c-0.287-0.23-0.588-0.448-0.916-0.638C69.96,74.72,68.707,74.405,67.472,74.405L67.472,74.405z"/>
	</g>
	<g>
		<path fill="#721413" d="M86.914,42.717c0.326,0,0.655,0.03,0.974,0.089c0.617,0.115,1.183,0.318,1.674,0.6
			c2.532,1.467,3.401,4.717,1.938,7.248c-0.462,0.802-1.128,1.468-1.929,1.93c-0.486,0.282-1.047,0.485-1.664,0.604
			c-0.335,0.063-0.677,0.097-1.015,0.097c-0.652,0-1.288-0.119-1.889-0.354c-0.279-0.109-0.521-0.224-0.736-0.348
			c-2.527-1.458-3.398-4.701-1.942-7.226c0.466-0.806,1.136-1.476,1.938-1.939c0.2-0.116,0.437-0.227,0.723-0.338
			C85.6,42.839,86.249,42.717,86.914,42.717 M86.914,40.717c-0.911,0-1.813,0.169-2.658,0.5c-0.342,0.134-0.676,0.285-0.994,0.469
			c-1.072,0.619-2.003,1.52-2.668,2.669c-2.008,3.482-0.811,7.949,2.674,9.959c0.328,0.188,0.666,0.344,1.008,0.478
			c0.853,0.333,1.739,0.491,2.617,0.491c0.468,0,0.933-0.045,1.389-0.132c0.804-0.154,1.582-0.426,2.293-0.838
			c1.07-0.617,1.998-1.516,2.658-2.661c2.019-3.491,0.822-7.956-2.668-9.978c-0.737-0.423-1.519-0.688-2.311-0.836
			C87.809,40.758,87.36,40.717,86.914,40.717L86.914,40.717z"/>
	</g>
	<g>
		<path fill="#721413" d="M9.109,42.717c0.646,0,1.278,0.118,1.877,0.35c0.289,0.111,0.532,0.225,0.746,0.349
			c1.226,0.707,2.102,1.849,2.468,3.215c0.366,1.366,0.178,2.793-0.529,4.018c-0.464,0.803-1.132,1.472-1.929,1.933
			c-0.207,0.118-0.448,0.231-0.739,0.344c-0.609,0.237-1.251,0.357-1.909,0.357c-0.333,0-0.667-0.032-0.994-0.094
			c-0.611-0.116-1.171-0.319-1.665-0.604c-2.528-1.457-3.398-4.702-1.942-7.229c0.466-0.806,1.135-1.475,1.934-1.937
			c0.485-0.28,1.042-0.483,1.654-0.602C8.421,42.75,8.767,42.717,9.109,42.717 M9.109,40.717c-0.474,0-0.945,0.046-1.408,0.136
			c-0.795,0.155-1.567,0.426-2.273,0.833c-1.072,0.619-2.001,1.519-2.665,2.667c-2.012,3.492-0.816,7.952,2.675,9.963
			c0.73,0.422,1.505,0.688,2.289,0.837c0.455,0.086,0.913,0.129,1.368,0.129c0.903,0,1.796-0.167,2.634-0.493
			c0.348-0.135,0.688-0.288,1.012-0.475c1.071-0.619,2-1.518,2.663-2.666c2.015-3.488,0.82-7.952-2.672-9.966
			c-0.333-0.192-0.677-0.348-1.024-0.482C10.861,40.873,9.981,40.717,9.109,40.717L9.109,40.717z"/>
	</g>
	<g>
		<path fill="#721413" d="M48.118,46.997c6.074,0,11-4.926,11-10.999c0-1.368-0.261-2.672-0.718-3.88
			c-1.557-4.122-5.508-7.064-10.162-7.114c-0.04-0.001-0.079-0.006-0.12-0.006c-0.013,0-0.026,0.002-0.04,0.002
			c-4.62,0.017-8.562,2.883-10.175,6.931c-0.502,1.259-0.786,2.629-0.786,4.067C37.117,42.071,42.042,46.997,48.118,46.997z"/>
		<path fill="#721413" d="M65.91,54.271c-0.729-0.779-1.76-1.273-2.912-1.273h-30c-1.153,0-2.185,0.495-2.915,1.276
			c-0.668,0.715-1.085,1.668-1.085,2.724v3.947c4.146,6.064,11.115,10.053,19,10.053c7.885,0,14.854-3.99,18.999-10.057v-3.943
			C66.998,55.94,66.58,54.985,65.91,54.271z"/>
	</g>
	<g>
		<path fill="#721413" d="M73.507,21.333c5.161,4.94,8.682,11.195,10.325,17.922c1.287-0.452,2.649-0.618,3.994-0.487
			c-1.807-7.779-5.87-15.014-11.896-20.65c-0.127,0.284-0.27,0.563-0.428,0.835C74.979,19.86,74.294,20.655,73.507,21.333z"/>
		<path fill="#721413" d="M59.402,9.656c0.155-0.268,0.335-0.519,0.514-0.769c-7.752-2.343-16.063-2.345-23.824,0.004
			c0.793,1.11,1.327,2.375,1.576,3.7c6.744-1.957,13.927-1.956,20.662-0.006C58.519,11.581,58.865,10.59,59.402,9.656z"/>
		<path fill="#721413" d="M71.107,7.982c-2.346-1.348-5.123-1.255-7.308,0.006c-0.696,0.402-1.323,0.936-1.866,1.566
			c-0.293,0.341-0.568,0.7-0.8,1.103c-0.466,0.809-0.752,1.671-0.884,2.542c-0.438,2.882,0.879,5.872,3.558,7.419
			c2.339,1.353,5.12,1.258,7.302-0.002c0.318-0.184,0.619-0.4,0.908-0.632c0.686-0.549,1.287-1.225,1.751-2.03
			c0.234-0.405,0.421-0.822,0.569-1.248C75.477,13.461,74.189,9.764,71.107,7.982z"/>
	</g>
</g>
</svg>
