<?xml version="1.0" encoding="utf-8"?>
<!-- Generator: Adobe Illustrator 22.0.0, SVG Export Plug-In . SVG Version: 6.00 Build 0)  -->
<svg version="1.1" id="Layer_1" xmlns="http://www.w3.org/2000/svg" xmlns:xlink="http://www.w3.org/1999/xlink" x="0px" y="0px"
	 viewBox="0 0 24 24" style="enable-background:new 0 0 24 24;" xml:space="preserve">
<path d="M11,8.9c0-0.6,0-1.2,0-1.8c0-0.6,0.4-1,1-1c0.6,0,1,0.4,1,1c0,1.2,0,2.5,0,3.7c0,0.2,0,0.3,0.3,0.3c1.3,0,2.5,0,3.8,0
	c0.5,0,0.9,0.4,1,0.9c0.1,0.5-0.2,0.9-0.7,1.1c-0.1,0-0.3,0-0.4,0c-1.2,0-2.4,0-3.6,0c-0.2,0-0.3,0-0.3,0.3c0,1.2,0,2.5,0,3.7
	c0,0.8-0.8,1.3-1.4,0.9C11.2,17.7,11,17.4,11,17c0-1.2,0-2.5,0-3.7c0-0.2-0.1-0.3-0.3-0.3c-1.2,0-2.5,0-3.7,0c-0.7,0-1.2-0.7-1-1.3
	C6.2,11.3,6.6,11,7,11c1.2,0,2.5,0,3.7,0c0.2,0,0.3-0.1,0.3-0.3C11,10.1,11,9.5,11,8.9z"/>
<path d="M12,0C5.4,0,0,5.4,0,12s5.4,12,12,12s12-5.4,12-12S18.6,0,12,0z M12,22C6.5,22,2,17.5,2,12S6.5,2,12,2s10,4.5,10,10
	S17.5,22,12,22z"/>
</svg>
