<?xml version="1.0" encoding="utf-8"?>
<!-- Generator: Adobe Illustrator 22.0.0, SVG Export Plug-In . SVG Version: 6.00 Build 0)  -->
<svg version="1.1" id="Layer_1" xmlns="http://www.w3.org/2000/svg" xmlns:xlink="http://www.w3.org/1999/xlink" x="0px" y="0px"
	 viewBox="0 0 654.8 173.3" style="enable-background:new 0 0 654.8 173.3;" xml:space="preserve">
<style type="text/css">
	.st0{fill:#FFFFFF;}
	.st1{fill:#C29809;}
</style>
<g>
	<path class="st0" d="M488.5,25.3c-2.6,0-5,0.8-7.1,2.4c-1.8,1.4-3.1,3.3-4.1,5.7h-0.1V26h-10.5v42.7h10.5V46.9
		c0-3.7,0.9-6.8,2.6-9.1s4-3.4,6.8-3.4c0.9,0,2,0.1,3.2,0.4c1.1,0.3,2,0.6,2.5,1l0.4,0.3V26l-0.2-0.1
		C491.6,25.5,490.2,25.3,488.5,25.3"/>
	<path class="st0" d="M494.8,34.3h6.7v21.9c0,9,4.5,13.6,13.3,13.6c1.5,0,3-0.2,4.5-0.5c1.6-0.3,2.7-0.6,3.3-1l0.1-0.1v-8.3
		l-0.4,0.3c-0.6,0.4-1.3,0.7-2.1,0.9c-0.9,0.2-1.6,0.3-2.1,0.3c-2.1,0-3.6-0.5-4.5-1.6c-1-1.1-1.4-2.9-1.4-5.5v-20h10.7v-8.2h-10.7
		V13.4l-0.4,0.1l-10,2.9l-0.2,0.1v9.6h-6.7L494.8,34.3"/>
	<path class="st0" d="M648.3,25.3c-2.6,0-5,0.8-7.1,2.4c-1.8,1.4-3.1,3.3-4.1,5.7H637V26h-10.5v42.7H637V46.9c0-3.7,0.9-6.8,2.6-9.1
		c1.7-2.3,4-3.4,6.8-3.4c0.9,0,2,0.1,3.2,0.4c1.1,0.3,2,0.6,2.5,1l0.4,0.3V26l-0.2-0.1C651.4,25.5,650,25.3,648.3,25.3"/>
	<path class="st0" d="M39.5,46.5l-2.9,7.8h-0.2c-0.5-1.8-1.4-4.4-2.8-7.7L17.9,9.1H2.6v59.6h10.1V32.1c0-2.3-0.1-5-0.1-8.1
		c-0.1-1.6-0.2-2.8-0.3-3.8h0.2c0.5,2.2,1,4,1.4,5.1l18.8,43.4h7.1l18.7-43.8c0.4-1,0.9-3,1.3-4.7H60c-0.2,4.3-0.5,8.3-0.5,10.7
		v37.8h10.8V9.1H55.6L39.5,46.5"/>
	<polyline class="st0" points="80.4,68.7 91,68.7 91,26 80.4,26 80.4,68.7 	"/>
	<path class="st0" d="M85.8,7.9c-1.7,0-3.2,0.6-4.5,1.7c-1.2,1.1-1.9,2.5-1.9,4.2c0,1.6,0.6,3,1.9,4.1c1.2,1.1,2.8,1.6,4.5,1.6
		c1.8,0,3.3-0.6,4.5-1.6c1.2-1.1,1.9-2.5,1.9-4.1s-0.6-3-1.8-4.1C89.2,8.5,87.6,7.9,85.8,7.9"/>
	<path class="st0" d="M128.3,25.6c-2-0.4-4-0.6-5.9-0.6c-4.8,0-9.2,1-12.8,2.9c-3.7,2-6.5,4.7-8.5,8.3c-1.9,3.5-2.9,7.7-2.9,12.3
		c0,4,1,7.7,2.8,11c1.9,3.3,4.5,5.8,7.9,7.6c3.4,1.8,7.2,2.7,11.5,2.7c5,0,9.3-1,12.7-2.8l0.1-0.1v-9.2l-0.4,0.3
		c-1.6,1.1-3.3,1.9-5.2,2.6c-1.9,0.6-3.6,0.9-5.1,0.9c-4.1,0-7.5-1.2-9.9-3.7c-2.4-2.4-3.6-5.8-3.6-10.1s1.3-7.8,3.8-10.4
		s5.8-3.9,9.9-3.9c3.5,0,6.8,1.1,10,3.3l0.4,0.3v-9.7l-0.1-0.1C132,26.5,130.4,26,128.3,25.6"/>
	<path class="st0" d="M163.1,25.3c-2.6,0-5,0.8-7.1,2.4c-1.8,1.4-3.1,3.3-4.1,5.7h-0.1V26h-10.5v42.7h10.5V46.9
		c0-3.7,0.9-6.8,2.6-9.1c1.7-2.3,4-3.4,6.8-3.4c0.9,0,2,0.1,3.2,0.4c1.1,0.3,2,0.6,2.5,1l0.4,0.3V26l-0.2-0.1
		C166.2,25.5,164.8,25.3,163.1,25.3"/>
	<path class="st0" d="M200.1,57.9c-2,2.4-5,3.6-8.9,3.6s-6.9-1.2-9.1-3.6s-3.3-5.9-3.3-10.3c0-4.5,1.1-8.1,3.3-10.5
		c2.2-2.5,5.2-3.7,9-3.7c3.7,0,6.6,1.2,8.8,3.5c2.1,2.4,3.2,5.9,3.2,10.4C203.1,51.9,202.1,55.5,200.1,57.9 M191.7,25
		c-7.4,0-13.3,2.1-17.5,6.1c-4.2,4.1-6.3,9.7-6.3,16.7c0,6.7,2.1,12.1,6.1,16c4.1,3.9,9.6,5.9,16.5,5.9c7.2,0,12.9-2.1,17.1-6.2
		c4.2-4.1,6.3-9.7,6.3-16.6c0-6.8-2-12.2-5.9-16.1C204.2,27,198.7,25,191.7,25"/>
	<path class="st0" d="M237.4,43.7c-3.3-1.3-5.5-2.3-6.3-3.1c-0.9-0.8-1.3-1.9-1.3-3.3c0-1.2,0.5-2.2,1.6-3s2.6-1.2,4.5-1.2
		c1.8,0,3.6,0.3,5.4,0.8c1.8,0.5,3.4,1.2,4.7,2.1l0.4,0.3V27l-0.2-0.1c-1.2-0.5-2.8-0.9-4.8-1.3c-2-0.3-3.7-0.5-5.3-0.5
		c-5,0-9.2,1.2-12.4,3.6s-4.8,5.6-4.8,9.5c0,2,0.3,3.8,1,5.3s1.8,2.9,3.2,4s3.6,2.3,6.5,3.5c2.4,1,4.2,1.8,5.4,2.4
		c1.1,0.6,1.9,1.2,2.4,1.9c0.4,0.6,0.7,1.4,0.7,2.4c0,2.9-2.3,4.3-6.9,4.3c-1.7,0-3.7-0.3-5.8-1s-4.2-1.6-6-2.9l-0.4-0.3v9.8
		l0.2,0.1c1.5,0.7,3.4,1.2,5.7,1.7c2.2,0.4,4.3,0.7,6,0.7c5.5,0,9.9-1.2,13.1-3.7c3.2-2.4,4.9-5.7,4.9-9.7c0-2.9-0.9-5.3-2.6-7.3
		C244.6,47.1,241.6,45.3,237.4,43.7"/>
	<path class="st0" d="M285.7,57.9c-2,2.4-5,3.6-8.9,3.6s-6.9-1.2-9.1-3.6c-2.2-2.4-3.3-5.9-3.3-10.3c0-4.5,1.1-8.1,3.3-10.5
		c2.2-2.5,5.2-3.7,9-3.7c3.7,0,6.7,1.2,8.8,3.5c2.1,2.4,3.2,5.9,3.2,10.4C288.7,51.9,287.7,55.5,285.7,57.9 M277.3,25
		c-7.4,0-13.3,2.1-17.5,6.1c-4.2,4.1-6.3,9.7-6.3,16.7c0,6.7,2.1,12.1,6.2,16c4.1,3.9,9.6,5.9,16.5,5.9c7.2,0,12.9-2.1,17.1-6.2
		s6.3-9.7,6.3-16.6c0-6.8-2-12.2-5.9-16.1C289.8,27,284.3,25,277.3,25"/>
	<path class="st0" d="M355.9,34.2V26h-10.7V13.3l-0.4,0.1l-10,2.9l-0.2,0.1V26h-15.8v-5.4c0-2.5,0.6-4.4,1.8-5.7s2.8-1.9,4.9-1.9
		c1.5,0,3.1,0.3,4.6,1l0.4,0.2V5.6l-0.2-0.1c-1.5-0.5-3.5-0.8-5.9-0.8c-3.1,0-5.9,0.6-8.4,1.9s-4.4,3.1-5.8,5.4s-2,5-2,8v5.9h-7.4
		v8.2h7.4v34.5h10.7V34.1h15.7V56c0,9,4.5,13.6,13.3,13.6c1.4,0,3-0.2,4.5-0.5c1.6-0.3,2.7-0.7,3.3-1l0.1-0.1v-8.3l-0.4,0.3
		c-0.6,0.4-1.3,0.7-2.1,0.9c-0.8,0.2-1.6,0.3-2.1,0.3c-2.1,0-3.6-0.5-4.5-1.6c-1-1.1-1.4-2.9-1.4-5.5V33.9h10.6"/>
	<path class="st0" d="M410.7,28c0-3.3-1.1-5.9-3.4-7.7c-2.3-1.8-5.5-2.7-9.8-2.7h-7.2V39h6.7c4.3,0,7.7-0.9,10.1-2.8
		C409.5,34.3,410.7,31.6,410.7,28 M421.6,27.7c0,3.8-1,7.1-3,10.1s-4.8,5.3-8.4,7s-7.8,2.5-12.5,2.5h-7.4v21.4h-10.4V9.2h19.3
		c7.2,0,12.7,1.6,16.6,4.8C419.6,17.1,421.6,21.7,421.6,27.7"/>
	<path class="st0" d="M431.1,56.1c0,1.8,0.7,3.3,2.1,4.4c1.4,1.1,3.2,1.6,5.3,1.6c3,0,5.5-1,7.4-2.9c1.9-2,2.9-4.4,2.9-7.4V48
		l-9.6,1.2c-3.1,0.4-5.2,1.1-6.3,2.2C431.7,52.4,431.1,54,431.1,56.1 M448.8,68.7v-5.9h-0.2c-3.1,4.6-7.5,6.9-13.2,6.9
		c-4.4,0-7.8-1.1-10.4-3.4c-2.5-2.3-3.8-5.3-3.8-9.2c0-4,1.2-7.2,3.7-9.6s6.1-3.9,10.9-4.5l13-1.7c0-5.8-2.8-8.7-8.5-8.7
		c-2.7,0-5.4,0.4-8,1.3s-4.9,2-6.9,3.4v-8.5c1.6-1,4-1.8,7.2-2.6s6.1-1.2,8.6-1.2c5.7,0,10,1.4,12.9,4.3c2.9,2.8,4.3,7,4.3,12.4
		v26.9L448.8,68.7"/>
	<path class="st0" d="M560.4,68.7V44.8c0-4-0.7-7-2.1-8.9c-1.4-2-3.7-2.9-6.8-2.9s-5.6,1.1-7.6,3.3s-3,4.9-3,8.2v24.2h-10.1V26.2
		h10.1V33h0.2c3.3-5.2,8.2-7.8,14.5-7.8c4.7,0,8.4,1.4,11,4.3s3.9,7.3,3.9,13.1v26.1H560.4"/>
	<path class="st0" d="M608.2,43.1c0-3.4-0.8-5.9-2.5-7.7s-4-2.7-7-2.7c-2.7,0-5.1,1-7.1,2.9s-3.3,4.4-3.8,7.5H608.2 M587.8,50.3
		c0.2,3.9,1.4,6.8,3.7,8.8s5.5,3,9.7,3c2.5,0,5-0.4,7.3-1.1c2.3-0.8,4.4-1.7,6.1-2.9v8.1c-1.7,1.1-4,1.9-6.8,2.6s-5.9,1-9,1
		c-6.8,0-12-1.9-15.7-5.8s-5.6-9.2-5.6-16.1c0-4.5,0.9-8.5,2.8-11.9c1.8-3.4,4.4-6.1,7.7-7.9c3.3-1.9,6.9-2.8,10.8-2.8
		c6.2,0,11,1.8,14.4,5.4s5.1,8.6,5.1,14.9v4.8L587.8,50.3"/>
</g>
<g>
	<g>
		<path class="st1" d="M21.3,165.6c-2.6,1.5-5.4,2.2-8.6,2.2c-2.4,0-4.5-0.5-6.4-1.6c-1.9-1.1-3.3-2.6-4.3-4.6c-1-2-1.5-4.2-1.5-6.7
			c0-3.9,1.2-7.2,3.7-9.7c2.5-2.6,5.7-3.8,9.5-3.8c2.8,0,5.1,0.5,7,1.4v3.3c-2.1-1.3-4.5-2-7.4-2c-1.9,0-3.5,0.4-5,1.3
			c-1.5,0.9-2.7,2.2-3.5,3.8c-0.8,1.6-1.3,3.5-1.3,5.5c0,3.2,0.8,5.8,2.5,7.6c1.7,1.9,4,2.8,6.9,2.8c2,0,3.7-0.4,5.2-1.2v-7.2h-5.6
			V154h8.6V165.6z"/>
		<path class="st1" d="M43.5,158.1c0,2.9-0.8,5.2-2.5,7c-1.6,1.8-3.9,2.7-6.6,2.7c-2.7,0-4.9-0.9-6.5-2.6c-1.6-1.7-2.4-4-2.4-6.8
			c0-3,0.8-5.4,2.5-7.2c1.7-1.8,3.9-2.6,6.8-2.6c2.7,0,4.8,0.8,6.4,2.5C42.7,152.9,43.5,155.2,43.5,158.1z M40.5,158.3
			c0-2.3-0.5-4.1-1.5-5.3c-1-1.2-2.5-1.8-4.4-1.8c-1.9,0-3.4,0.6-4.5,1.9c-1.1,1.3-1.6,3-1.6,5.3c0,2.2,0.6,3.9,1.7,5.1
			c1.1,1.2,2.6,1.8,4.5,1.8c1.9,0,3.4-0.6,4.4-1.8C40,162.3,40.5,160.5,40.5,158.3z"/>
		<path class="st1" d="M50.9,167.4H48v-27.1h2.9V167.4z"/>
		<path class="st1" d="M72.3,167.4h-2.9v-3.1h-0.1c-1.4,2.4-3.5,3.6-6.3,3.6c-2.3,0-4.1-0.8-5.5-2.5c-1.4-1.7-2.1-3.9-2.1-6.6
			c0-3,0.8-5.4,2.3-7.3c1.5-1.8,3.5-2.7,6.1-2.7c2.5,0,4.3,1,5.5,3h0.1v-11.3h2.9V167.4z M69.4,159.1v-2.7c0-1.5-0.5-2.8-1.5-3.8
			s-2.2-1.5-3.7-1.5c-1.8,0-3.2,0.7-4.2,2c-1,1.3-1.6,3.1-1.6,5.4c0,2.1,0.5,3.8,1.5,5c1,1.2,2.3,1.8,3.9,1.8c1.6,0,2.9-0.6,4-1.7
			S69.4,160.9,69.4,159.1z"/>
	</g>
	<g>
		<path class="st1" d="M21.3,122c-2.6,1.5-5.4,2.2-8.6,2.2c-2.4,0-4.5-0.5-6.4-1.6C4.5,121.5,3,120,2,118c-1-2-1.5-4.2-1.5-6.7
			c0-3.9,1.2-7.2,3.7-9.7c2.5-2.6,5.7-3.8,9.5-3.8c2.8,0,5.1,0.5,7,1.4v3.3c-2.1-1.3-4.5-2-7.4-2c-1.9,0-3.5,0.4-5,1.3
			c-1.5,0.9-2.7,2.2-3.5,3.8c-0.8,1.6-1.3,3.5-1.3,5.5c0,3.2,0.8,5.8,2.5,7.6c1.7,1.9,4,2.8,6.9,2.8c2,0,3.7-0.4,5.2-1.2v-7.2h-5.6
			v-2.7h8.6V122z"/>
		<path class="st1" d="M43.5,114.6c0,2.9-0.8,5.2-2.5,7c-1.6,1.8-3.9,2.7-6.6,2.7c-2.7,0-4.9-0.9-6.5-2.6c-1.6-1.7-2.4-4-2.4-6.8
			c0-3,0.8-5.4,2.5-7.2c1.7-1.8,3.9-2.6,6.8-2.6c2.7,0,4.8,0.8,6.4,2.5C42.7,109.3,43.5,111.6,43.5,114.6z M40.5,114.7
			c0-2.3-0.5-4.1-1.5-5.3c-1-1.2-2.5-1.8-4.4-1.8c-1.9,0-3.4,0.6-4.5,1.9c-1.1,1.3-1.6,3-1.6,5.3c0,2.2,0.6,3.9,1.7,5.1
			c1.1,1.2,2.6,1.8,4.5,1.8c1.9,0,3.4-0.6,4.4-1.8C40,118.7,40.5,116.9,40.5,114.7z"/>
		<path class="st1" d="M50.9,123.8H48V96.7h2.9V123.8z"/>
		<path class="st1" d="M72.3,123.8h-2.9v-3.1h-0.1c-1.4,2.4-3.5,3.6-6.3,3.6c-2.3,0-4.1-0.8-5.5-2.5c-1.4-1.7-2.1-3.9-2.1-6.6
			c0-3,0.8-5.4,2.3-7.3c1.5-1.8,3.5-2.7,6.1-2.7c2.5,0,4.3,1,5.5,3h0.1V96.7h2.9V123.8z M69.4,115.5v-2.7c0-1.5-0.5-2.8-1.5-3.8
			c-1-1-2.2-1.5-3.7-1.5c-1.8,0-3.2,0.7-4.2,2c-1,1.3-1.6,3.1-1.6,5.4c0,2.1,0.5,3.8,1.5,5c1,1.2,2.3,1.8,3.9,1.8
			c1.6,0,2.9-0.6,4-1.7S69.4,117.3,69.4,115.5z"/>
	</g>
	<g>
		<path class="st0" d="M125.9,123.8h-3.3l-2.7-7.2h-10.9l-2.6,7.2h-3.3l9.8-25.6h3.1L125.9,123.8z M118.9,113.9l-4-10.9
			c-0.1-0.3-0.2-0.8-0.4-1.7h-0.1c-0.1,0.7-0.2,1.3-0.4,1.7l-4,10.9H118.9z"/>
		<path class="st0" d="M146.1,114.1c0,3.1-0.8,5.6-2.3,7.4c-1.5,1.8-3.5,2.7-6.1,2.7c-2.4,0-4.2-1-5.5-3.1h-0.1v11h-2.9v-26.7h2.9
			v3.2h0.1c1.4-2.4,3.5-3.7,6.3-3.7c2.3,0,4.1,0.8,5.5,2.4C145.4,109.1,146.1,111.3,146.1,114.1z M143.1,114c0-2-0.5-3.6-1.4-4.7
			c-0.9-1.2-2.2-1.8-3.8-1.8c-1.7,0-3,0.6-4.1,1.7c-1,1.2-1.6,2.7-1.6,4.5v2.6c0,1.5,0.5,2.8,1.5,3.9c1,1,2.2,1.6,3.7,1.6
			c1.8,0,3.1-0.7,4.1-2C142.6,118.3,143.1,116.4,143.1,114z"/>
		<path class="st0" d="M167.5,114.1c0,3.1-0.8,5.6-2.3,7.4c-1.5,1.8-3.5,2.7-6.1,2.7c-2.4,0-4.2-1-5.5-3.1h-0.1v11h-2.9v-26.7h2.9
			v3.2h0.1c1.4-2.4,3.5-3.7,6.3-3.7c2.3,0,4.1,0.8,5.5,2.4C166.8,109.1,167.5,111.3,167.5,114.1z M164.5,114c0-2-0.5-3.6-1.4-4.7
			c-0.9-1.2-2.2-1.8-3.8-1.8c-1.7,0-3,0.6-4.1,1.7c-1,1.2-1.6,2.7-1.6,4.5v2.6c0,1.5,0.5,2.8,1.5,3.9c1,1,2.2,1.6,3.7,1.6
			c1.8,0,3.1-0.7,4.1-2C164,118.3,164.5,116.4,164.5,114z"/>
		<path class="st0" d="M174.9,123.8H172V96.7h2.9V123.8z"/>
		<path class="st0" d="M184.3,98.9c0,0.5-0.2,1-0.6,1.4c-0.4,0.4-0.8,0.5-1.4,0.5c-0.5,0-1-0.2-1.4-0.5c-0.4-0.4-0.6-0.8-0.6-1.4
			c0-0.5,0.2-1,0.5-1.3c0.4-0.4,0.8-0.6,1.4-0.6c0.5,0,1,0.2,1.4,0.6C184.1,98,184.3,98.4,184.3,98.9z M183.8,123.8h-2.9v-18.3h2.9
			V123.8z"/>
		<path class="st0" d="M202,122.9c-1.4,0.9-3.1,1.3-5,1.3c-1.7,0-3.2-0.4-4.5-1.2c-1.3-0.8-2.4-1.9-3.1-3.3s-1.1-3-1.1-4.7
			c0-3,0.9-5.4,2.6-7.3c1.7-1.8,4-2.7,6.9-2.7c1.6,0,3,0.3,4.2,0.9v3c-1.4-1-2.8-1.4-4.4-1.4c-1.9,0-3.4,0.7-4.6,2
			c-1.2,1.4-1.8,3.1-1.8,5.2c0,2.1,0.6,3.8,1.7,5.1c1.1,1.2,2.6,1.9,4.5,1.9c1.6,0,3.1-0.5,4.5-1.6V122.9z"/>
		<path class="st0" d="M219.4,123.8h-2.9v-2.9h-0.1c-1.3,2.2-3.1,3.3-5.6,3.3c-1.8,0-3.2-0.5-4.2-1.4s-1.6-2.2-1.6-3.9
			c0-3.4,2-5.4,6-6l5.5-0.8c0-3.1-1.3-4.6-3.8-4.6c-2.2,0-4.2,0.7-6,2.2v-3c0.5-0.4,1.5-0.8,2.7-1.2c1.3-0.4,2.5-0.6,3.5-0.6
			c4.3,0,6.4,2.3,6.4,6.8V123.8z M216.4,114.5l-4.4,0.6c-1.5,0.2-2.6,0.6-3.2,1.1s-0.9,1.3-0.9,2.5c0,0.9,0.3,1.7,1,2.2
			c0.7,0.6,1.5,0.8,2.5,0.8c1.5,0,2.6-0.5,3.6-1.5c0.9-1,1.4-2.3,1.4-3.8V114.5z"/>
		<path class="st0" d="M233.4,123.6c-0.7,0.4-1.6,0.6-2.7,0.6c-3.2,0-4.8-1.8-4.8-5.4V108h-3.1v-2.5h3.1V101l2.9-0.9v5.4h4.6v2.5
			h-4.6v10.3c0,1.2,0.2,2.1,0.6,2.6c0.4,0.5,1.1,0.8,2.1,0.8c0.7,0,1.4-0.2,1.9-0.6V123.6z"/>
		<path class="st0" d="M240.7,98.9c0,0.5-0.2,1-0.6,1.4c-0.4,0.4-0.8,0.5-1.4,0.5c-0.5,0-1-0.2-1.4-0.5c-0.4-0.4-0.6-0.8-0.6-1.4
			c0-0.5,0.2-1,0.5-1.3c0.4-0.4,0.8-0.6,1.4-0.6c0.5,0,1,0.2,1.4,0.6C240.5,98,240.7,98.4,240.7,98.9z M240.2,123.8h-2.9v-18.3h2.9
			V123.8z"/>
		<path class="st0" d="M262.7,114.6c0,2.9-0.8,5.2-2.5,7c-1.6,1.8-3.9,2.7-6.6,2.7c-2.7,0-4.9-0.9-6.5-2.6c-1.6-1.7-2.4-4-2.4-6.8
			c0-3,0.8-5.4,2.5-7.2c1.7-1.8,3.9-2.6,6.8-2.6c2.7,0,4.8,0.8,6.4,2.5C262,109.3,262.7,111.6,262.7,114.6z M259.7,114.7
			c0-2.3-0.5-4.1-1.5-5.3s-2.5-1.8-4.4-1.8c-1.9,0-3.4,0.6-4.5,1.9c-1.1,1.3-1.6,3-1.6,5.3c0,2.2,0.6,3.9,1.7,5.1
			c1.1,1.2,2.6,1.8,4.5,1.8c1.9,0,3.4-0.6,4.4-1.8C259.2,118.7,259.7,116.9,259.7,114.7z"/>
		<path class="st0" d="M282.4,123.8h-2.9v-10.4c0-3.9-1.4-5.8-4.2-5.8c-1.4,0-2.6,0.5-3.6,1.6c-1,1.1-1.5,2.5-1.5,4.2v10.4h-2.9
			v-18.3h2.9v3h0.1c1.4-2.3,3.4-3.5,6-3.5c2,0,3.5,0.7,4.6,2c1.1,1.3,1.6,3.2,1.6,5.6V123.8z"/>
		<path class="st0" d="M317.4,110.7c0,2.6-0.6,4.9-1.7,6.9c-1.1,2-2.8,3.5-4.9,4.6c-2.1,1.1-4.5,1.6-7.2,1.6h-6.8V98.2h7.1
			C312.9,98.2,317.4,102.3,317.4,110.7z M314.3,110.7c0-6.6-3.5-9.8-10.4-9.8h-4v20.2h3.8c3.4,0,6-0.9,7.9-2.7
			C313.4,116.6,314.3,114,314.3,110.7z"/>
		<path class="st0" d="M336.6,115.4h-12.9c0,2.1,0.6,3.6,1.6,4.7c1,1.1,2.5,1.6,4.3,1.6c2.1,0,4-0.7,5.7-2v2.7
			c-1.6,1.2-3.7,1.8-6.4,1.8c-2.6,0-4.6-0.8-6.1-2.5c-1.5-1.7-2.2-4-2.2-7c0-1.8,0.4-3.5,1.1-5c0.7-1.5,1.7-2.6,3-3.5
			c1.3-0.8,2.7-1.2,4.3-1.2c2.4,0,4.2,0.8,5.5,2.3c1.3,1.5,2,3.7,2,6.5V115.4z M333.6,112.9c0-1.7-0.4-3-1.2-3.9
			c-0.8-0.9-1.9-1.4-3.3-1.4c-1.4,0-2.5,0.5-3.5,1.5c-1,1-1.6,2.3-1.8,3.9H333.6z"/>
		<path class="st0" d="M355.3,105.5l-7.3,18.3h-2.9l-6.9-18.3h3.2l4.6,13.3c0.2,0.7,0.5,1.6,0.6,2.6h0.1c0.1-0.9,0.3-1.7,0.6-2.5
			l4.9-13.3H355.3z"/>
		<path class="st0" d="M373,115.4h-12.9c0,2.1,0.6,3.6,1.6,4.7c1,1.1,2.5,1.6,4.3,1.6c2.1,0,4-0.7,5.7-2v2.7
			c-1.6,1.2-3.7,1.8-6.4,1.8c-2.6,0-4.6-0.8-6.1-2.5c-1.5-1.7-2.2-4-2.2-7c0-1.8,0.4-3.5,1.1-5c0.7-1.5,1.7-2.6,3-3.5
			c1.3-0.8,2.7-1.2,4.3-1.2c2.4,0,4.2,0.8,5.5,2.3s2,3.7,2,6.5V115.4z M370,112.9c0-1.7-0.4-3-1.2-3.9c-0.8-0.9-1.9-1.4-3.3-1.4
			c-1.4,0-2.5,0.5-3.5,1.5c-1,1-1.6,2.3-1.8,3.9H370z"/>
		<path class="st0" d="M380.2,123.8h-2.9V96.7h2.9V123.8z"/>
		<path class="st0" d="M402.7,114.6c0,2.9-0.8,5.2-2.5,7c-1.6,1.8-3.9,2.7-6.6,2.7c-2.7,0-4.9-0.9-6.5-2.6c-1.6-1.7-2.4-4-2.4-6.8
			c0-3,0.8-5.4,2.5-7.2c1.7-1.8,3.9-2.6,6.8-2.6c2.7,0,4.8,0.8,6.4,2.5C401.9,109.3,402.7,111.6,402.7,114.6z M399.7,114.7
			c0-2.3-0.5-4.1-1.5-5.3s-2.5-1.8-4.4-1.8c-1.9,0-3.4,0.6-4.5,1.9c-1.1,1.3-1.6,3-1.6,5.3c0,2.2,0.6,3.9,1.7,5.1
			c1.1,1.2,2.6,1.8,4.5,1.8c1.9,0,3.4-0.6,4.4-1.8C399.2,118.7,399.7,116.9,399.7,114.7z"/>
		<path class="st0" d="M424,114.1c0,3.1-0.8,5.6-2.3,7.4c-1.5,1.8-3.5,2.7-6.1,2.7c-2.4,0-4.2-1-5.5-3.1h-0.1v11h-2.9v-26.7h2.9v3.2
			h0.1c1.4-2.4,3.5-3.7,6.3-3.7c2.3,0,4.1,0.8,5.5,2.4C423.4,109.1,424,111.3,424,114.1z M421,114c0-2-0.5-3.6-1.4-4.7
			c-0.9-1.2-2.2-1.8-3.8-1.8c-1.7,0-3,0.6-4.1,1.7c-1,1.2-1.6,2.7-1.6,4.5v2.6c0,1.5,0.5,2.8,1.5,3.9c1,1,2.2,1.6,3.7,1.6
			c1.8,0,3.1-0.7,4.1-2C420.5,118.3,421,116.4,421,114z"/>
		<path class="st0" d="M454.5,123.8h-2.9v-10.5c0-2-0.3-3.5-0.9-4.4c-0.6-0.9-1.7-1.3-3.1-1.3c-1.3,0-2.3,0.6-3.2,1.7
			c-0.9,1.1-1.3,2.5-1.3,4.1v10.4h-2.9v-10.8c0-3.6-1.4-5.4-4.2-5.4c-1.3,0-2.3,0.5-3.2,1.6c-0.8,1.1-1.2,2.5-1.2,4.2v10.4h-2.9
			v-18.3h2.9v2.9h0.1c1.3-2.2,3.2-3.3,5.7-3.3c1.2,0,2.3,0.3,3.2,1c1,0.7,1.6,1.6,2,2.8c1.4-2.5,3.4-3.8,6.1-3.8c4,0,6,2.5,6,7.5
			V123.8z"/>
		<path class="st0" d="M474.6,115.4h-12.9c0,2.1,0.6,3.6,1.6,4.7c1,1.1,2.5,1.6,4.3,1.6c2.1,0,4-0.7,5.7-2v2.7
			c-1.6,1.2-3.7,1.8-6.4,1.8c-2.6,0-4.6-0.8-6.1-2.5c-1.5-1.7-2.2-4-2.2-7c0-1.8,0.4-3.5,1.1-5c0.7-1.5,1.7-2.6,3-3.5
			c1.3-0.8,2.7-1.2,4.3-1.2c2.4,0,4.2,0.8,5.5,2.3c1.3,1.5,2,3.7,2,6.5V115.4z M471.6,112.9c0-1.7-0.4-3-1.2-3.9
			c-0.8-0.9-1.9-1.4-3.3-1.4c-1.4,0-2.5,0.5-3.5,1.5c-1,1-1.6,2.3-1.8,3.9H471.6z"/>
		<path class="st0" d="M494,123.8h-2.9v-10.4c0-3.9-1.4-5.8-4.2-5.8c-1.4,0-2.6,0.5-3.6,1.6c-1,1.1-1.5,2.5-1.5,4.2v10.4h-2.9v-18.3
			h2.9v3h0.1c1.4-2.3,3.4-3.5,6-3.5c2,0,3.5,0.7,4.6,2c1.1,1.3,1.6,3.2,1.6,5.6V123.8z"/>
		<path class="st0" d="M508,123.6c-0.7,0.4-1.6,0.6-2.7,0.6c-3.2,0-4.8-1.8-4.8-5.4V108h-3.1v-2.5h3.1V101l2.9-0.9v5.4h4.6v2.5h-4.6
			v10.3c0,1.2,0.2,2.1,0.6,2.6c0.4,0.5,1.1,0.8,2.1,0.8c0.7,0,1.4-0.2,1.9-0.6V123.6z"/>
	</g>
	<g>
		<path class="st0" d="M123.5,166.3c-1.9,1-4.2,1.5-7,1.5c-2.4,0-4.5-0.5-6.3-1.6c-1.8-1.1-3.2-2.6-4.2-4.5c-1-1.9-1.5-4.2-1.5-6.7
			c0-2.6,0.6-5,1.7-7.1c1.1-2.1,2.7-3.7,4.7-4.9c2-1.2,4.2-1.7,6.7-1.7c2.4,0,4.4,0.4,6,1.1v3.2c-1.8-1-3.9-1.5-6.1-1.5
			c-1.9,0-3.6,0.4-5.1,1.3c-1.5,0.9-2.7,2.2-3.5,3.8c-0.8,1.7-1.2,3.5-1.2,5.7c0,2,0.4,3.8,1.2,5.4c0.8,1.6,1.9,2.8,3.3,3.6
			c1.4,0.8,3,1.3,4.9,1.3c2.6,0,4.8-0.6,6.6-1.7V166.3z"/>
		<path class="st0" d="M145,158.1c0,2.9-0.8,5.2-2.5,7c-1.6,1.8-3.9,2.7-6.6,2.7c-2.7,0-4.9-0.9-6.5-2.6c-1.6-1.7-2.4-4-2.4-6.8
			c0-3,0.8-5.4,2.5-7.2c1.7-1.8,3.9-2.6,6.8-2.6c2.7,0,4.8,0.8,6.4,2.5C144.2,152.9,145,155.2,145,158.1z M142,158.3
			c0-2.3-0.5-4.1-1.5-5.3c-1-1.2-2.5-1.8-4.4-1.8c-1.9,0-3.4,0.6-4.5,1.9c-1.1,1.3-1.6,3-1.6,5.3c0,2.2,0.6,3.9,1.7,5.1
			c1.1,1.2,2.6,1.8,4.5,1.8c1.9,0,3.4-0.6,4.4-1.8C141.5,162.3,142,160.5,142,158.3z"/>
		<path class="st0" d="M152.4,167.4h-2.9v-27.1h2.9V167.4z"/>
		<path class="st0" d="M161.3,167.4h-2.9v-27.1h2.9V167.4z"/>
		<path class="st0" d="M180.1,167.4h-2.9v-2.9h-0.1c-1.3,2.2-3.1,3.3-5.6,3.3c-1.8,0-3.2-0.5-4.2-1.4c-1.1-1-1.6-2.2-1.6-3.9
			c0-3.4,2-5.4,6-6l5.5-0.8c0-3.1-1.3-4.6-3.8-4.6c-2.2,0-4.2,0.7-6,2.2v-3c0.5-0.4,1.5-0.8,2.7-1.2c1.3-0.4,2.5-0.6,3.5-0.6
			c4.3,0,6.4,2.3,6.4,6.8V167.4z M177.2,158.1l-4.4,0.6c-1.5,0.2-2.6,0.6-3.2,1.1s-0.9,1.3-0.9,2.5c0,0.9,0.3,1.7,1,2.2
			c0.7,0.6,1.5,0.8,2.5,0.8c1.5,0,2.6-0.5,3.6-1.5c0.9-1,1.4-2.3,1.4-3.8V158.1z"/>
		<path class="st0" d="M202.5,157.7c0,3-0.7,5.5-2.2,7.4c-1.5,1.9-3.5,2.8-6.1,2.8c-2.4,0-4.2-1-5.5-3.1h-0.1v2.6h-2.9v-27.1h2.9v12
			h0.1c1.4-2.4,3.5-3.7,6.3-3.7c2.3,0,4.1,0.8,5.5,2.4C201.8,152.7,202.5,154.9,202.5,157.7z M199.5,157.6c0-2-0.5-3.6-1.4-4.7
			c-0.9-1.2-2.2-1.8-3.8-1.8c-1.7,0-3,0.6-4.1,1.7c-1,1.2-1.6,2.7-1.6,4.5v2.6c0,1.5,0.5,2.8,1.5,3.9c1,1,2.2,1.6,3.7,1.6
			c1.8,0,3.1-0.7,4.1-2C199,161.9,199.5,160,199.5,157.6z"/>
		<path class="st0" d="M223.6,158.1c0,2.9-0.8,5.2-2.5,7c-1.6,1.8-3.9,2.7-6.6,2.7c-2.7,0-4.9-0.9-6.5-2.6c-1.6-1.7-2.4-4-2.4-6.8
			c0-3,0.8-5.4,2.5-7.2c1.7-1.8,3.9-2.6,6.8-2.6c2.7,0,4.8,0.8,6.4,2.5C222.8,152.9,223.6,155.2,223.6,158.1z M220.6,158.3
			c0-2.3-0.5-4.1-1.5-5.3c-1-1.2-2.5-1.8-4.4-1.8c-1.9,0-3.4,0.6-4.5,1.9c-1.1,1.3-1.6,3-1.6,5.3c0,2.2,0.6,3.9,1.7,5.1
			c1.1,1.2,2.6,1.8,4.5,1.8c1.9,0,3.4-0.6,4.4-1.8C220.1,162.3,220.6,160.5,220.6,158.3z"/>
		<path class="st0" d="M237.7,152c-0.5-0.4-1.3-0.6-2.2-0.6c-1.3,0-2.3,0.6-3.2,1.8c-0.8,1.2-1.2,2.8-1.2,4.8v9.3h-2.9v-18.3h2.9
			v3.8h0.1c0.4-1.3,1-2.3,1.9-3c0.8-0.7,1.8-1.1,2.9-1.1c0.8,0,1.3,0.1,1.7,0.2V152z"/>
		<path class="st0" d="M253.8,167.4h-2.9v-2.9h-0.1c-1.3,2.2-3.1,3.3-5.6,3.3c-1.8,0-3.2-0.5-4.2-1.4c-1.1-1-1.6-2.2-1.6-3.9
			c0-3.4,2-5.4,6-6l5.5-0.8c0-3.1-1.3-4.6-3.8-4.6c-2.2,0-4.2,0.7-6,2.2v-3c0.5-0.4,1.5-0.8,2.7-1.2c1.3-0.4,2.5-0.6,3.5-0.6
			c4.3,0,6.4,2.3,6.4,6.8V167.4z M250.9,158.1l-4.4,0.6c-1.5,0.2-2.6,0.6-3.2,1.1s-0.9,1.3-0.9,2.5c0,0.9,0.3,1.7,1,2.2
			c0.7,0.6,1.5,0.8,2.5,0.8c1.5,0,2.6-0.5,3.6-1.5c0.9-1,1.4-2.3,1.4-3.8V158.1z"/>
		<path class="st0" d="M267.8,167.2c-0.7,0.4-1.6,0.6-2.7,0.6c-3.2,0-4.8-1.8-4.8-5.4v-10.8h-3.1v-2.5h3.1v-4.5l2.9-0.9v5.4h4.6v2.5
			h-4.6v10.3c0,1.2,0.2,2.1,0.6,2.6c0.4,0.5,1.1,0.8,2.1,0.8c0.7,0,1.4-0.2,1.9-0.6V167.2z"/>
		<path class="st0" d="M275.1,142.5c0,0.5-0.2,1-0.6,1.4c-0.4,0.4-0.8,0.5-1.4,0.5c-0.5,0-1-0.2-1.4-0.5c-0.4-0.4-0.6-0.8-0.6-1.4
			c0-0.5,0.2-1,0.5-1.3c0.4-0.4,0.8-0.6,1.4-0.6c0.5,0,1,0.2,1.4,0.6C274.9,141.6,275.1,142,275.1,142.5z M274.6,167.4h-2.9v-18.3
			h2.9V167.4z"/>
		<path class="st0" d="M297.1,158.1c0,2.9-0.8,5.2-2.5,7c-1.6,1.8-3.9,2.7-6.6,2.7c-2.7,0-4.9-0.9-6.5-2.6s-2.4-4-2.4-6.8
			c0-3,0.8-5.4,2.5-7.2c1.7-1.8,3.9-2.6,6.8-2.6c2.7,0,4.8,0.8,6.4,2.5C296.4,152.9,297.1,155.2,297.1,158.1z M294.1,158.3
			c0-2.3-0.5-4.1-1.5-5.3c-1-1.2-2.5-1.8-4.4-1.8c-1.9,0-3.4,0.6-4.5,1.9c-1.1,1.3-1.6,3-1.6,5.3c0,2.2,0.6,3.9,1.7,5.1
			c1.1,1.2,2.6,1.8,4.5,1.8c1.9,0,3.4-0.6,4.4-1.8C293.6,162.3,294.1,160.5,294.1,158.3z"/>
		<path class="st0" d="M316.8,167.4h-2.9v-10.4c0-3.9-1.4-5.8-4.2-5.8c-1.4,0-2.6,0.5-3.6,1.6c-1,1.1-1.5,2.5-1.5,4.2v10.4h-2.9
			v-18.3h2.9v3h0.1c1.4-2.3,3.4-3.5,6-3.5c2,0,3.5,0.7,4.6,2c1.1,1.3,1.6,3.2,1.6,5.6V167.4z"/>
		<path class="st0" d="M343.8,167.4h-2.9v-2.9h-0.1c-1.3,2.2-3.1,3.3-5.6,3.3c-1.8,0-3.2-0.5-4.2-1.4c-1.1-1-1.6-2.2-1.6-3.9
			c0-3.4,2-5.4,6-6l5.5-0.8c0-3.1-1.3-4.6-3.8-4.6c-2.2,0-4.2,0.7-6,2.2v-3c0.5-0.4,1.5-0.8,2.7-1.2c1.3-0.4,2.5-0.6,3.5-0.6
			c4.3,0,6.4,2.3,6.4,6.8V167.4z M340.9,158.1l-4.4,0.6c-1.5,0.2-2.6,0.6-3.2,1.1c-0.6,0.5-0.9,1.3-0.9,2.5c0,0.9,0.3,1.7,1,2.2
			c0.7,0.6,1.5,0.8,2.5,0.8c1.5,0,2.6-0.5,3.6-1.5c0.9-1,1.4-2.3,1.4-3.8V158.1z"/>
		<path class="st0" d="M364.5,167.4h-2.9v-10.4c0-3.9-1.4-5.8-4.2-5.8c-1.4,0-2.6,0.5-3.6,1.6c-1,1.1-1.5,2.5-1.5,4.2v10.4h-2.9
			v-18.3h2.9v3h0.1c1.4-2.3,3.4-3.5,6-3.5c2,0,3.5,0.7,4.6,2c1.1,1.3,1.6,3.2,1.6,5.6V167.4z"/>
		<path class="st0" d="M385.4,167.4h-2.9v-3.1h-0.1c-1.4,2.4-3.5,3.6-6.3,3.6c-2.3,0-4.1-0.8-5.5-2.5c-1.4-1.7-2.1-3.9-2.1-6.6
			c0-3,0.8-5.4,2.3-7.3c1.5-1.8,3.5-2.7,6.1-2.7c2.5,0,4.3,1,5.5,3h0.1v-11.3h2.9V167.4z M382.5,159.1v-2.7c0-1.5-0.5-2.8-1.5-3.8
			c-1-1-2.2-1.5-3.7-1.5c-1.8,0-3.2,0.7-4.2,2c-1,1.3-1.6,3.1-1.6,5.4c0,2.1,0.5,3.8,1.5,5c1,1.2,2.3,1.8,3.9,1.8
			c1.6,0,2.9-0.6,4-1.7S382.5,160.9,382.5,159.1z"/>
		<path class="st0" d="M417.7,166.3c-1.9,1-4.2,1.5-7.1,1.5c-2.4,0-4.5-0.5-6.3-1.6c-1.8-1.1-3.2-2.6-4.2-4.5s-1.5-4.2-1.5-6.7
			c0-2.6,0.6-5,1.7-7.1c1.1-2.1,2.7-3.7,4.7-4.9c2-1.2,4.2-1.7,6.7-1.7c2.4,0,4.4,0.4,6,1.1v3.2c-1.8-1-3.9-1.5-6.1-1.5
			c-1.9,0-3.6,0.4-5.1,1.3c-1.5,0.9-2.7,2.2-3.5,3.8c-0.8,1.7-1.2,3.5-1.2,5.7c0,2,0.4,3.8,1.2,5.4c0.8,1.6,1.9,2.8,3.3,3.6
			c1.4,0.8,3,1.3,4.9,1.3c2.6,0,4.8-0.6,6.6-1.7V166.3z"/>
		<path class="st0" d="M439.1,158.1c0,2.9-0.8,5.2-2.5,7c-1.6,1.8-3.9,2.7-6.6,2.7c-2.7,0-4.9-0.9-6.5-2.6s-2.4-4-2.4-6.8
			c0-3,0.8-5.4,2.5-7.2c1.7-1.8,3.9-2.6,6.8-2.6c2.7,0,4.8,0.8,6.4,2.5C438.3,152.9,439.1,155.2,439.1,158.1z M436.1,158.3
			c0-2.3-0.5-4.1-1.5-5.3c-1-1.2-2.5-1.8-4.4-1.8c-1.9,0-3.4,0.6-4.5,1.9c-1.1,1.3-1.6,3-1.6,5.3c0,2.2,0.6,3.9,1.7,5.1
			c1.1,1.2,2.6,1.8,4.5,1.8c1.9,0,3.4-0.6,4.4-1.8C435.6,162.3,436.1,160.5,436.1,158.3z"/>
		<path class="st0" d="M458.8,167.4h-2.9v-10.4c0-3.9-1.4-5.8-4.2-5.8c-1.4,0-2.6,0.5-3.6,1.6c-1,1.1-1.5,2.5-1.5,4.2v10.4h-2.9
			v-18.3h2.9v3h0.1c1.4-2.3,3.4-3.5,6-3.5c2,0,3.5,0.7,4.6,2c1.1,1.3,1.6,3.2,1.6,5.6V167.4z"/>
		<path class="st0" d="M472.8,167.2c-0.7,0.4-1.6,0.6-2.7,0.6c-3.2,0-4.8-1.8-4.8-5.4v-10.8h-3.1v-2.5h3.1v-4.5l2.9-0.9v5.4h4.6v2.5
			h-4.6v10.3c0,1.2,0.2,2.1,0.6,2.6c0.4,0.5,1.1,0.8,2.1,0.8c0.7,0,1.4-0.2,1.9-0.6V167.2z"/>
		<path class="st0" d="M491.3,158.9h-12.9c0,2.1,0.6,3.6,1.6,4.7c1,1.1,2.5,1.6,4.3,1.6c2.1,0,4-0.7,5.7-2v2.7
			c-1.6,1.2-3.7,1.8-6.4,1.8c-2.6,0-4.6-0.8-6.1-2.5c-1.5-1.7-2.2-4-2.2-7c0-1.8,0.4-3.5,1.1-5c0.7-1.5,1.7-2.6,3-3.5
			c1.3-0.8,2.7-1.2,4.3-1.2c2.4,0,4.2,0.8,5.5,2.3c1.3,1.5,2,3.7,2,6.5V158.9z M488.3,156.5c0-1.7-0.4-3-1.2-3.9
			c-0.8-0.9-1.9-1.4-3.3-1.4c-1.4,0-2.5,0.5-3.5,1.5c-1,1-1.6,2.3-1.8,3.9H488.3z"/>
		<path class="st0" d="M510.7,167.4h-2.9v-10.4c0-3.9-1.4-5.8-4.2-5.8c-1.4,0-2.6,0.5-3.6,1.6c-1,1.1-1.5,2.5-1.5,4.2v10.4h-2.9
			v-18.3h2.9v3h0.1c1.4-2.3,3.4-3.5,6-3.5c2,0,3.5,0.7,4.6,2c1.1,1.3,1.6,3.2,1.6,5.6V167.4z"/>
		<path class="st0" d="M524.7,167.2c-0.7,0.4-1.6,0.6-2.7,0.6c-3.2,0-4.8-1.8-4.8-5.4v-10.8H514v-2.5h3.1v-4.5l2.9-0.9v5.4h4.6v2.5
			h-4.6v10.3c0,1.2,0.2,2.1,0.6,2.6c0.4,0.5,1.1,0.8,2.1,0.8c0.7,0,1.4-0.2,1.9-0.6V167.2z"/>
	</g>
</g>
</svg>
