<?xml version="1.0" encoding="utf-8"?>
<!-- Generator: Adobe Illustrator 16.0.0, SVG Export Plug-In . SVG Version: 6.00 Build 0)  -->
<!DOCTYPE svg PUBLIC "-//W3C//DTD SVG 1.1//EN" "http://www.w3.org/Graphics/SVG/1.1/DTD/svg11.dtd">
<svg version="1.1" id="Layer_1" xmlns="http://www.w3.org/2000/svg" xmlns:xlink="http://www.w3.org/1999/xlink" x="0px" y="0px"
	 width="48px" height="48px" viewBox="0 0 48 48" enable-background="new 0 0 48 48" xml:space="preserve">
<g>
	<g>
		<path fill-rule="evenodd" clip-rule="evenodd" fill="#74060E" d="M24.006,13.445c0.473-0.643,0.92-1.22,1.326-1.822
			c0.244-0.362,0.535-0.509,0.975-0.501c1.986,0.036,3.265,1.134,3.477,3.109c0.078,0.722,0.004,1.463-0.029,2.193
			c-0.02,0.431-0.338,0.504-0.7,0.503c-1.699-0.004-3.398,0-5.099,0c-1.654,0-3.307,0-4.957-0.003
			c-0.607-0.001-0.759-0.144-0.756-0.738c0.002-0.747-0.039-1.502,0.05-2.24c0.222-1.861,1.903-3.096,3.756-2.792
			c0.198,0.033,0.411,0.213,0.542,0.382C23.064,12.134,23.504,12.758,24.006,13.445z M28.782,15.903c0-0.509,0.001-0.975,0-1.439
			c-0.013-1.382-0.836-2.264-2.211-2.32c-0.191-0.009-0.457,0.113-0.575,0.265c-0.512,0.648-0.979,1.333-1.469,1.997
			c-0.36,0.489-0.664,0.489-1.027,0.001c-0.496-0.663-0.97-1.341-1.475-1.993c-0.109-0.14-0.314-0.278-0.482-0.287
			c-1.129-0.056-2.15,0.751-2.281,1.854c-0.075,0.625-0.011,1.267-0.011,1.924C22.428,15.903,25.572,15.903,28.782,15.903z"/>
		<path fill-rule="evenodd" clip-rule="evenodd" fill="#74060E" d="M39.251,35.127c0.448-0.618,0.897-1.193,1.3-1.801
			c0.262-0.399,0.59-0.547,1.056-0.533c2.133,0.06,3.428,1.411,3.394,3.557c-0.013,0.546-0.008,1.092,0,1.637
			c0,0.407-0.184,0.603-0.597,0.603c-3.444-0.002-6.892-0.002-10.338,0c-0.333,0.001-0.573-0.146-0.575-0.478
			c-0.004-0.886-0.063-1.788,0.074-2.656c0.276-1.764,1.895-2.892,3.659-2.631c0.216,0.032,0.46,0.201,0.6,0.377
			C38.307,33.811,38.754,34.45,39.251,35.127z M34.5,37.588c3.195,0,6.335,0,9.504,0c0-0.556,0.014-1.081-0.004-1.606
			c-0.041-1.278-0.929-2.161-2.203-2.169c-0.191-0.001-0.447,0.126-0.563,0.277c-0.513,0.647-0.979,1.329-1.468,1.993
			c-0.359,0.484-0.67,0.483-1.033-0.004c-0.504-0.675-0.99-1.36-1.499-2.032c-0.083-0.109-0.228-0.224-0.354-0.24
			c-1.086-0.146-2.23,0.695-2.363,1.795C34.434,36.244,34.5,36.903,34.5,37.588z"/>
		<path fill-rule="evenodd" clip-rule="evenodd" fill="#74060E" d="M8.773,35.123c0.465-0.642,0.924-1.23,1.338-1.85
			c0.248-0.372,0.566-0.476,0.988-0.482c2.33-0.032,3.573,1.828,3.441,3.621c-0.041,0.513-0.008,1.029-0.007,1.545
			c0,0.416-0.185,0.633-0.622,0.632c-3.432-0.004-6.861-0.004-10.295,0c-0.373,0-0.602-0.143-0.605-0.541
			c0-0.765-0.038-1.532,0.019-2.292c0.137-1.88,1.876-3.239,3.737-2.928c0.214,0.036,0.448,0.215,0.59,0.393
			C7.841,33.828,8.287,34.465,8.773,35.123z M13.518,37.592c0-0.555,0.008-1.066-0.001-1.58c-0.017-1.273-0.894-2.156-2.167-2.218
			c-0.279-0.013-0.457,0.063-0.62,0.296c-0.47,0.679-0.96,1.344-1.452,2.007c-0.346,0.467-0.657,0.467-1.002,0.005
			c-0.506-0.674-0.983-1.364-1.506-2.026c-0.111-0.142-0.348-0.264-0.525-0.268c-1.115-0.023-2.046,0.713-2.208,1.815
			c-0.091,0.634-0.014,1.294-0.014,1.969C7.18,37.592,10.319,37.592,13.518,37.592z"/>
		<path fill-rule="evenodd" clip-rule="evenodd" fill="#74060E" d="M23.996,43.876c-2.89-0.027-5.613-0.708-8.164-2.065
			c-0.109-0.059-0.221-0.118-0.324-0.184c-0.26-0.158-0.39-0.37-0.221-0.665c0.172-0.305,0.418-0.321,0.717-0.182
			c0.789,0.369,1.559,0.791,2.376,1.082c4.47,1.594,8.843,1.314,13.094-0.795c0.084-0.042,0.163-0.095,0.249-0.13
			c0.283-0.113,0.537-0.064,0.674,0.221c0.143,0.283,0.055,0.534-0.24,0.656c-1.131,0.468-2.255,0.979-3.414,1.369
			C27.209,43.697,25.609,43.86,23.996,43.876z"/>
		<path fill-rule="evenodd" clip-rule="evenodd" fill="#74060E" d="M39.254,25.818c1.696-0.006,3.125,1.387,3.1,3.087
			c-0.023,1.437-0.586,2.638-1.771,3.492c-0.861,0.62-1.807,0.65-2.652,0.015c-1.352-1.016-1.979-2.397-1.732-4.085
			C36.407,26.867,37.733,25.825,39.254,25.818z M41.35,28.96c-0.03-1.195-0.891-2.141-2-2.182c-1.084-0.041-2.154,0.832-2.223,1.862
			c-0.079,1.165,0.352,2.14,1.249,2.887c0.569,0.476,1.222,0.464,1.784-0.032C40.916,30.826,41.335,29.981,41.35,28.96z"/>
		<path fill-rule="evenodd" clip-rule="evenodd" fill="#74060E" d="M8.757,25.82c1.707-0.007,3.216,1.393,3.146,3.096
			c-0.054,1.451-0.626,2.726-1.913,3.562c-0.779,0.506-1.583,0.502-2.381,0.043c-1.358-0.775-2.229-2.799-1.87-4.317
			C6.076,26.787,7.293,25.825,8.757,25.82z M10.897,29.133c0.01-1.313-0.935-2.331-2.048-2.355
			c-1.172-0.027-2.205,0.914-2.213,2.072c-0.005,1.086,0.42,2.004,1.277,2.69c0.553,0.445,1.17,0.447,1.713-0.002
			C10.42,30.876,10.826,30.006,10.897,29.133z"/>
		<path fill-rule="evenodd" clip-rule="evenodd" fill="#74060E" d="M24.017,4.125c1.953,0.014,3.405,1.786,3.05,3.752
			c-0.213,1.194-0.76,2.203-1.799,2.896c-0.791,0.528-1.607,0.53-2.424,0.07c-1.4-0.787-2.273-2.935-1.828-4.468
			C21.4,5.046,22.643,4.116,24.017,4.125z M26.132,7.465c-0.005-1.344-0.909-2.313-2.025-2.356c-1.13-0.045-2.187,0.847-2.229,1.954
			c-0.042,1.142,0.4,2.103,1.299,2.818c0.563,0.446,1.162,0.429,1.71-0.035C25.673,9.176,26.076,8.307,26.132,7.465z"/>
		<path fill-rule="evenodd" clip-rule="evenodd" fill="#74060E" d="M40.807,22.963c-0.134,0.105-0.299,0.334-0.487,0.352
			c-0.157,0.014-0.431-0.177-0.493-0.339c-0.278-0.74-0.454-1.522-0.748-2.257c-1.494-3.717-4.033-6.507-7.545-8.419
			c-0.111-0.061-0.271-0.09-0.32-0.18c-0.099-0.185-0.246-0.472-0.172-0.589c0.098-0.156,0.381-0.213,0.6-0.268
			c0.08-0.02,0.194,0.085,0.291,0.136c4.529,2.459,7.459,6.173,8.777,11.157C40.733,22.647,40.754,22.738,40.807,22.963z"/>
		<path fill-rule="evenodd" clip-rule="evenodd" fill="#74060E" d="M7.598,23.613c-0.328-0.092-0.502-0.311-0.381-0.685
			c0.377-1.136,0.667-2.31,1.159-3.395c1.51-3.351,3.905-5.936,7.079-7.795c0.093-0.056,0.193-0.102,0.284-0.159
			c0.3-0.188,0.599-0.241,0.806,0.11c0.212,0.36-0.015,0.554-0.307,0.744c-0.811,0.524-1.648,1.02-2.395,1.624
			c-2.905,2.356-4.787,5.372-5.653,9.012C8.117,23.379,8.039,23.656,7.598,23.613z"/>
	</g>
</g>
</svg>
