<?xml version="1.0" encoding="utf-8"?>
<!-- Generator: Adobe Illustrator 16.0.0, SVG Export Plug-In . SVG Version: 6.00 Build 0)  -->
<!DOCTYPE svg PUBLIC "-//W3C//DTD SVG 1.1//EN" "http://www.w3.org/Graphics/SVG/1.1/DTD/svg11.dtd">
<svg version="1.1" id="Layer_1" xmlns="http://www.w3.org/2000/svg" xmlns:xlink="http://www.w3.org/1999/xlink" x="0px" y="0px"
	 width="48px" height="48px" viewBox="0 0 48 48" enable-background="new 0 0 48 48" xml:space="preserve">
<g>
	<g>
		<path fill-rule="evenodd" clip-rule="evenodd" fill="#74060E" d="M32.293,3c0.67,0.111,1.338,0.234,2.009,0.332
			c2.226,0.317,4.455,0.62,6.685,0.938c0.698,0.1,0.854,0.308,0.729,0.981c-0.36,1.958-0.729,3.913-1.092,5.87
			c-1.261,0-2.509,0-3.81,0c0-0.692,0.009-1.328-0.005-1.964c-0.01-0.518,0.019-1.048-0.084-1.548c-0.238-1.169-1.278-1.984-2.475-2
			c-0.87-0.01-1.745-0.002-2.619-0.002c-0.149,0-0.296,0-0.508,0c0.114-0.758,0.203-1.471,0.339-2.174
			C31.492,3.273,31.682,3.144,31.8,3C31.965,3,32.129,3,32.293,3z"/>
		<path fill-rule="evenodd" clip-rule="evenodd" fill="#74060E" d="M34.672,45c-0.166-0.05-0.332-0.104-0.5-0.148
			c-1.87-0.504-3.138-2.321-2.906-4.17c0.255-2.03,1.853-3.514,3.816-3.545c1.979-0.03,3.641,1.379,3.945,3.345
			c0.314,2.051-1.033,3.999-3.067,4.425c-0.103,0.021-0.203,0.062-0.304,0.094C35.328,45,34.999,45,34.672,45z M35.163,39.084
			c-1.093,0-1.979,0.885-1.977,1.979c0,1.096,0.886,1.979,1.979,1.978c1.096-0.004,1.972-0.88,1.975-1.979
			C37.142,39.967,36.257,39.082,35.163,39.084z"/>
		<path fill-rule="evenodd" clip-rule="evenodd" fill="#74060E" d="M18.347,45c-0.287-0.08-0.579-0.146-0.861-0.246
			c-1.795-0.622-2.862-2.438-2.567-4.35c0.28-1.81,1.927-3.234,3.771-3.268c1.917-0.032,3.561,1.291,3.928,3.167
			c0.422,2.145-0.962,4.194-3.102,4.609c-0.092,0.019-0.177,0.058-0.267,0.087C18.95,45,18.648,45,18.347,45z M20.75,41.076
			c0.007-1.107-0.856-1.989-1.952-1.994c-1.092-0.004-1.989,0.877-1.999,1.963c-0.011,1.084,0.885,1.99,1.969,1.995
			C19.875,43.045,20.747,42.182,20.75,41.076z"/>
		<path fill-rule="evenodd" clip-rule="evenodd" fill="#74060E" d="M11.686,9.551c-1.496,0-2.971,0-4.443,0
			c-0.139,0-0.278,0.008-0.411-0.011C6.327,9.471,5.96,9.043,5.972,8.551C5.986,8.059,6.375,7.617,6.88,7.612
			c1.888-0.015,3.772-0.014,5.659,0c0.515,0.005,0.833,0.339,0.945,0.913c0.228,1.164,0.465,2.327,0.663,3.498
			c0.067,0.383,0.183,0.542,0.608,0.549c3.102,0.053,6.202,0.133,9.306,0.208c5.642,0.134,11.287,0.267,16.929,0.403
			c0.739,0.018,1.146,0.53,1.012,1.255c-0.861,4.628-1.721,9.257-2.578,13.887c-0.111,0.59-0.446,0.894-1.035,0.913
			c-6.527,0.194-13.059,0.388-19.586,0.579c-0.379,0.011-0.757,0-1.194,0c0.174,0.918,0.324,1.748,0.511,2.568
			c0.018,0.077,0.259,0.149,0.394,0.15c2.72,0.009,5.44,0.007,8.16,0.007c2.79,0,5.578-0.014,8.367,0.004
			c2.313,0.014,4.368,0.736,6.089,2.326c0.31,0.288,0.502,0.62,0.401,1.053c-0.178,0.75-1.067,0.992-1.647,0.436
			c-0.971-0.925-2.111-1.504-3.42-1.736c-0.467-0.084-0.949-0.13-1.423-0.13c-5.796-0.009-11.59-0.007-17.39-0.005
			c-0.872,0-1.151-0.213-1.315-1.062c-0.835-4.286-1.661-8.574-2.489-12.86c-0.691-3.578-1.381-7.155-2.075-10.734
			C11.756,9.756,11.726,9.679,11.686,9.551z M14.638,14.493c0.238,1.23,0.468,2.411,0.696,3.589c2.541,0,5.034,0,7.576,0
			c-0.071-1.133-0.14-2.246-0.212-3.397C20.005,14.621,17.348,14.558,14.638,14.493z M23.982,14.713
			c0.075,1.166,0.143,2.264,0.213,3.371c2.474,0,4.899,0,7.364,0c0.066-1.061,0.135-2.1,0.201-3.181
			C29.152,14.84,26.603,14.776,23.982,14.713z M15.592,19.42c0.204,1.046,0.417,2.056,0.592,3.076
			c0.051,0.292,0.151,0.374,0.444,0.374c2.087-0.014,4.177-0.007,6.265-0.009c0.089,0,0.182-0.019,0.306-0.032
			c-0.068-1.146-0.138-2.271-0.207-3.409C20.513,19.42,18.076,19.42,15.592,19.42z M31.474,19.424c-2.421,0-4.789,0-7.199,0
			c0.072,1.154,0.137,2.277,0.206,3.412c2.276,0,4.51,0,6.762,0C31.319,21.694,31.395,20.578,31.474,19.424z M23.278,24.176
			c-2.28,0-4.503,0-6.766,0c0.221,1.141,0.455,2.246,0.646,3.36c0.057,0.338,0.19,0.408,0.508,0.396
			c1.815-0.065,3.633-0.113,5.449-0.168c0.114-0.003,0.227-0.028,0.37-0.048C23.416,26.518,23.348,25.362,23.278,24.176z
			 M31.156,24.185c-2.231,0-4.399,0-6.599,0c0.073,1.187,0.142,2.336,0.213,3.525c2.068-0.064,4.084-0.126,6.158-0.189
			C31.006,26.404,31.08,25.308,31.156,24.185z M39.113,19.415c-2.146,0-4.232,0-6.362,0c-0.073,1.151-0.146,2.286-0.221,3.446
			c1.952,0,3.839,0.004,5.721-0.008c0.091-0.002,0.245-0.132,0.265-0.223C38.723,21.575,38.912,20.516,39.113,19.415z
			 M32.845,18.084c2.21,0,4.351,0,6.519,0c0.186-0.992,0.363-1.964,0.538-2.923c-0.07-0.038-0.095-0.06-0.118-0.06
			c-2.174-0.055-4.346-0.107-6.519-0.147c-0.078-0.003-0.218,0.123-0.228,0.2C32.963,16.118,32.907,17.084,32.845,18.084z
			 M32.22,27.393c0.058,0.041,0.068,0.057,0.079,0.057c1.701-0.04,3.405-0.072,5.109-0.134c0.104-0.003,0.265-0.203,0.296-0.333
			c0.142-0.651,0.252-1.313,0.372-1.969c0.053-0.271,0.097-0.547,0.146-0.827c-1.961,0-3.86,0-5.783,0
			C32.363,25.276,32.293,26.336,32.22,27.393z"/>
		<path fill-rule="evenodd" clip-rule="evenodd" fill="#74060E" d="M26.324,10.838c-3.281-0.077-6.568-0.154-9.917-0.234
			c0-1.738,0.641-3.14,2.015-4.182c1.631-1.241,3.869-1.325,5.617-0.236C25.631,7.177,26.632,9.198,26.324,10.838z"/>
		<path fill-rule="evenodd" clip-rule="evenodd" fill="#74060E" d="M34.824,11.044c-2.183-0.053-4.295-0.104-6.325-0.155
			c-0.193-1.123-0.374-2.186-0.565-3.271c0.014,0,0.115-0.014,0.216-0.014c1.944,0,3.882,0,5.82,0.002
			c0.659,0,0.854,0.195,0.854,0.854c0,0.723,0,1.447,0,2.172C34.824,10.759,34.824,10.889,34.824,11.044z"/>
	</g>
</g>
</svg>
