<?xml version="1.0" encoding="utf-8"?>
<!-- Generator: Adobe Illustrator 16.0.0, SVG Export Plug-In . SVG Version: 6.00 Build 0)  -->
<!DOCTYPE svg PUBLIC "-//W3C//DTD SVG 1.1//EN" "http://www.w3.org/Graphics/SVG/1.1/DTD/svg11.dtd">
<svg version="1.1" id="Layer_1" xmlns="http://www.w3.org/2000/svg" xmlns:xlink="http://www.w3.org/1999/xlink" x="0px" y="0px"
	 width="48px" height="48px" viewBox="0 0 48 48" enable-background="new 0 0 48 48" xml:space="preserve">
<g>
	<g>
		<path fill-rule="evenodd" clip-rule="evenodd" fill="#74060E" d="M10.5,5.999c0-0.476-0.003-0.895,0.001-1.313
			c0.009-1.096,0.587-1.683,1.68-1.683C18.287,3,24.398,3.001,30.506,3.001C33.24,3.001,35.974,3,38.709,3
			C39.948,3,40.5,3.557,40.5,4.806c0,11.827,0,23.653,0,35.48c0,1.114-0.592,1.714-1.699,1.715c-0.419,0-0.836,0-1.3,0
			c0,0.456,0,0.872,0,1.29c0,1.11-0.597,1.709-1.704,1.709c-7.859,0-15.717-0.001-23.576-0.001c-1.032,0-2.061,0.004-3.092-0.002
			c-1.021-0.005-1.625-0.617-1.625-1.641C7.5,31.53,7.5,19.703,7.5,7.877c0-1.354,0.519-1.874,1.86-1.878
			C9.721,5.999,10.077,5.999,10.5,5.999z M29.997,7.535c-7.028,0-14,0-20.959,0c0,12.004,0,23.975,0,35.938
			c8.997,0,17.958,0,26.933,0c0-9.996,0-19.967,0-29.971c-1.413,0-2.802,0-4.19,0c-1.217-0.002-1.78-0.562-1.783-1.771
			C29.997,10.345,29.997,8.955,29.997,7.535z M12.024,6.002c0.296,0,0.557,0,0.821,0c6.076,0,12.154-0.004,18.228,0.013
			c0.245,0,0.548,0.128,0.724,0.3c1.793,1.764,3.56,3.553,5.347,5.322c0.252,0.248,0.362,0.493,0.362,0.852
			c-0.009,9.076-0.005,18.152-0.005,27.229c0,0.246,0,0.49,0,0.752c0.518,0,0.988,0,1.464,0c0-11.999,0-23.971,0-35.945
			c-8.994,0-17.955,0-26.94,0C12.024,5.009,12.024,5.471,12.024,6.002z M31.532,8.251c0,1.247,0,2.485,0,3.711
			c1.269,0,2.5,0,3.717,0C34.009,10.72,32.776,9.492,31.532,8.251z"/>
		<path fill-rule="evenodd" clip-rule="evenodd" fill="#74060E" d="M22.511,22.5c-2.668,0-5.336,0-8.004-0.001
			c-0.156,0-0.318,0.004-0.465-0.036c-0.367-0.099-0.604-0.469-0.531-0.828c0.091-0.424,0.37-0.634,0.804-0.634
			c1.403,0,2.812,0,4.217,0c3.979,0,7.958,0,11.942,0c0.075,0,0.155-0.004,0.231,0c0.478,0.022,0.792,0.323,0.792,0.747
			c0,0.426-0.314,0.743-0.788,0.747c-1.345,0.012-2.686,0.005-4.026,0.007C25.292,22.502,23.902,22.502,22.511,22.5z"/>
		<path fill-rule="evenodd" clip-rule="evenodd" fill="#74060E" d="M22.448,27.002c-2.638,0-5.274,0-7.913,0
			c-0.092,0-0.187,0.002-0.279-0.004c-0.445-0.033-0.749-0.333-0.755-0.741c-0.005-0.424,0.313-0.751,0.782-0.755
			c1.249-0.01,2.5-0.004,3.748-0.004c4.134,0,8.273,0.002,12.411,0.002c0.09,0,0.187-0.003,0.278,0.001
			c0.468,0.025,0.785,0.337,0.776,0.763c-0.008,0.407-0.312,0.715-0.76,0.731c-0.437,0.017-0.873,0.007-1.312,0.007
			C27.102,27.002,24.775,27.002,22.448,27.002z"/>
		<path fill-rule="evenodd" clip-rule="evenodd" fill="#74060E" d="M22.451,31.5c-2.668,0-5.339-0.003-8.007,0.002
			c-0.351,0.001-0.654-0.059-0.843-0.386c-0.3-0.526,0.07-1.11,0.728-1.114c1.623-0.009,3.247-0.004,4.871-0.004
			c3.744,0,7.492,0,11.239,0c0.092,0,0.187-0.004,0.281,0.003c0.468,0.027,0.785,0.337,0.776,0.762
			c-0.008,0.42-0.328,0.727-0.805,0.735c-0.638,0.011-1.279,0.003-1.917,0.003C26.665,31.501,24.559,31.501,22.451,31.5L22.451,31.5
			z"/>
		<path fill-rule="evenodd" clip-rule="evenodd" fill="#74060E" d="M22.55,34.499c2.592,0,5.185,0,7.774,0
			c0.075,0,0.155,0,0.233,0.001c0.596,0.004,0.935,0.271,0.939,0.739c0.004,0.468-0.341,0.758-0.922,0.759
			c-1.981,0.003-3.967,0-5.949,0C21.287,36,17.947,36,14.607,36c-0.097,0-0.188,0.002-0.283-0.002
			c-0.504-0.018-0.831-0.322-0.823-0.764c0.01-0.427,0.323-0.725,0.807-0.731c0.734-0.012,1.468-0.006,2.202-0.006
			c2.012,0,4.027,0,6.04,0V34.499z"/>
		<path fill-rule="evenodd" clip-rule="evenodd" fill="#74060E" d="M17.952,18.002c-1.169,0-2.341,0-3.509-0.002
			c-0.593,0-0.933-0.271-0.942-0.74c-0.008-0.474,0.331-0.758,0.919-0.758c2.37-0.003,4.741-0.004,7.112-0.003
			c0.624,0,0.975,0.285,0.968,0.765c-0.011,0.475-0.36,0.738-0.993,0.738C20.324,18.002,19.137,18.002,17.952,18.002z"/>
	</g>
</g>
</svg>
