<?xml version="1.0" encoding="utf-8"?>
<!-- Generator: Adobe Illustrator 16.0.0, SVG Export Plug-In . SVG Version: 6.00 Build 0)  -->
<!DOCTYPE svg PUBLIC "-//W3C//DTD SVG 1.1//EN" "http://www.w3.org/Graphics/SVG/1.1/DTD/svg11.dtd">
<svg version="1.1" id="Layer_1" xmlns="http://www.w3.org/2000/svg" xmlns:xlink="http://www.w3.org/1999/xlink" x="0px" y="0px"
	 width="48px" height="48px" viewBox="0 0 48 48" enable-background="new 0 0 48 48" xml:space="preserve">
<g>
	<g>
		<path fill-rule="evenodd" clip-rule="evenodd" fill="#74060E" d="M3.014,39.714c0-1.44,0-2.786,0-4.132
			c0-9.067,0.003-18.133-0.014-27.201c0-0.457,0.141-0.665,0.563-0.838c2.481-1.016,4.991-1.907,7.643-2.37
			c3.549-0.618,7.004-0.214,10.409,0.851c0.802,0.25,1.59,0.749,2.384,0.749c0.791,0,1.585-0.486,2.379-0.75
			c5.482-1.822,10.856-1.339,16.153,0.764c0.651,0.258,1.286,0.549,1.947,0.773C44.872,7.694,45.004,7.885,45,8.311
			c-0.015,6.687-0.013,13.373-0.013,20.06c0,3.569,0,7.141,0,10.711c0,0.189,0,0.38,0,0.643c-1.107-0.447-2.157-0.87-3.206-1.295
			c-2.146-0.869-4.338-1.568-6.648-1.85c-2.717-0.332-5.333,0.152-7.898,0.996c-0.928,0.305-1.84,0.663-2.744,1.032
			c-0.332,0.134-0.604,0.149-0.941,0.01c-2.05-0.857-4.147-1.567-6.354-1.937c-2.979-0.496-5.86-0.063-8.673,0.911
			c-1.65,0.571-3.261,1.258-4.89,1.891C3.46,39.552,3.282,39.614,3.014,39.714z M43.31,37.178c0-0.219,0-0.41,0-0.603
			c-0.003-8.821-0.003-17.641-0.003-26.462c0-1.226,0-1.228-1.151-1.669c-2.758-1.06-5.58-1.84-8.556-1.884
			c-2.768-0.041-5.433,0.529-7.992,1.521C24.5,8.509,23.506,8.69,22.445,8.078c-0.192-0.112-0.423-0.159-0.639-0.229
			c-2.748-0.896-5.541-1.456-8.457-1.234C10.545,6.827,7.901,7.648,5.3,8.652C4.844,8.828,4.682,9.05,4.682,9.555
			c0.018,9.014,0.014,18.026,0.014,27.041c0,0.185,0,0.37,0,0.632c0.469-0.186,0.852-0.342,1.234-0.493
			c2.716-1.068,5.492-1.886,8.437-1.936c3.044-0.052,5.927,0.71,8.717,1.841c0.674,0.271,1.214,0.251,1.873-0.02
			c4.673-1.92,9.447-2.485,14.336-0.861C40.617,36.198,41.925,36.687,43.31,37.178z"/>
		<path fill-rule="evenodd" clip-rule="evenodd" fill="#74060E" d="M14.521,38.593c2.891-0.036,5.869,0.75,8.758,1.924
			c0.534,0.217,0.96,0.196,1.48-0.015c2.707-1.097,5.497-1.869,8.439-1.9c3.171-0.033,6.146,0.853,9.058,2.009
			c0.665,0.264,1.326,0.537,1.99,0.809c0.647,0.268,0.894,0.704,0.669,1.201c-0.212,0.487-0.659,0.599-1.297,0.366
			c-1.933-0.703-3.849-1.482-5.819-2.072c-3.878-1.16-7.68-0.627-11.409,0.758c-0.623,0.231-1.25,0.452-1.854,0.728
			c-0.387,0.176-0.709,0.147-1.093-0.013c-2.064-0.869-4.183-1.569-6.41-1.92c-2.889-0.457-5.684-0.023-8.416,0.9
			c-1.392,0.471-2.741,1.041-4.114,1.566c-0.147,0.056-0.29,0.13-0.44,0.16c-0.455,0.089-0.799-0.07-0.979-0.502
			c-0.172-0.408,0.013-0.844,0.421-1.064C6.226,40.061,11.282,38.684,14.521,38.593z"/>
		<path fill-rule="evenodd" clip-rule="evenodd" fill="#74060E" d="M14.678,19.462c1.734,0.227,3.454,0.436,5.16,0.682
			c0.619,0.09,0.906,0.497,0.812,1.005c-0.097,0.505-0.497,0.744-1.124,0.633c-2.211-0.395-4.428-0.674-6.673-0.423
			c-1.022,0.114-2.042,0.279-3.061,0.427c-0.615,0.089-1.035-0.146-1.136-0.64c-0.094-0.484,0.219-0.915,0.828-1.003
			C11.212,19.897,12.942,19.688,14.678,19.462z"/>
		<path fill-rule="evenodd" clip-rule="evenodd" fill="#74060E" d="M19.973,15.692c-1.211-0.166-2.211-0.32-3.216-0.439
			c-2.297-0.271-4.569-0.039-6.832,0.359c-0.324,0.057-0.73-0.028-1.013-0.193c-0.169-0.101-0.295-0.535-0.218-0.729
			c0.105-0.267,0.395-0.59,0.655-0.645c2.317-0.491,4.664-0.738,7.033-0.517c1.179,0.111,2.352,0.308,3.524,0.49
			c0.536,0.085,0.816,0.487,0.746,0.963C20.586,15.427,20.239,15.7,19.973,15.692z"/>
		<path fill-rule="evenodd" clip-rule="evenodd" fill="#74060E" d="M14.674,25.606c1.742,0.228,3.475,0.443,5.202,0.687
			c0.569,0.08,0.86,0.49,0.773,0.982c-0.087,0.51-0.521,0.779-1.111,0.662c-1.91-0.375-3.835-0.625-5.781-0.487
			c-1.306,0.092-2.602,0.295-3.898,0.476c-0.644,0.09-1.079-0.109-1.194-0.624c-0.11-0.505,0.215-0.929,0.858-1.019
			C11.232,26.043,12.943,25.83,14.674,25.606z"/>
		<path fill-rule="evenodd" clip-rule="evenodd" fill="#74060E" d="M33.37,25.606c1.736,0.228,3.447,0.44,5.157,0.682
			c0.611,0.086,0.898,0.481,0.805,1.005c-0.089,0.504-0.521,0.759-1.124,0.641c-1.912-0.374-3.838-0.624-5.783-0.483
			c-1.32,0.097-2.633,0.313-3.948,0.491c-0.412,0.057-0.828,0.032-0.989-0.374c-0.106-0.266-0.072-0.644,0.038-0.918
			c0.068-0.172,0.376-0.319,0.598-0.35C29.866,26.053,31.614,25.834,33.37,25.606z"/>
		<path fill-rule="evenodd" clip-rule="evenodd" fill="#74060E" d="M33.394,13.331c1.713,0.223,3.424,0.436,5.132,0.674
			c0.606,0.086,0.902,0.489,0.811,1.008c-0.09,0.5-0.519,0.715-1.128,0.65c-1.787-0.187-3.575-0.461-5.363-0.481
			c-1.42-0.016-2.84,0.304-4.263,0.451c-0.282,0.029-0.656,0.053-0.842-0.099c-0.215-0.177-0.414-0.587-0.35-0.827
			c0.068-0.271,0.412-0.617,0.681-0.662c1.413-0.237,2.836-0.396,4.259-0.563c0.343-0.041,0.697-0.006,1.046-0.006
			C33.384,13.426,33.386,13.379,33.394,13.331z"/>
		<path fill-rule="evenodd" clip-rule="evenodd" fill="#74060E" d="M33.35,19.465c1.717,0.22,3.416,0.424,5.106,0.66
			c0.667,0.093,0.964,0.478,0.882,1.007c-0.084,0.521-0.492,0.761-1.161,0.642c-2.174-0.386-4.357-0.662-6.567-0.42
			c-1.044,0.114-2.076,0.279-3.114,0.428c-0.626,0.09-1.039-0.128-1.146-0.619c-0.104-0.505,0.216-0.939,0.854-1.029
			C29.915,19.891,31.629,19.686,33.35,19.465z"/>
	</g>
</g>
<rect fill-rule="evenodd" clip-rule="evenodd" fill="none" width="48" height="48"/>
</svg>
