<?xml version="1.0" encoding="utf-8"?>
<!-- Generator: Adobe Illustrator 16.0.0, SVG Export Plug-In . SVG Version: 6.00 Build 0)  -->
<!DOCTYPE svg PUBLIC "-//W3C//DTD SVG 1.1//EN" "http://www.w3.org/Graphics/SVG/1.1/DTD/svg11.dtd">
<svg version="1.1" id="Layer_1" xmlns="http://www.w3.org/2000/svg" xmlns:xlink="http://www.w3.org/1999/xlink" x="0px" y="0px"
	 width="48px" height="48px" viewBox="0 0 48 48" enable-background="new 0 0 48 48" xml:space="preserve">
<g>
	<g>
		<path fill-rule="evenodd" clip-rule="evenodd" fill="#74060E" d="M32.117,45c-0.37-0.081-0.745-0.15-1.11-0.243
			c-3.177-0.812-5.422-3.818-5.239-7.009c0.199-3.466,2.663-6.198,6.011-6.67c4.323-0.607,8.159,2.897,7.95,7.268
			c-0.16,3.349-2.755,6.159-6.069,6.571c-0.103,0.014-0.207,0.055-0.311,0.083C32.938,45,32.526,45,32.117,45z M31.861,36.669
			c0,0.41-0.045,0.825,0.014,1.226c0.043,0.289,0.16,0.612,0.35,0.826c0.483,0.553,1.027,1.057,1.55,1.572
			c0.441,0.434,0.959,0.459,1.34,0.078c0.384-0.381,0.359-0.9-0.071-1.34c-0.391-0.4-0.804-0.779-1.181-1.193
			c-0.12-0.136-0.213-0.35-0.221-0.532c-0.024-0.64,0.003-1.283-0.014-1.924c-0.015-0.545-0.402-0.907-0.912-0.894
			c-0.486,0.016-0.842,0.39-0.854,0.911C31.854,35.822,31.861,36.246,31.861,36.669z"/>
		<path fill-rule="evenodd" clip-rule="evenodd" fill="#74060E" d="M24.488,3c0.21,0.055,0.42,0.111,0.629,0.167
			c2.105,0.556,3.482,2.599,3.209,4.764c-0.278,2.169-2.147,3.805-4.352,3.803c-2.164,0-4.035-1.653-4.307-3.804
			c-0.291-2.308,1.279-4.44,3.569-4.844C23.331,3.069,23.416,3.029,23.504,3C23.832,3,24.16,3,24.488,3z"/>
		<path fill-rule="evenodd" clip-rule="evenodd" fill="#74060E" d="M23.956,20.477c-1.885,0-3.77,0-5.655,0
			c-1.406-0.001-2.127-0.766-2.176-2.183c-0.066-2.052,0.818-3.485,2.671-4.33c0.616-0.283,1.244-0.563,1.889-0.771
			c3.294-1.055,6.391-0.513,9.302,1.25c1.235,0.747,1.822,1.918,1.872,3.357c0.007,0.19,0.003,0.381,0.003,0.572
			c-0.004,1.296-0.8,2.101-2.088,2.103C27.834,20.478,25.894,20.477,23.956,20.477z"/>
		<path fill-rule="evenodd" clip-rule="evenodd" fill="#74060E" d="M10.89,43.183c-0.584,0-1.116,0.004-1.646,0
			c-0.591-0.005-0.983-0.355-0.98-0.866c0.002-0.511,0.387-0.841,0.991-0.844c0.971-0.003,1.939,0.009,2.912-0.008
			c0.691-0.012,1.23-0.479,1.329-1.109c0.104-0.637-0.249-1.259-0.86-1.458c-0.242-0.078-0.511-0.06-0.769-0.086
			c-0.431-0.043-0.88-0.03-1.293-0.142c-1.309-0.352-2.167-1.516-2.188-2.883c-0.02-1.325,0.823-2.502,2.096-2.919
			c0.118-0.038,0.234-0.073,0.404-0.127c0-0.255-0.006-0.522,0.003-0.792c0.01-0.561,0.369-0.938,0.877-0.93
			c0.487,0.01,0.818,0.372,0.832,0.918c0.021,0.837,0.021,0.837,0.85,0.837c0.286,0,0.572-0.006,0.859-0.001
			c0.556,0.012,0.909,0.338,0.913,0.836c0.004,0.514-0.357,0.87-0.924,0.877c-0.898,0.009-1.801-0.004-2.703,0.004
			c-0.793,0.005-1.353,0.363-1.548,0.974c-0.267,0.836,0.318,1.669,1.23,1.731c0.27,0.018,0.546,0.004,0.818,0.008
			c1.569,0.021,2.761,1.091,3.007,2.697c0.203,1.344-0.695,2.773-2.069,3.208c-0.354,0.112-0.495,0.269-0.438,0.628
			c0.018,0.119,0.009,0.244,0,0.367c-0.024,0.467-0.354,0.798-0.808,0.814c-0.467,0.018-0.854-0.303-0.892-0.771
			C10.867,43.849,10.89,43.548,10.89,43.183z"/>
		<path fill-rule="evenodd" clip-rule="evenodd" fill="#74060E" d="M23.115,25.455c0-0.766-0.005-1.529,0.003-2.295
			c0.004-0.37,0.156-0.709,0.522-0.797c0.261-0.064,0.632-0.05,0.832,0.098c0.198,0.147,0.334,0.5,0.341,0.766
			c0.036,1.38,0.028,2.76,0.008,4.14c-0.007,0.394,0.083,0.648,0.449,0.859c0.623,0.363,1.211,0.79,1.81,1.192
			c0.451,0.303,0.584,0.792,0.335,1.202c-0.263,0.429-0.783,0.537-1.251,0.242c-0.623-0.394-1.243-0.791-1.849-1.207
			c-0.231-0.159-0.376-0.156-0.595,0.034c-1.704,1.493-3.42,2.977-5.146,4.444c-0.207,0.173-0.498,0.31-0.76,0.333
			c-0.35,0.033-0.627-0.196-0.745-0.535c-0.131-0.38-0.047-0.724,0.272-0.996c1.018-0.869,2.031-1.741,3.049-2.613
			c0.818-0.702,1.632-1.41,2.459-2.103c0.198-0.164,0.275-0.336,0.271-0.593C23.104,26.903,23.114,26.179,23.115,25.455
			L23.115,25.455z"/>
	</g>
</g>
</svg>
