<?xml version="1.0" encoding="utf-8"?>
<!-- Generator: Adobe Illustrator 16.0.0, SVG Export Plug-In . SVG Version: 6.00 Build 0)  -->
<!DOCTYPE svg PUBLIC "-//W3C//DTD SVG 1.1//EN" "http://www.w3.org/Graphics/SVG/1.1/DTD/svg11.dtd">
<svg version="1.1" id="Layer_1" xmlns="http://www.w3.org/2000/svg" xmlns:xlink="http://www.w3.org/1999/xlink" x="0px" y="0px"
	 width="48px" height="48px" viewBox="0 0 48 48" enable-background="new 0 0 48 48" xml:space="preserve">
<g>
	<g>
		<path fill-rule="evenodd" clip-rule="evenodd" fill="#74060E" d="M21.332,11.229c0.082-0.134,0.146-0.287,0.254-0.396
			c1.779-1.786,3.562-3.565,5.347-5.345c0.506-0.505,0.816-0.505,1.323-0.002c4.886,4.883,9.771,9.768,14.666,14.643
			c0.229,0.23,0.524,0.421,0.823,0.554c1,0.446,1.469,1.443,1.162,2.566c-1.605,5.898-3.211,11.794-4.817,17.693
			c-0.007,0.027-0.019,0.054-0.027,0.079c-0.355,1.331-1.035,1.866-2.397,1.866c-6.031,0.005-12.062,0.003-18.089,0.003
			c-4.686,0-9.372,0.002-14.059-0.005c-0.35,0-0.715-0.016-1.048-0.111c-0.893-0.251-1.444-1.02-1.446-1.969
			c-0.008-3.324-0.021-6.651-0.021-9.977c-0.004-5.012,0-10.023,0.008-15.032c0-0.282,0.02-0.572,0.1-0.839
			c0.265-0.889,1.024-1.418,2.025-1.44c0.438-0.011,0.879,0.01,1.314-0.016c0.492-0.028,0.746-0.303,0.757-0.792
			c0.012-0.451-0.005-0.905,0.004-1.358c0.019-1.121,0.909-2.033,2.026-2.036c3.313-0.008,6.627-0.005,9.938,0.003
			c0.817,0,1.547,0.541,1.845,1.33c0.059,0.154,0.102,0.315,0.15,0.475C21.224,11.156,21.277,11.192,21.332,11.229z M26.523,21.854
			c-1.554,0-3.114-0.003-4.669,0c-3.862,0-7.728,0-11.589,0c-0.575,0.003-0.832,0.169-0.96,0.644
			c-1.638,5.99-3.272,11.981-4.903,17.973c-0.174,0.646,0.104,1.025,0.763,1.068c0.154,0.011,0.311,0.005,0.466,0.005
			c4.699,0,9.398,0,14.098,0c5.958,0,11.918,0.004,17.875,0c0.81,0,0.969-0.119,1.173-0.868c1.607-5.896,3.214-11.792,4.818-17.691
			c0.205-0.753-0.098-1.13-0.892-1.13C37.312,21.854,31.916,21.854,26.523,21.854z M18.709,20.504
			c0.158-0.593,0.368-0.815,0.776-0.731c0.213,0.047,0.438,0.198,0.587,0.364c0.271,0.292,0.561,0.405,0.965,0.4
			c1.613-0.026,3.225-0.011,4.839-0.011c0.146,0,0.294,0,0.567,0c-0.203-0.215-0.312-0.338-0.427-0.451
			c-1.02-1.022-2.043-2.038-3.06-3.066c-0.427-0.431-0.293-1.046,0.233-1.169c0.328-0.077,0.564,0.071,0.789,0.297
			c1.358,1.365,2.725,2.719,4.078,4.087c0.217,0.221,0.436,0.308,0.743,0.308c4.031-0.01,8.063-0.005,12.098-0.008
			c0.12,0,0.241-0.015,0.308-0.02c-4.542-4.559-9.094-9.119-13.588-13.629c-4.514,4.527-9.066,9.096-13.583,13.629
			C15.519,20.504,17.101,20.504,18.709,20.504z M4.365,35.103c0.03,0.008,0.062,0.015,0.093,0.025
			c0.038-0.115,0.08-0.229,0.11-0.344c0.316-1.158,0.631-2.314,0.945-3.474c0.816-2.994,1.631-5.99,2.452-8.984
			c0.35-1.282,1.039-1.803,2.354-1.8c0.409,0,0.821,0.021,1.228-0.013c0.194-0.016,0.42-0.095,0.553-0.226
			c2.514-2.489,5.016-4.988,7.51-7.499c0.126-0.123,0.199-0.333,0.224-0.513c0.036-0.264,0.022-0.538,0.01-0.805
			c-0.027-0.546-0.315-0.828-0.867-0.828c-3.194-0.005-6.394-0.003-9.593,0c-0.546,0.003-0.832,0.292-0.841,0.844
			c-0.01,0.438,0,0.876-0.007,1.314C8.518,13.86,7.779,14.7,6.731,14.814c-0.447,0.05-0.902,0.044-1.354,0.046
			c-0.842,0.011-1.026,0.189-1.026,1.021C4.349,22.178,4.349,28.474,4.349,34.77C4.349,34.882,4.357,34.992,4.365,35.103z"/>
		<path fill-rule="evenodd" clip-rule="evenodd" fill="#74060E" d="M30.235,14.746c0.227,0.125,0.408,0.185,0.531,0.303
			c0.975,0.96,1.943,1.929,2.902,2.906c0.282,0.285,0.278,0.7,0.031,0.954c-0.275,0.282-0.659,0.287-0.976-0.026
			c-0.978-0.958-1.955-1.917-2.896-2.912c-0.154-0.163-0.204-0.532-0.137-0.764C29.737,15.022,30.034,14.905,30.235,14.746z"/>
	</g>
</g>
</svg>
