<?xml version="1.0" encoding="utf-8"?>
<!-- Generator: Adobe Illustrator 16.0.0, SVG Export Plug-In . SVG Version: 6.00 Build 0)  -->
<!DOCTYPE svg PUBLIC "-//W3C//DTD SVG 1.1//EN" "http://www.w3.org/Graphics/SVG/1.1/DTD/svg11.dtd">
<svg version="1.1" id="Layer_1" xmlns="http://www.w3.org/2000/svg" xmlns:xlink="http://www.w3.org/1999/xlink" x="0px" y="0px"
	 width="78px" height="32px" viewBox="0 0 78 32" enable-background="new 0 0 78 32" xml:space="preserve">
<g opacity="0.9">
	<path fill-rule="evenodd" clip-rule="evenodd" fill="#FFFFFF" d="M55.695,31.999c-5.629-0.195-10.488-0.359-15.346-0.547
		c-0.867-0.031-1.74-0.117-2.598-0.254c-2.59-0.41-4.414-2.098-4.91-4.664c-0.303-1.563-0.578-3.16-0.633-4.75
		c-0.166-4.828-0.336-9.664,0.277-14.48c0.104-0.809,0.252-1.613,0.459-2.398c0.648-2.449,2.508-4.109,5.029-4.297
		c3.838-0.277,7.684-0.59,11.529-0.605c6.375-0.027,12.752,0.156,19.131,0.289c1.261,0.027,2.535,0.133,3.771,0.363
		c2.407,0.449,4.049,1.918,4.556,4.297c0.447,2.105,0.76,4.277,0.785,6.422c0.051,4.156-0.125,8.312-0.252,12.468
		c-0.028,0.863-0.213,1.73-0.396,2.574c-0.635,2.934-2.646,4.703-5.663,4.859C65.938,31.565,60.438,31.784,55.695,31.999z
		 M55.93,5.687c0,6.844,0,13.601,0,20.382c0.926,0,1.801,0,2.688,0c0.023-0.422,0.039-0.773,0.063-1.25
		c0.264,0.238,0.441,0.398,0.617,0.559c0.887,0.805,1.895,1.273,3.077,0.816c1.121-0.426,1.49-1.43,1.5-2.516
		c0.035-3.477,0.032-6.957-0.01-10.437c-0.014-1.02-0.397-1.957-1.438-2.379c-1.104-0.445-2.087-0.098-2.97,0.625
		c-0.242,0.199-0.473,0.418-0.84,0.742c0-2.305,0-4.402,0-6.543C57.699,5.687,56.844,5.687,55.93,5.687z M53.439,26.097
		c0-5.086,0-10.128,0-15.156c-0.945,0-1.826,0-2.75,0c0,1.613,0,3.156,0,4.699c-0.002,2.164,0.006,4.328-0.006,6.492
		c-0.006,0.742-1.045,1.781-1.713,1.676c-0.93-0.148-0.637-0.938-0.641-1.496c-0.023-3.484-0.012-6.968-0.012-10.453
		c0-0.301,0-0.602,0-0.93c-0.98,0-1.857,0-2.775,0c-0.018,0.219-0.041,0.383-0.041,0.547c-0.004,3.906-0.006,7.812,0.006,11.718
		c0,0.531,0.049,1.07,0.141,1.594c0.191,1.113,1.01,1.766,2.115,1.535c0.686-0.141,1.33-0.539,1.961-0.883
		c0.324-0.176,0.576-0.484,0.996-0.848c0,0.609,0,1.039,0,1.504C51.668,26.097,52.529,26.097,53.439,26.097z M74.533,19.003
		c-0.08-1.746-0.063-3.378-0.256-4.984c-0.189-1.566-1.095-2.684-2.66-3.16c-2.764-0.84-5.271,0.836-5.399,3.75
		c-0.118,2.578-0.118,5.175,0.022,7.753c0.05,0.914,0.485,1.93,1.045,2.668c1.093,1.434,3.427,1.742,5.086,0.887
		c1.65-0.848,2.456-2.895,1.972-5.012c-0.907,0-1.814,0-2.77,0c0,0.551,0.025,1.027-0.005,1.504c-0.05,0.734-0.325,1.32-1.163,1.41
		c-0.702,0.07-1.302-0.344-1.375-1.188c-0.106-1.18-0.026-2.379-0.026-3.629C70.812,19.003,72.577,19.003,74.533,19.003z
		 M45.063,8.55c0-1.059,0-1.973,0-2.84c-3.234,0-6.393,0-9.547,0c0,0.965,0,1.855,0,2.836c1.063,0,2.088,0,3.199,0
		c0,5.891,0,11.691,0,17.542c1.055,0,2.02,0,3.082,0c0-5.848,0-11.648,0-17.539C42.943,8.55,43.996,8.55,45.063,8.55z"/>
	<path fill-rule="evenodd" clip-rule="evenodd" fill="#FFFFFF" d="M7.262,26.038c-1.098,0-2.07,0-3.125,0
		c0-1.383-0.09-2.734,0.016-4.063c0.293-3.645-0.543-7.07-1.779-10.441c-0.73-1.996-1.391-4.02-2.129-6.172
		c1.059,0,2.027-0.031,2.986,0.031c0.176,0.012,0.398,0.41,0.469,0.664c0.602,2.133,1.17,4.27,1.75,6.41
		c0.066,0.234,0.148,0.473,0.285,0.918C6.359,11.003,6.934,8.828,7.5,6.648c0.336-1.289,0.328-1.293,1.691-1.293
		c0.531,0,1.063,0,1.727,0c-0.084,0.359-0.135,0.648-0.219,0.926C9.668,9.714,8.611,13.14,7.605,16.582
		c-0.207,0.714-0.313,1.48-0.328,2.226C7.238,21.194,7.262,23.573,7.262,26.038z"/>
	<path fill-rule="evenodd" clip-rule="evenodd" fill="#FFFFFF" d="M29.547,26.05c-0.932,0-1.795,0-2.73,0
		c-0.027-0.465-0.051-0.898-0.086-1.457c-0.297,0.254-0.494,0.484-0.746,0.629c-0.646,0.367-1.285,0.848-1.988,1.004
		c-1.365,0.301-2.145-0.336-2.324-1.723c-0.086-0.668-0.131-1.344-0.133-2.016c-0.014-3.652,0.014-7.308-0.023-10.96
		c-0.006-0.711,0.211-0.945,0.904-0.887c0.607,0.047,1.223,0.012,1.936,0.012c0,0.391,0,0.695,0,0.996
		c0,3.512-0.01,7.023,0.012,10.539c0.004,0.586-0.283,1.402,0.688,1.531c0.736,0.102,1.711-0.922,1.715-1.742
		c0.01-1.883,0.004-3.766,0.004-5.648c0-1.605,0.037-3.207-0.018-4.805c-0.023-0.727,0.232-0.938,0.914-0.883
		c0.607,0.047,1.221,0.012,1.877,0.012C29.547,15.816,29.547,20.894,29.547,26.05z"/>
	<path fill-rule="evenodd" clip-rule="evenodd" fill="#FFFFFF" d="M10.912,18.397c0.096-1.593,0.061-3.21,0.32-4.781
		c0.334-2.02,1.959-3.207,3.967-3.16c2.025,0.047,3.729,1.281,3.854,3.293c0.189,3.102,0.203,6.234-0.016,9.328
		c-0.148,2.113-2.002,3.328-4.148,3.215c-2.158-0.113-3.662-1.578-3.811-3.844c-0.09-1.348-0.016-2.699-0.016-4.047
		C11.012,18.397,10.961,18.397,10.912,18.397z M16.453,18.401c0-1.117,0.016-2.242-0.01-3.359c-0.01-0.418-0.01-0.902-0.221-1.223
		c-0.227-0.348-0.695-0.75-1.049-0.742c-0.396,0.012-0.932,0.375-1.131,0.738c-0.236,0.434-0.24,1.027-0.248,1.551
		c-0.025,2.019-0.023,4.039-0.002,6.054c0.008,0.5,0,1.066,0.227,1.473c0.207,0.371,0.721,0.781,1.104,0.781
		c0.379,0.004,0.861-0.414,1.109-0.773c0.213-0.309,0.201-0.801,0.213-1.219C16.469,20.589,16.453,19.495,16.453,18.401z"/>
	<path fill-rule="evenodd" clip-rule="evenodd" fill="#FFFFFF" d="M58.646,18.483c0-1.348,0.029-2.699-0.012-4.046
		c-0.025-0.828,0.498-1.063,1.127-1.199c0.711-0.152,1.273,0.223,1.289,0.871c0.07,2.917,0.074,5.835,0.02,8.753
		c-0.016,0.633-0.547,1.078-1.26,0.926c-0.646-0.137-1.213-0.375-1.178-1.258C58.688,21.187,58.646,19.831,58.646,18.483z"/>
	<path fill-rule="evenodd" clip-rule="evenodd" fill="#FFFFFF" d="M71.694,16.64c-1.013,0-1.844,0-2.833,0
		c0.074-0.879,0.099-1.711,0.235-2.523c0.098-0.586,0.537-0.898,1.153-0.91c0.655-0.012,1.121,0.305,1.231,0.926
		C71.617,14.917,71.623,15.734,71.694,16.64z"/>
</g>
</svg>
