<?xml version="1.0" encoding="utf-8"?>
<!-- Generator: Adobe Illustrator 16.0.0, SVG Export Plug-In . SVG Version: 6.00 Build 0)  -->
<!DOCTYPE svg PUBLIC "-//W3C//DTD SVG 1.1//EN" "http://www.w3.org/Graphics/SVG/1.1/DTD/svg11.dtd">
<svg version="1.1" id="Layer_1" xmlns="http://www.w3.org/2000/svg" xmlns:xlink="http://www.w3.org/1999/xlink" x="0px" y="0px"
	 width="32px" height="32px" viewBox="0 0 32 32" enable-background="new 0 0 32 32" xml:space="preserve">
<path opacity="0.9" fill-rule="evenodd" clip-rule="evenodd" fill="#FFFFFF" d="M30.759,0.001H1.241
	c-0.686,0-1.239,0.557-1.239,1.24v29.518c0,0.686,0.554,1.24,1.239,1.24h29.518c0.684,0,1.239-0.555,1.239-1.24V1.241
	C31.998,0.558,31.442,0.001,30.759,0.001z M9.112,5.958c1.08,0.006,1.966,0.885,1.976,1.963c0.009,1.08-0.859,1.98-1.936,2.004
	C8.049,9.952,7.128,9.065,7.119,7.96C7.108,6.854,8.007,5.952,9.112,5.958z M11.096,24.417c0,0.344-0.131,0.41-0.437,0.406
	c-1.014-0.016-2.024-0.025-3.036,0.004c-0.415,0.012-0.519-0.123-0.515-0.521c0.018-2.148,0.011-4.299,0.011-6.445
	c0-2.107,0.011-4.215-0.011-6.322c-0.005-0.457,0.073-0.656,0.595-0.631c0.968,0.045,1.941,0.021,2.912,0.008
	c0.318-0.006,0.481,0.037,0.481,0.424C11.084,15.698,11.086,20.058,11.096,24.417z M24.494,24.825
	c-0.992-0.021-1.985-0.027-2.975,0.002c-0.415,0.012-0.516-0.125-0.513-0.523c0.017-2.48,0.017-4.959,0.005-7.439
	c-0.006-1.297-0.725-1.982-2.018-1.973c-1.229,0.01-1.936,0.684-1.943,1.912c-0.016,2.461-0.021,4.92,0.008,7.379
	c0.006,0.514-0.121,0.672-0.646,0.648c-0.948-0.047-1.9-0.027-2.852-0.006c-0.365,0.008-0.497-0.074-0.497-0.475
	c0.015-4.32,0.015-8.639,0.002-12.957c-0.002-0.395,0.119-0.49,0.489-0.48c0.993,0.023,1.986,0.025,2.978,0
	c0.402-0.012,0.558,0.098,0.52,0.512c-0.035,0.348-0.009,0.703-0.009,1.053c0.469-0.943,1.251-1.314,2.204-1.461
	c0.782-0.119,1.556-0.131,2.342-0.002c1.475,0.238,2.408,1.098,2.888,2.479c0.352,1.006,0.474,2.057,0.485,3.109
	c0.031,2.584,0.008,5.168,0.031,7.752C24.998,24.757,24.855,24.831,24.494,24.825z"/>
</svg>
