<?xml version="1.0" encoding="utf-8"?>
<!-- Generator: Adobe Illustrator 16.0.0, SVG Export Plug-In . SVG Version: 6.00 Build 0)  -->
<!DOCTYPE svg PUBLIC "-//W3C//DTD SVG 1.1//EN" "http://www.w3.org/Graphics/SVG/1.1/DTD/svg11.dtd">
<svg version="1.1" id="Layer_1" xmlns="http://www.w3.org/2000/svg" xmlns:xlink="http://www.w3.org/1999/xlink" x="0px" y="0px"
	 width="32px" height="32px" viewBox="0 0 32 32" enable-background="new 0 0 32 32" xml:space="preserve">
<g opacity="0.9">
	<path fill-rule="evenodd" clip-rule="evenodd" fill="#FFFFFF" d="M32,4.751c0,7.5,0,14.998,0,22.498
		c-0.02,0.047-0.047,0.094-0.057,0.141c-0.459,2.305-1.848,3.762-4.064,4.459c-0.205,0.064-0.42,0.102-0.629,0.15
		c-2.084,0-4.166,0-6.25,0c-0.01-0.07-0.029-0.141-0.029-0.215c0-3.863,0.002-7.727-0.006-11.59c0-0.234,0.072-0.303,0.303-0.301
		c1.553,0.008,3.105,0.004,4.656,0.004c0.121,0,0.242,0,0.361,0c0-1.795,0-3.547,0-5.334c-1.781,0-3.535,0-5.283,0
		c0-0.834-0.041-1.637,0.012-2.432c0.047-0.717,0.561-1.121,1.281-1.121c1.219,0,2.438,0,3.656,0c0.111,0,0.223,0,0.342,0
		c0-1.793,0-3.545,0-5.313c-0.08-0.004-0.141-0.01-0.201-0.01c-1.375-0.002-2.75-0.012-4.125,0.008
		c-0.391,0.006-0.791,0.057-1.172,0.154c-1.842,0.477-3.1,1.674-3.973,3.316c-0.654,1.234-0.867,2.568-0.826,3.953
		c0.016,0.477,0.002,0.953,0.002,1.463c-1.311,0-2.586,0-3.873,0c0,1.785,0,3.539,0,5.324c1.303,0,2.578,0,3.875,0
		c0,4.053,0,8.072,0,12.092c-3.75,0-7.5,0-11.25,0c-0.059-0.02-0.113-0.051-0.174-0.059c-2.563-0.402-4.574-2.754-4.574-5.348
		C0,19.53,0,12.472,0.003,5.413c0-0.281,0.02-0.563,0.061-0.84c0.354-2.492,2.74-4.57,5.254-4.57c7.123-0.004,14.245-0.002,21.368,0
		c0.166,0,0.334-0.004,0.498,0.016c2.211,0.291,4.068,1.918,4.654,4.072C31.898,4.308,31.945,4.53,32,4.751z"/>
</g>
</svg>
