<?xml version="1.0" encoding="utf-8"?>
<!-- Generator: Adobe Illustrator 22.0.0, SVG Export Plug-In . SVG Version: 6.00 Build 0)  -->
<svg version="1.1" id="Layer_1" xmlns="http://www.w3.org/2000/svg" xmlns:xlink="http://www.w3.org/1999/xlink" x="0px" y="0px"
	 viewBox="0 0 64 64" style="enable-background:new 0 0 64 64;" xml:space="preserve">
<style type="text/css">
	.st0{fill:none;}
	.st1{fill:#FFFFFF;}
</style>
<rect class="st0" width="64" height="64"/>
<g>
	<path class="st1" d="M32,23.4c4.6,0,9.2,0,13.9,0c0.4,0,0.5,0.1,0.5,0.5c0,6.7,0,13.5,0,20.2c0,2-1.4,3.5-3.5,3.5
		c-0.6,0-1.2,0-1.8,0c-0.4,0-0.5,0.1-0.5,0.5c0,2.2,0,4.4,0,6.7c0,1.6-1,2.8-2.6,3.1c-1.9,0.4-3.8-1-3.8-3c0-2.3,0-4.5,0-6.8
		c0-0.4-0.1-0.5-0.5-0.5c-1.2,0-2.3,0-3.5,0c-0.3,0-0.4,0.1-0.4,0.4c0,2.2,0,4.4,0,6.7c0,1.7-1.2,3.1-2.8,3.2
		c-1.7,0.1-3.2-0.9-3.5-2.6c0-0.2,0-0.5,0-0.7c0-2.2,0-4.4,0-6.5c0-0.3-0.1-0.4-0.4-0.4c-0.9,0-1.8,0.1-2.7-0.1
		c-1.6-0.3-2.7-1.7-2.7-3.3c0-6.8,0-13.6,0-20.4c0-0.4,0.1-0.4,0.4-0.4C22.7,23.4,27.4,23.4,32,23.4z"/>
	<path class="st1" d="M32,22.3c-4.6,0-9.3,0-13.9,0c-0.4,0-0.5-0.1-0.5-0.5c0.3-4.9,2.9-8.5,7.1-10.9c0.2-0.1,0.3-0.2,0.1-0.5
		c-0.7-1.2-1.3-2.3-1.9-3.5c0-0.1-0.1-0.2-0.1-0.3c-0.1-0.3-0.1-0.5,0.2-0.6c0.3-0.1,0.5,0,0.6,0.2C23.7,6.6,23.8,7,24,7.3
		c0.5,0.9,1,1.8,1.5,2.7c0.1,0.2,0.2,0.3,0.5,0.2c4-1.6,7.9-1.6,11.9,0c0.3,0.1,0.4,0.1,0.5-0.2c0.6-1.2,1.3-2.3,1.9-3.5
		c0-0.1,0.1-0.2,0.1-0.3c0.1-0.2,0.3-0.3,0.6-0.2c0.3,0.1,0.3,0.4,0.2,0.6C41.2,7,41,7.2,40.9,7.5c-0.5,1-1.1,2-1.6,2.9
		c-0.2,0.3-0.1,0.4,0.2,0.5c3.5,2,5.9,4.9,6.8,8.9c0.2,0.7,0.2,1.4,0.2,2.1c0,0.3-0.1,0.4-0.4,0.4c-2.7,0-5.5,0-8.2,0
		C35.9,22.3,33.9,22.3,32,22.3z M37.4,15.8c0,0.7,0.5,1.2,1.2,1.2c0.6,0,1.2-0.5,1.2-1.2c0-0.7-0.5-1.3-1.2-1.3
		C37.9,14.6,37.4,15.2,37.4,15.8z M26.6,15.9c0-0.7-0.5-1.2-1.2-1.2c-0.7,0-1.2,0.5-1.2,1.2c0,0.7,0.5,1.3,1.2,1.3
		C26.1,17.1,26.6,16.5,26.6,15.9z"/>
	<path class="st1" d="M47.6,32.8c0-2.3,0-4.5,0-6.8c0-1.7,1.2-3,2.9-3.2c1.7-0.1,3.2,0.9,3.5,2.6c0,0.2,0,0.3,0,0.5
		c0,4.5,0,9.1,0,13.6c0,1.3-0.7,2.3-1.8,2.8c-1.2,0.6-2.3,0.4-3.4-0.4c-0.8-0.6-1.2-1.4-1.2-2.4C47.6,37.3,47.6,35,47.6,32.8
		C47.6,32.8,47.6,32.8,47.6,32.8z"/>
	<path class="st1" d="M16.4,32.8c0,2.2,0,4.4,0,6.7c0,1.7-1.2,3.1-2.8,3.2c-1.7,0.2-3.2-0.9-3.5-2.6c0-0.2,0-0.3,0-0.5
		c0-4.5,0-9.1,0-13.6c0-1.2,0.6-2.2,1.7-2.7c1.1-0.6,2.2-0.5,3.2,0.1c1,0.6,1.5,1.5,1.5,2.7C16.4,28.3,16.4,30.5,16.4,32.8z"/>
</g>
</svg>
