<?xml version="1.0" encoding="utf-8"?>
<!-- Generator: Adobe Illustrator 22.0.0, SVG Export Plug-In . SVG Version: 6.00 Build 0)  -->
<svg version="1.1" id="Layer_1" xmlns="http://www.w3.org/2000/svg" xmlns:xlink="http://www.w3.org/1999/xlink" x="0px" y="0px"
	 viewBox="0 0 64 64" style="enable-background:new 0 0 64 64;" xml:space="preserve">
<style type="text/css">
	.st0{fill:none;}
	.st1{fill:#FFFFFF;}
</style>
<g>
	<rect class="st0" width="64" height="64"/>
	<g>
		<path class="st1" d="M50.8,42.8c-0.8,2.4-1.9,4.7-3.3,6.8c-0.8,1.1-1.5,2.2-2.5,3.1c-1,1-2,1.8-3.4,2.1c-1,0.2-2,0.1-3-0.2
			c-0.9-0.3-1.7-0.6-2.6-0.9c-2.4-0.9-4.7-0.6-7.1,0.3c-0.9,0.4-1.7,0.7-2.7,0.9c-1.5,0.3-2.8-0.1-4-1c-1-0.7-1.8-1.6-2.5-2.5
			c-2.8-3.4-4.7-7.3-5.7-11.6c-0.5-2.2-0.8-4.5-0.7-6.7c0.1-2.9,0.8-5.6,2.5-8c1.8-2.7,4.3-4.3,7.5-4.8c1.5-0.3,3-0.1,4.4,0.4
			c1.1,0.4,2.2,0.8,3.3,1.2c0.9,0.3,1.8,0.3,2.7,0c1.3-0.5,2.6-0.9,3.9-1.3c1-0.3,2.1-0.6,3.2-0.5c2.9,0.1,5.5,1,7.6,3.1
			c0.3,0.3,0.5,0.6,0.8,0.9c0.2,0.2,0.3,0.4,0.5,0.7c-3.5,2.2-5.2,5.3-5,9.4C44.9,38.2,47.1,41,50.8,42.8z"/>
		<path class="st1" d="M41.2,9c0.2,1.7-0.1,3.3-0.8,4.9c-0.8,1.8-2.1,3.4-3.7,4.5c-1.3,0.9-2.8,1.4-4.5,1.3c-0.1,0-0.2,0-0.2,0
			c0-0.6-0.1-1.2,0-1.8c0.6-3.9,2.8-6.5,6.4-8.1C39.1,9.3,40,9.1,40.9,9C41,9,41.1,9,41.2,9z"/>
	</g>
</g>
</svg>
