<?xml version="1.0" encoding="utf-8"?>
<!-- Generator: Adobe Illustrator 16.0.0, SVG Export Plug-In . SVG Version: 6.00 Build 0)  -->
<!DOCTYPE svg PUBLIC "-//W3C//DTD SVG 1.1//EN" "http://www.w3.org/Graphics/SVG/1.1/DTD/svg11.dtd">
<svg version="1.1" id="Layer_1" xmlns="http://www.w3.org/2000/svg" xmlns:xlink="http://www.w3.org/1999/xlink" x="0px" y="0px"
	 width="64px" height="64px" viewBox="0 0 64 64" enable-background="new 0 0 64 64" xml:space="preserve">
<g>
	<g>
		<path fill-rule="evenodd" clip-rule="evenodd" fill="#FFFFFF" d="M-185.659,52.929c0-0.403,0-0.751,0-1.1
			c0-13.457,0.002-26.914-0.008-40.373c0-0.328,0.095-0.451,0.406-0.502c1.624-0.268,3.245-0.548,4.866-0.828
			c1.884-0.325,3.769-0.655,5.654-0.985c2.193-0.381,4.387-0.767,6.581-1.144c2.79-0.482,5.582-0.953,8.372-1.435
			c1.61-0.277,3.218-0.566,4.828-0.849c0.119-0.021,0.241-0.015,0.391-0.023c0,17.528,0,35.028,0,52.618
			C-164.928,56.516-175.281,54.726-185.659,52.929z M-168.257,25.692c0.532-0.033,1.001-0.07,1.471-0.09
			c1.199-0.051,2.398-0.102,3.598-0.139c0.242-0.006,0.333-0.075,0.331-0.33c-0.012-1.034-0.002-2.068-0.003-3.102
			c0-0.074-0.015-0.151-0.028-0.264c-0.136,0-0.256-0.006-0.376,0.001c-1.107,0.067-2.215,0.142-3.322,0.206
			c-1.31,0.076-2.621,0.141-3.931,0.219c-1.375,0.08-2.751,0.169-4.126,0.253c-0.806,0.05-1.611,0.099-2.417,0.144
			c-0.18,0.01-0.291,0.056-0.289,0.273c0.009,0.979,0.008,1.957,0.003,2.935c-0.001,0.202,0.087,0.243,0.269,0.235
			c0.863-0.04,1.728-0.084,2.591-0.103c0.838-0.016,1.676-0.001,2.538-0.001c0,0.051,0,0.161,0,0.272
			c0,4.88,0.004,9.757-0.005,14.635c-0.001,0.294,0.091,0.405,0.376,0.405c0.302,0,0.604,0.026,0.906,0.042
			c0.792,0.04,1.583,0.081,2.415,0.121C-168.257,36.144-168.257,30.923-168.257,25.692z"/>
		<path fill-rule="evenodd" clip-rule="evenodd" fill="#FFFFFF" d="M-152.676,37.802c-0.001-3.396,0.004-6.789-0.009-10.186
			c-0.001-0.328,0.095-0.408,0.415-0.406c2.708,0.013,5.417,0.013,8.126,0c0.304,0,0.401,0.072,0.4,0.391
			c-0.01,5.439-0.001,10.881-0.01,16.321c-0.003,2.115-1.226,3.643-3.34,4.345c-1.75,0.583-3.544,0.609-5.339,0.148
			c-0.235-0.061-0.247-0.201-0.247-0.396C-152.675,44.614-152.676,41.206-152.676,37.802z"/>
		<path fill-rule="evenodd" clip-rule="evenodd" fill="#FFFFFF" d="M-141.859,30.24c0.188,0,0.354,0,0.52,0
			c2.877-0.001,5.754,0.004,8.633-0.011c0.312-0.001,0.367,0.098,0.366,0.382c-0.009,2.835-0.041,5.669,0.005,8.499
			c0.043,2.646-1.25,4.018-3.513,4.855c-1.136,0.423-2.33,0.548-3.538,0.553c-0.817,0.003-1.634,0-2.474,0
			C-141.859,39.756-141.859,35.028-141.859,30.24z"/>
		<path fill-rule="evenodd" clip-rule="evenodd" fill="#FFFFFF" d="M-137.155,27.106c-2.478,0.071-4.685-2.066-4.743-4.616
			c-0.059-2.571,2.059-4.958,4.956-4.857c2.426,0.083,4.628,2.188,4.535,4.931C-132.495,25.056-134.654,27.178-137.155,27.106z"/>
		<path fill-rule="evenodd" clip-rule="evenodd" fill="#FFFFFF" d="M-152.678,19.364c0-1.134,0.006-2.27-0.005-3.403
			c-0.002-0.202,0.064-0.326,0.227-0.441c2.71-1.93,6.666-0.598,7.406,2.921c0.549,2.615-1.17,5.112-3.787,5.607
			c-1.307,0.247-2.512-0.048-3.605-0.805c-0.172-0.12-0.242-0.257-0.241-0.475C-152.671,21.634-152.678,20.5-152.678,19.364z"/>
	</g>
	<rect x="-191" fill-rule="evenodd" clip-rule="evenodd" fill="none" width="64" height="64"/>
</g>
<g>
	<g>
		<path fill-rule="evenodd" clip-rule="evenodd" fill="#FFFFFF" d="M38.408,52.191c0-12.895,0-25.706,0-38.579
			c-0.26,0.046-0.492,0.073-0.719,0.128c-5.938,1.419-11.873,2.847-17.813,4.253c-0.427,0.102-0.473,0.316-0.473,0.682
			c0.008,8.355,0.001,16.711,0.018,25.066c0.001,0.457-0.145,0.641-0.551,0.797c-2.875,1.104-5.737,2.234-8.605,3.354
			c-0.163,0.064-0.332,0.111-0.551,0.183c0-0.951,0-1.854,0-2.759c0-9.588,0.002-19.178-0.01-28.766
			c0-0.389,0.112-0.555,0.479-0.691C19.465,12.377,28.742,8.882,38.021,5.4c0.223-0.083,0.515-0.087,0.744-0.022
			c5.027,1.441,10.049,2.9,15.076,4.34c0.346,0.1,0.452,0.245,0.452,0.6c-0.009,14.521-0.009,29.042,0,43.563
			c0,0.357-0.112,0.501-0.457,0.595c-5.027,1.382-10.05,2.783-15.079,4.158c-0.268,0.073-0.611,0.015-0.881-0.084
			c-5.108-1.879-10.21-3.775-15.314-5.666c-3.965-1.467-7.93-2.93-11.895-4.395c-0.09-0.034-0.176-0.074-0.252-0.159
			C19.724,49.614,29.033,50.897,38.408,52.191z"/>
	</g>
	<rect fill-rule="evenodd" clip-rule="evenodd" fill="none" width="64" height="64"/>
</g>
<g>
	<g>
		<path fill-rule="evenodd" clip-rule="evenodd" fill="#FFFFFF" d="M184.041,24.133c0,7.108-0.016,14.218,0.022,21.327
			c0.005,0.841-0.267,1.219-1.028,1.513c-3.102,1.196-6.184,2.441-9.26,3.7c-0.566,0.232-0.92,0.149-1.361-0.282
			c-5.482-5.351-10.983-10.68-16.483-16.012c-2.114-2.05-4.269-4.06-6.345-6.147c-0.635-0.636-1.049-0.606-1.725-0.087
			c-4.279,3.3-8.604,6.542-12.878,9.848c-0.667,0.517-1.146,0.518-1.938,0.233c-1.709-0.613-2.135-1.653-2.107-3.426
			c0.115-7.42,0.072-14.842,0.022-22.264c-0.007-1.051,0.351-1.539,1.242-2.072c1.368-0.816,2.31-0.672,3.558,0.324
			c4.059,3.24,8.245,6.32,12.366,9.483c0.505,0.387,0.821,0.417,1.304-0.06c2.984-2.943,6.008-5.85,9.01-8.776
			c4.567-4.452,9.137-8.901,13.679-13.378c0.583-0.574,1.054-0.763,1.862-0.42c3.029,1.281,6.088,2.5,9.152,3.698
			c0.682,0.267,0.931,0.614,0.927,1.365C184.029,9.845,184.041,16.989,184.041,24.133z M157.364,24.084
			c4.638,3.492,9.14,6.881,13.775,10.371c0-6.979,0-13.706,0-20.66C166.49,17.269,161.994,20.626,157.364,24.084z M135.65,30.39
			c2.415-2.189,4.629-4.197,6.949-6.301c-2.324-2.075-4.545-4.058-6.949-6.203C135.65,22.14,135.65,26.104,135.65,30.39z"/>
	</g>
	<rect x="125.5" y="-7.867" fill-rule="evenodd" clip-rule="evenodd" fill="none" width="64" height="64"/>
</g>
<g>
	<g>
		<path fill="#FFFFFF" d="M186.69-56.342c0.669-0.669,0.784-1.678,0.349-2.467c-0.093-0.167-0.207-0.324-0.349-0.467l-25.199-25.199
			h-0.001l-0.018,0.016c-5.197,5.199-5.196,13.625,0,18.823l7.829,7.828l9.428,9.427L186.69-56.342z"/>
		
			<linearGradient id="SVGID_1_" gradientUnits="userSpaceOnUse" x1="21.4795" y1="-162.3218" x2="21.4795" y2="-136.7705" gradientTransform="matrix(0.7071 0.7071 -0.7071 0.7071 44.8778 45.6664)">
			<stop  offset="0.1" style="stop-color:#FFFFFF"/>
			<stop  offset="1" style="stop-color:#FFFFFF;stop-opacity:0"/>
		</linearGradient>
		<path fill="url(#SVGID_1_)" d="M170.13-58.637l-0.828,0.829l-2.238,2.237l-15.001,15.001l7.961,7.961
			c0.811,0.81,2.124,0.81,2.934,0l13.534-13.535l2.238-2.237l0.828-0.828L170.13-58.637z"/>
		<path fill="#FFFFFF" d="M136.291-59.275c-0.668,0.67-0.784,1.679-0.35,2.468c0.093,0.167,0.209,0.324,0.35,0.466l25.199,25.199
			v0.002l0.018-0.018c5.198-5.199,5.197-13.625,0-18.822l-7.828-7.827l-9.427-9.429L136.291-59.275z"/>
		
			<linearGradient id="SVGID_2_" gradientUnits="userSpaceOnUse" x1="-62.585" y1="386.5459" x2="-62.585" y2="412.0977" gradientTransform="matrix(-0.7071 -0.7071 0.7071 -0.7071 -169.4432 167.3805)">
			<stop  offset="0.1" style="stop-color:#FFFFFF"/>
			<stop  offset="1" style="stop-color:#FFFFFF;stop-opacity:0"/>
		</linearGradient>
		<path fill="url(#SVGID_2_)" d="M152.852-56.979l0.828-0.828l2.238-2.238l15.001-15.001l-7.962-7.961
			c-0.81-0.811-2.123-0.811-2.934,0L146.49-69.473l-2.237,2.236l-0.829,0.828L152.852-56.979z"/>
	</g>
	<rect x="129.491" y="-89.808" fill-rule="evenodd" clip-rule="evenodd" fill="none" width="64" height="64"/>
</g>
</svg>
